<?xml version="1.0" encoding="UTF-8"?><svg id="_图层_2" xmlns="http://www.w3.org/2000/svg" xmlns:xlink="http://www.w3.org/1999/xlink" viewBox="0 0 4518.53 1270.9"><defs><style>.cls-1{fill:url(#_未命名的渐变_2-2);}.cls-2,.cls-3{fill:#002e4d;}.cls-4{fill:#fff;}.cls-3{fill-rule:evenodd;}.cls-5{fill:url(#_未命名的渐变_3);}.cls-6{fill:url(#_未命名的渐变_2);}</style><linearGradient id="_未命名的渐变_2" x1="-1464.12" y1="7725.4" x2="-756.22" y2="7850.22" gradientTransform="translate(1627 8181.4) scale(1 -1)" gradientUnits="userSpaceOnUse"><stop offset="0" stop-color="#00acef"/><stop offset="1" stop-color="#008acf"/></linearGradient><linearGradient id="_未命名的渐变_2-2" x1="-1410.91" y1="7384.61" x2="-542.31" y2="7537.77" xlink:href="#_未命名的渐变_2"/><linearGradient id="_未命名的渐变_3" x1="-1617.45" y1="7435.58" x2="-365.65" y2="7656.31" gradientTransform="translate(1627 8181.4) scale(1 -1)" gradientUnits="userSpaceOnUse"><stop offset="0" stop-color="#00acef"/><stop offset=".34" stop-color="#00a9ec"/><stop offset=".59" stop-color="#009fe6"/><stop offset=".8" stop-color="#0090db"/><stop offset="1" stop-color="#007acc"/><stop offset="1" stop-color="#007acc"/></linearGradient></defs><g id="_图层_2-2"><g id="_彩色"><path class="cls-6" d="m857.22,254.29C257.49,351.24,194.52,635.44,194.52,635.44c0-243.52,197.41-440.92,440.93-440.92,80.86,0,156.63,21.76,221.78,59.76h0Z"/><path class="cls-1" d="m941.22,317.77s-630.15,25.77-740.37,392.47v.02c5.53,32.4,14.61,63.6,26.81,93.18,0,0,38.01-397.92,655.86-395.3l15.68,35.27s-635.78,46.73-619.16,320.03c5.93,97.5,80.7,188.1,80.7,188.1,0,0-42.59-11.66-62.25-31.7,80.88,95.74,201.82,156.54,336.97,156.54,243.52,0,440.93-197.41,440.93-440.93,0-124.79-51.84-237.47-135.16-317.67h0Zm-275.84,690.29c-93.76.77-304.86-40.4-348.12-188.27-46.71-159.72,650.78-359.14,682.4-228.24,38.29,158.48-281.2,244.51-283.55,245.14,1.89-.97,142.05-73.02,96.04-148.31-50.72-82.99-222.09-34.58-278.19,39.19-42.52,55.91-53.79,199.8,137.56,199.8s341.2-124.5,341.2-124.5c-97.6,149.08-253.59,204.41-347.34,205.18h0Z"/><path class="cls-5" d="m635.45,0C284.5,0,0,284.5,0,635.45s284.5,635.45,635.45,635.45,635.45-284.5,635.45-635.45S986.39,0,635.45,0Zm0,1135.92c-276.4,0-500.47-224.07-500.47-500.47s224.07-500.47,500.47-500.47,500.47,224.07,500.47,500.47-224.07,500.47-500.47,500.47h0Z"/><path class="cls-4" d="m61.46,650.31l31.36-16.32.32,9.62-12.79,5.95c-3.72,1.61-7.19,3.16-11.01,4.88v.31c3.93,1.47,7.5,2.95,11.32,4.3l13.16,5.09.31,9.37-32.37-14.21-18.87.63-.29-9,18.87-.63h0Z"/><path class="cls-4" d="m53.94,677.7c8.13-.81,13.03,5.5,16.25,20.9,4.07-.53,7.3-2.51,6.79-7.64-.37-3.77-2.43-7.15-4.8-10.28l5.6-3.87c3.04,3.91,5.93,9.05,6.53,15.07.95,9.48-4.42,14.73-14.99,15.79l-22.46,2.24-.73-7.29,4.14-1.1-.02-.25c-3.24-3.1-5.85-6.78-6.3-11.25-.66-6.64,3.39-11.67,10-12.32h0Zm2.2,22.31l8.52-.85c-2.32-10.16-5.36-13.32-9.18-12.94-3.35.33-4.59,2.76-4.28,5.95.31,3.09,2.06,5.29,4.93,7.84h0Z"/><path class="cls-4" d="m85.89,714.49l1.24,7.22-4.97,1.54.04.25c3.85,2.8,7.23,6.15,8.12,11.3,1.38,8.05-3.45,12.5-12.94,14.13l-23.56,4.06-1.51-8.81,22.43-3.86c6.18-1.06,8.2-3.24,7.5-7.31-.57-3.31-2.56-5.2-6.15-7.76l-26.25,4.52-1.51-8.81,37.57-6.47h0Z"/><path class="cls-4" d="m59.62,759.16l6.5,2.72c-1.78,3.9-2.58,7.47-1.68,11.22.97,4.04,3.33,5.49,5.87,4.88,3.11-.75,3.53-5.1,4.09-9.41.66-5.3,2.11-11.53,8.3-13.02,6.43-1.54,12.32,2.53,14.32,10.83,1.24,5.16.14,9.8-1.47,13.38l-6.3-2.7c1.28-3.05,1.98-5.98,1.28-8.89-.89-3.73-3.1-5.07-5.43-4.51-2.93.71-3.14,4.72-3.66,9.09-.67,5.46-1.73,11.66-8.65,13.32-6.37,1.53-12.71-2.27-14.96-11.63-1.22-5.07-.33-10.94,1.79-15.27h0Z"/><path class="cls-4" d="m116.69,780.26l2.65,8.54-13.55,4.21-7.14,1.83c3.83,2.16,7.59,4.96,9.13,9.93,2.42,7.8-1.79,12.84-10.98,15.7l-22.83,7.1-2.65-8.54,21.73-6.76c5.99-1.86,7.71-4.28,6.48-8.23-.99-3.2-3.22-4.82-7.12-6.89l-25.43,7.91-2.65-8.54,52.35-16.28h0Z"/><path class="cls-4" d="m86.56,832.48c7.61-2.97,14.03,1.78,21.3,15.74,3.77-1.61,6.35-4.39,4.47-9.18-1.38-3.52-4.27-6.23-7.4-8.61l4.35-5.24c3.98,2.94,8.15,7.11,10.35,12.75,3.47,8.88-.28,15.37-10.17,19.25l-21.02,8.23-2.67-6.82,3.69-2.17-.09-.23c-3.96-2.12-7.47-4.94-9.11-9.13-2.43-6.22.12-12.15,6.3-14.57h0Zm8.14,20.89l7.98-3.12c-4.98-9.15-8.75-11.38-12.34-9.97-3.14,1.23-3.67,3.9-2.51,6.88,1.13,2.89,3.41,4.53,6.87,6.22h0Z"/><path class="cls-4" d="m127.26,859.26l3.15,6.61-4.36,2.83.11.23c4.47,1.65,8.63,3.97,10.87,8.68,3.51,7.37.05,12.97-8.63,17.11l-21.58,10.28-3.84-8.07,20.54-9.79c5.67-2.69,7.02-5.34,5.24-9.07-1.44-3.03-3.87-4.31-8.03-5.81l-24.05,11.46-3.84-8.07,34.42-16.39h0Z"/><path class="cls-4" d="m138.34,916.78l24.3-14.89,4.7,7.68-24.88,15.24c-9.42,5.77-10.36,11.19-7.16,16.43,3.24,5.29,8.58,7.05,18,1.28l24.88-15.24,4.52,7.39-24.3,14.89c-14.21,8.71-23.63,5.81-29.78-4.22-6.15-10.04-4.51-19.85,9.7-28.55h0Z"/><path class="cls-4" d="m177.34,949.1l4.32,5.92-3.76,3.59.15.2c4.7.8,9.21,2.31,12.29,6.52,4.81,6.6,2.45,12.74-5.32,18.41l-19.32,14.09-5.27-7.23,18.39-13.41c5.07-3.69,5.91-6.54,3.48-9.88-1.98-2.71-4.6-3.52-8.96-4.22l-21.52,15.69-5.27-7.23,30.8-22.47v.02Z"/><path class="cls-4" d="m202.07,982.08l5.64,6.93-29.56,24.07-5.64-6.93,29.56-24.08h0Zm8.45-8.2c2.34-1.9,5.42-1.37,7.41,1.09,2,2.45,1.9,5.58-.43,7.48-2.29,1.86-5.42,1.37-7.41-1.09-2-2.45-1.85-5.62.43-7.48Z"/><path class="cls-4" d="m210.34,992.6l6.06,6.74-10.66,17.72c-2.09,3.3-4.25,6.74-6.39,10.08l.21.23c3.55-1.77,7.2-3.55,10.7-5.28l18.76-8.72,5.77,6.42-37.01,15.85-6.91-7.69,19.48-35.36h0Z"/><path class="cls-4" d="m222.73,1034.71c8.65-8.86,20.14-8.32,26.56-2.06,7.37,7.2,6.06,16.33-1.38,23.95-1.2,1.22-2.52,2.31-3.31,2.84l-17.32-16.9c-4.19,5.36-3.77,11.15.63,15.45,2.34,2.27,5.04,3.49,8.27,4.21l-1.71,6.1c-4.32-.78-8.77-2.79-12.24-6.18-7.53-7.35-8.28-18.41.5-27.4h0Zm20.86,15.25c4.1-4.2,4.73-8.58.99-12.22-3.17-3.1-8.3-3.45-13.12.38l12.13,11.84h0Z"/><path class="cls-4" d="m264.7,1048.42l5.53,4.81-3.95,5.58.19.16c5.31-1.96,10.17-1.4,13.25,1.28,1.47,1.27,2.23,2.27,2.75,3.41l-6.26,4.84c-.76-1.16-1.35-1.99-2.55-3.03-2.3-1.99-6.43-2.83-11.97.04l-15.27,17.54-6.74-5.87,25.02-28.76h0Z"/><path class="cls-4" d="m261.17,1090.06l6.78-1.91c1.04,4.16,2.62,7.45,5.67,9.83,3.28,2.56,6.02,2.23,7.63.18,1.97-2.51-.4-6.19-2.65-9.92-2.78-4.56-5.5-10.35-1.58-15.35,4.07-5.21,11.23-5.68,17.95-.42,4.18,3.28,6.2,7.59,7.16,11.4l-6.61,1.8c-.89-3.18-2.17-5.91-4.52-7.76-3.02-2.37-5.58-2.04-7.05-.16-1.85,2.37.47,5.65,2.78,9.39,2.87,4.7,5.88,10.21,1.51,15.8-4.04,5.16-11.37,6.12-18.95.19-4.11-3.21-7.05-8.36-8.09-13.08h0Z"/><path class="cls-4" d="m309.79,1084.82l7.28,5.19-22.15,31.03-7.28-5.19,22.15-31.03Zm5.98-10.14c1.75-2.45,4.86-2.75,7.44-.91,2.58,1.84,3.31,4.88,1.56,7.33-1.72,2.4-4.86,2.75-7.44.91-2.58-1.84-3.27-4.93-1.56-7.33Z"/><path class="cls-4" d="m311.91,1117.16l9.96-15.19-4.54-2.98,3.68-5.61,5.15,2.89,6.58-8.12,6.21,4.07-5.7,8.7,8.13,5.32-3.9,5.95-8.13-5.32-9.95,15.17c-2.46,3.75-2.21,6.55.85,8.56,1.09.71,2.62,1.2,3.8,1.45l-2.34,6.34c-2.11-.57-4.73-1.43-7.28-3.1-7.35-4.82-7.02-11.25-2.51-18.13h0Z"/><path class="cls-4" d="m317.6,1153.98l4.89-5.17c.52.55,1.32,1.37,2.1,1.82,3.47,2,6.85.81,9.86-1.86l1.82-1.72,5.88-40.11,7.85,4.54-3.66,19.47c-.7,3.51-1.64,7.3-2.49,11.01l.27.16c2.61-2.58,5.32-5.36,7.92-7.86l14.28-13.33,7.47,4.32-31.89,27.61c-7.04,5.84-13.17,8.44-20.37,4.28-1.8-1.04-2.93-2.06-3.91-3.16h-.02Z"/><path class="cls-4" d="m373.93,1160.9l7.35-3.41c1.85,4.66,5.31,8.82,9.59,10.79,5.19,2.39,9.12,1.34,10.78-2.25,1.75-3.8-.67-6.37-4.04-10.08l-5.04-5.63c-3.67-3.98-6.79-9.78-3.69-16.52,3.38-7.34,12.47-10.01,21.47-5.88,5.39,2.48,9.58,7.11,11.5,12.43l-6.59,3.25c-1.79-3.85-4.24-6.75-8.19-8.57-4.37-2.01-8.16-1.28-9.71,2.09-1.67,3.62,1.23,6.58,4.32,9.9l5.01,5.47c4.43,4.81,6.67,10.04,3.59,16.73-3.44,7.47-12.51,10.85-22.86,6.08-6.23-2.87-11.11-8.09-13.5-14.4h0Z"/><path class="cls-4" d="m418.24,1173.65l6.6-16.92-5.06-1.97,2.44-6.25,5.64,1.77,4.77-9.31,6.92,2.69-3.78,9.69,9.05,3.53-2.58,6.63-9.06-3.53-6.59,16.9c-1.63,4.18-.81,6.86,2.6,8.2,1.22.47,2.82.64,4.02.64l-.97,6.68c-2.19-.12-4.92-.42-7.77-1.53-8.19-3.19-9.2-9.55-6.22-17.22h0Z"/><path class="cls-4" d="m442.43,1181.54l7.32-22.76,8.51,2.74-6.97,21.66c-1.92,5.97-.93,8.77,3,10.04,3.19,1.02,5.77.23,9.65-2.44l7.99-24.86,8.51,2.74-11.67,36.29-6.98-2.24,1.07-5.56-.23-.08c-4.41,2.76-8.72,4.07-13.68,2.48-7.77-2.5-9.48-8.86-6.53-18.01h0Z"/><path class="cls-4" d="m482.37,1189.13c2.91-12.07,12.27-17.64,20.39-15.69,4.2,1.01,6.47,3.22,8.74,6.42l1.11-6.05,3.24-13.43,8.69,2.1-12.85,53.3-7.12-1.72.3-4.18-.24-.05c-3.41,2.09-7.74,3.34-11.72,2.38-9.24-2.23-13.48-10.85-10.53-23.07h0Zm23.14,14.1l4.16-17.26c-1.99-2.87-4.3-4.29-6.81-4.9-4.71-1.13-9.68,2.39-11.54,10.12-1.94,8.06.11,13.05,5.45,14.34,2.86.69,5.59,0,8.73-2.31h0Z"/><path class="cls-4" d="m523.86,1198.86c2.04-12.22,11.78-18.33,20.63-16.86,10.17,1.7,14.3,9.94,12.54,20.44-.28,1.68-.75,3.34-1.1,4.22l-23.87-3.99c-.38,6.8,3.28,11.31,9.34,12.32,3.21.54,6.14-.02,9.18-1.27l2.09,5.98c-3.99,1.82-8.79,2.72-13.57,1.92-10.38-1.73-17.31-10.38-15.24-22.79h0Zm25.84.61c.97-5.79-1.02-9.74-6.16-10.59-4.38-.73-8.79,1.9-10.56,7.81l16.72,2.79h0Z"/><path class="cls-4" d="m566.05,1186.3l7.3.7.19,5.19.25.02c3.72-2.98,7.84-5.36,13.03-4.87,8.13.78,11.16,6.61,10.24,16.2l-2.27,23.8-8.9-.85,2.17-22.65c.6-6.24-.97-8.76-5.08-9.16-3.34-.32-5.69,1.11-9.1,3.9l-2.53,26.52-8.9-.85,3.62-37.95h0Z"/><path class="cls-4" d="m607.54,1215.01l.64-18.15-5.43-.19.24-6.7,5.91-.19,1.42-10.35,7.41.26-.36,10.39,9.71.34-.25,7.1-9.71-.34-.64,18.13c-.16,4.49,1.5,6.74,5.16,6.88,1.3.05,2.87-.33,4-.73l1.29,6.63c-2.1.61-4.78,1.23-7.84,1.12-8.78-.31-11.84-5.98-11.55-14.2h0Z"/><path class="cls-4" d="m646.34,1177.94l9.24-.5,17.29,27.64,5.83,10.53.31-.02c-.72-5.22-1.78-11.6-2.09-17.24l-1.2-22.01,8.55-.47,2.75,50.68-9.24.5-17.29-27.68-5.82-10.49-.31.02c.72,5.34,1.77,11.41,2.07,17.05l1.2,22.2-8.55.47-2.75-50.68h0Z"/><path class="cls-4" d="m694.7,1206.66c-1.61-12.28,5.91-20.98,14.81-22.14,10.22-1.34,16.58,5.33,17.97,15.89.23,1.69.26,3.41.18,4.36l-24,3.16c1.62,6.61,6.43,9.86,12.53,9.06,3.23-.43,5.87-1.81,8.41-3.9l3.74,5.11c-3.28,2.9-7.62,5.17-12.42,5.8-10.43,1.37-19.59-4.87-21.23-17.34h0Zm24.88-6.97c-.77-5.82-3.82-9.02-8.99-8.34-4.4.58-7.85,4.39-7.82,10.55l16.8-2.21Z"/><path class="cls-4" d="m737.44,1206.73l-3.38-17.84-5.34,1.02-1.25-6.59,5.72-1.5-.9-10.42,7.29-1.38,1.94,10.22,9.55-1.81,1.33,6.99-9.55,1.81,3.38,17.83c.84,4.41,2.96,6.25,6.56,5.56,1.28-.24,2.72-.96,3.74-1.6l2.72,6.19c-1.92,1.06-4.39,2.26-7.4,2.83-8.63,1.64-12.87-3.21-14.4-11.3h0Z"/><path class="cls-4" d="m767.43,1161.58l8.72-2.26,12.72,49.14-8.72,2.26-12.72-49.14Z"/><path class="cls-4" d="m788.86,1169.13l6.98-2.23,2.21,4.7.24-.08c2.24-4.2,5.11-8.01,10.07-9.59,7.78-2.48,12.86,1.7,15.78,10.87l7.26,22.77-8.52,2.72-6.91-21.68c-1.9-5.98-4.34-7.68-8.27-6.43-3.2,1.02-4.8,3.25-6.84,7.16l8.09,25.38-8.52,2.72-11.58-36.32h.02Z"/><path class="cls-4" d="m824.74,1157.78l5.08-2.37,14.87-5.7,2.55,6.64-20.09,7.71-2.4-6.26h0Zm3.23-5.89c-2.83-7.37-1.51-14.09,6.89-17.31,2.58-.99,5.16-1.28,7-1.26l.8,6.85c-1.49-.06-2.96.17-4.18.64-2.96,1.13-3.8,3.6-2.22,7.74l15.12,39.42-8.35,3.21-15.06-39.28h0Z"/><path class="cls-4" d="m854.38,1166.54c-5.22-11.58-.36-21.8,8.3-25.7,8.66-3.9,19.53-.77,24.75,10.81,5.18,11.52.33,21.75-8.34,25.64-8.66,3.9-19.53.77-24.73-10.76h0Zm24.68-11.11c-3.14-6.96-8.28-10.23-13.38-7.93-5.09,2.3-6.06,8.31-2.93,15.27,3.14,6.96,8.26,10.17,13.35,7.88,5.09-2.3,6.08-8.26,2.95-15.22h0Z"/><path class="cls-4" d="m885.4,1131.1l6.49-3.41,3.76,5.7.22-.12c.09-5.66,2.38-9.98,5.99-11.88,1.72-.9,2.92-1.26,4.18-1.32l2.24,7.59c-1.36.29-2.35.54-3.75,1.27-2.69,1.41-4.97,4.96-4.3,11.17l10.82,20.58-7.92,4.16-17.73-33.75Z"/><path class="cls-4" d="m909.12,1119.06l6.19-3.92,3.36,4.03.21-.13c.92-4.57,2.57-8.89,6.6-11.44,4.72-2.99,8.77-2.55,12.54.14,1-5.23,2.62-9.74,6.71-12.33,6.79-4.3,12.9-1.63,18.04,6.5l12.79,20.19-7.55,4.78-12.18-19.22c-3.35-5.3-6.19-6.29-9.58-4.15-2.04,1.3-3.41,4-4.2,8.28l14.26,22.5-7.55,4.79-12.18-19.22c-3.35-5.3-6.19-6.29-9.58-4.15-1.99,1.27-3.41,4-4.2,8.28l14.26,22.5-7.55,4.79-20.4-32.2h0Z"/><path class="cls-4" d="m977.15,1107.89c-4.97-6.47-2.2-13.97,9.19-24.83-2.59-3.17-5.98-4.88-10.07-1.74-3,2.31-4.8,5.84-6.21,9.5l-6.24-2.72c1.72-4.65,4.56-9.81,9.36-13.5,7.56-5.81,14.85-4,21.32,4.41l13.75,17.9-5.81,4.46-3.11-2.93-.19.16c-.93,4.39-2.67,8.55-6.24,11.29-5.29,4.07-11.7,3.27-15.75-1.99h0Zm17.8-13.63l-5.22-6.79c-7.4,7.33-8.49,11.57-6.15,14.62,2.05,2.67,4.77,2.44,7.31.5,2.46-1.89,3.41-4.53,4.06-8.32h0Z"/><path class="cls-4" d="m1009.01,1079.43l-11.87-13.75-4.11,3.55-4.39-5.08,4.21-4.16-6-8.56,5.62-4.85,6.79,7.88,7.36-6.35,4.65,5.39-7.36,6.35,11.86,13.74c2.93,3.4,5.69,3.93,8.46,1.54.99-.85,1.88-2.2,2.44-3.25l5.45,3.99c-1.13,1.88-2.67,4.15-4.98,6.15-6.65,5.74-12.75,3.66-18.13-2.57h0Z"/><path class="cls-4" d="m1002.13,1036.21c-2.06-2.2-1.73-5.31.58-7.47s5.43-2.27,7.49-.08c2.01,2.16,1.73,5.31-.58,7.47-2.31,2.17-5.48,2.23-7.49.08Zm8.76,7.88l6.53-6.1,26.02,27.85-6.53,6.1-26.02-27.85Z"/><path class="cls-4" d="m1036.17,1046.82c-9.14-8.81-8.43-20.11-1.83-26.95,6.6-6.84,17.86-7.97,27,.85,9.1,8.77,8.38,20.06,1.79,26.91-6.6,6.85-17.86,7.97-26.95-.8h0Zm18.79-19.49c-5.49-5.3-11.49-6.42-15.37-2.4-3.88,4.02-2.54,9.97,2.96,15.27,5.49,5.3,11.45,6.38,15.32,2.35,3.88-4.02,2.58-9.93-2.91-15.23h0Z"/><path class="cls-4" d="m1051.89,1002.54l4.69-5.63,4.4,2.77.16-.19c-.36-4.75,0-9.5,3.33-13.51,5.22-6.27,11.76-5.49,19.15.68l18.37,15.3-5.72,6.87-17.49-14.56c-4.82-4.01-7.78-4.14-10.43-.96-2.14,2.58-2.29,5.32-1.91,9.72l20.47,17.04-5.72,6.87-29.3-24.39-.02.02Z"/><path class="cls-4" d="m1081.5,943.97l5.93-8.73,51.29,14.82-5.36,7.89-26.69-8.78c-5.35-1.68-10.97-3.7-16.42-5.6l-.17.26c3.87,4.32,7.78,8.77,11.32,13.12l17.97,21.61-5.16,7.6-32.7-42.2h0Zm20.97,22.41l13.43-19.78,5.84,3.97-13.43,19.78-5.84-3.97Z"/><path class="cls-4" d="m1135.77,946.1l-2.79-6.47c3.99-1.58,7.04-3.59,9-6.92,2.11-3.59,1.41-6.26-.84-7.58-2.76-1.62-6.08,1.22-9.48,3.93-4.15,3.36-9.52,6.83-15.01,3.6-5.7-3.35-7.12-10.38-2.79-17.73,2.69-4.58,6.71-7.15,10.35-8.61l2.66,6.32c-3.04,1.31-5.58,2.93-7.09,5.52-1.94,3.31-1.28,5.8.78,7.01,2.59,1.53,5.53-1.21,8.94-4,4.27-3.47,9.34-7.19,15.47-3.59,5.65,3.32,7.57,10.46,2.69,18.76-2.65,4.49-7.36,8.1-11.89,9.76h0Z"/><path class="cls-4" d="m1152.45,917.54l-3.15-6.3c3.9-1.8,6.83-3.97,8.6-7.41,1.9-3.7,1.06-6.33-1.26-7.53-2.84-1.46-6,1.55-9.24,4.46-3.96,3.59-9.13,7.35-14.79,4.44-5.88-3.03-7.69-9.96-3.79-17.56,2.43-4.72,6.29-7.51,9.85-9.17l3.01,6.15c-2.96,1.48-5.4,3.24-6.78,5.91-1.75,3.41-.95,5.86,1.17,6.95,2.68,1.38,5.46-1.52,8.7-4.49,4.07-3.7,8.92-7.7,15.24-4.45,5.82,3,8.15,10.02,3.74,18.58-2.38,4.64-6.88,8.5-11.32,10.41h0Z"/><path class="cls-4" d="m1154.81,880.86c-11.64-5.07-14.92-15.9-11.12-24.61,3.8-8.71,13.95-13.7,25.6-8.63,11.59,5.04,14.86,15.88,11.07,24.59-3.79,8.71-13.95,13.7-25.53,8.66h0Zm10.8-24.82c-7-3.05-13.01-2-15.24,3.12-2.23,5.12,1.1,10.23,8.1,13.28,7,3.05,12.95,1.98,15.18-3.14,2.23-5.12-1.04-10.21-8.05-13.25h0Z"/><path class="cls-4" d="m1171.13,842.63c-11.96-4.28-15.83-15.19-12.42-24.75,1.63-4.56,4.58-7.26,7.78-9.05l4,6.05c-2.34,1.3-3.96,2.77-4.77,5.02-2.07,5.79,1.3,11.51,8.48,14.08,7.19,2.57,13.33.32,15.34-5.27,1-2.81.55-5.87-.44-8.53l6.78-1.44c1.78,4.43,1.68,9.2.23,13.3-3.5,9.79-13.09,14.84-24.98,10.59h0Z"/><path class="cls-4" d="m1153.43,799.57c-2.88-.88-4.15-3.73-3.23-6.76s3.57-4.69,6.46-3.81c2.82.86,4.15,3.73,3.23,6.76-.92,3.03-3.63,4.66-6.46,3.81Zm11.53,2.44l2.61-8.55,36.46,11.14-2.61,8.55-36.46-11.14Z"/><path class="cls-4" d="m1196.81,793.45c-7.92-1.99-10.4-9.59-8.23-25.17-4-.88-7.71-.11-8.97,4.89-.92,3.67-.13,7.55,1.04,11.3l-6.58,1.75c-1.54-4.7-2.51-10.52-1.05-16.39,2.31-9.24,9.15-12.36,19.45-9.79l21.89,5.49-1.78,7.11-4.26-.36-.06.24c2,4.02,3.22,8.36,2.13,12.73-1.62,6.47-7.13,9.83-13.58,8.21h0Zm5.48-21.73l-8.31-2.08c-1.25,10.35.54,14.34,4.27,15.28,3.27.82,5.25-1.05,6.03-4.15.75-3.01-.15-5.67-1.99-9.04h0Z"/><path class="cls-4" d="m1204.09,751.35l-17.84-3.39-1.02,5.34-6.59-1.25.71-5.87-10.02-2.98,1.39-7.29,10.21,1.94,1.82-9.55,6.99,1.33-1.82,9.55,17.83,3.39c4.41.84,6.9-.46,7.58-4.06.24-1.28.11-2.89-.11-4.07l6.75-.26c.28,2.17.49,4.91-.09,7.92-1.64,8.63-7.71,10.8-15.79,9.26h0Z"/><path class="cls-4" d="m1171.83,721.78c-2.98-.44-4.66-3.08-4.19-6.21.47-3.14,2.84-5.16,5.82-4.72,2.92.43,4.66,3.08,4.19,6.21-.47,3.14-2.9,5.15-5.82,4.72Zm11.76.72l1.32-8.84,37.7,5.63-1.32,8.84-37.7-5.63Z"/><path class="cls-4" d="m1205.08,708.92c-12.64-1.21-19.11-10.5-18.21-19.95.91-9.45,9.02-17.35,21.66-16.14,12.58,1.2,19.05,10.49,18.15,19.95-.91,9.45-9.02,17.35-21.6,16.14h0Zm2.58-26.95c-7.61-.73-12.99,2.13-13.52,7.68-.54,5.56,4.21,9.38,11.82,10.11,7.6.73,12.93-2.13,13.46-7.69.54-5.56-4.15-9.38-11.76-10.11h0Z"/><path class="cls-4" d="m1189.84,664.47l.17-7.33,5.17-.57v-.25c-3.24-3.49-5.91-7.44-5.79-12.65.19-8.16,5.79-11.6,15.41-11.39l23.9.55-.2,8.94-22.75-.52c-6.27-.15-8.67,1.6-8.76,5.73-.08,3.35,1.52,5.6,4.55,8.8l26.63.61-.2,8.94-38.12-.87h0Z"/><path class="cls-4" d="m149.59,296.52c-1.63-1.58-3-2.84-4.11-3.8-1.12-.95-2.09-1.7-2.93-2.24-.84-.54-1.58-.9-2.24-1.09-.66-.19-1.35-.31-2.07-.36-2.06-.06-3.11-.65-3.14-1.76-.03-1.11,1.06-2.23,3.27-3.35,1.79-.95,3.21-1.65,4.27-2.1s1.91-.64,2.57-.61c.65.04,1.17.29,1.55.78s.79,1.18,1.22,2.09c.43.9.96,1.83,1.58,2.79.62.95,1.51,2.13,2.66,3.52.36-.95.75-1.96,1.16-3,.41-1.03.88-2.2,1.4-3.51s1.02-2.42,1.52-3.36,1.03-1.74,1.6-2.41c.57-.66,1.23-1.22,2-1.68.76-.45,1.65-.86,2.65-1.23,1.14-.34,2.05-.49,2.73-.43s1.09.36,1.24.91c.15.55-.05,1.37-.62,2.46-.56,1.09-1.53,2.47-2.92,4.15-.67.75-1.68,2.2-3.05,4.35-1.37,2.15-2.93,4.66-4.67,7.53.63.73,1.31,1.52,2.04,2.37.74.85,1.55,1.77,2.45,2.76,2.2-.68,3.66-.65,4.36.06.71.71.43,2.22-.84,4.51-.95,1.61-1.79,3.09-2.49,4.45s-1.58,3.07-2.63,5.14c1.23,1.38,1.72,2.41,1.44,3.08s-1.16.99-2.64.95c-.36-.02-.75-.09-1.17-.19s-1.01-.33-1.77-.71c-.76-.37-1.82-.89-3.17-1.56-1.35-.67-3.14-1.61-5.39-2.86-1.3,3.1-2.37,5.52-3.18,7.25-.81,1.74-1.55,3.08-2.2,4.02-.65.95-1.3,1.63-1.97,2.04-.66.41-1.53.85-2.6,1.32-3.1,1.33-3.74.67-1.91-1.99.42-.61.88-1.28,1.37-1.99.49-.71,1.06-1.62,1.71-2.72s1.42-2.41,2.32-3.94,1.99-3.44,3.26-5.73c-2.33-1.22-4.28-2-5.85-2.34-1.58-.33-3.14-.31-4.68.06-2.06.47-3.24.31-3.57-.48-.33-.79.54-2.17,2.58-4.16,1.33-1.27,2.4-2.25,3.21-2.93.81-.68,1.48-1.11,2.01-1.27.53-.16.99-.11,1.4.18.41.28.87.71,1.37,1.29.95,1.03,3.07,2.56,6.34,4.59.92-1.78,1.75-3.36,2.48-4.74s1.41-2.76,2.05-4.13v.02Zm9.17,36.61c-.75,2.72-1.5,4.84-2.25,6.31-.75,1.48-1.78,2.56-3.08,3.24-1.18.62-1.96.76-2.33.43-.37-.33-.31-1.08.19-2.24.39-.78.78-1.74,1.18-2.86.4-1.12.75-2.29,1.06-3.51.12-.51.35-1.02.65-1.53.31-.5.8-1.13,1.46-1.88-1.25-.71-2.37-1.26-3.38-1.65s-1.96-.55-2.83-.48c-2.03.11-3.05-.33-3.06-1.31,0-.98,1.23-2.13,3.72-3.43,2.12-1.1,3.63-1.61,4.54-1.51.91.1,1.63.59,2.15,1.47.09.21.36.54.85.98.48.45,1.04.9,1.66,1.37s1.24.91,1.85,1.33c.61.42,1.07.74,1.38.95,2.97,1.82,5.04,3.15,6.23,4s1.98,1.53,2.38,2.04c.59.78.95,1.5,1.06,2.15.12.64-.02,1.16-.42,1.52-.4.36-1.06.5-1.97.4-.91-.1-2.09-.53-3.52-1.29.13,2.65.27,4.48.41,5.48s.3,1.75.48,2.26c.33,1.06.3,1.89-.08,2.49s-1.61,1.33-3.69,2.16c-1.66.67-2.72.73-3.18.19-.46-.54-.26-1.54.59-2.99.39-.78.85-2.13,1.37-4.04.52-1.9.96-4.28,1.33-7.11-.84-.43-1.66-.9-2.48-1.42-.81-.52-1.58-1.02-2.29-1.52h0Zm-3.79-21.6c.76-1.44,1.33-2.61,1.69-3.52.36-.92.58-1.67.65-2.27.07-.59-.02-1.1-.25-1.53s-.6-.88-1.09-1.37c-.66-.68-1.3-1.33-1.89-1.92-.61-.61-1.2-1.18-1.79-1.75-.81,1.4-1.58,2.77-2.32,4.11-.74,1.34-1.43,2.65-2.09,3.93,1.06.65,2.18,1.35,3.37,2.09,1.19.75,2.43,1.48,3.73,2.23h0Zm8.23,7.59c1.92-3.12,3-5.77,3.22-7.96.16-1.32.49-2.32.99-3,.5-.68,1.63-1.3,3.4-1.9,2.27-.78,3.69-1.04,4.28-.79s.93,1.06,1.05,2.42c.08.66.23,1.33.47,2.03.24.69.73,1.71,1.47,3.04,2.1-.21,3.45-.02,4.02.57.57.59.48,1.6-.28,3.03-.66,1.28-1.43,2.73-2.31,4.35-.88,1.61-1.89,3.35-3.02,5.22.86,1.27,1.07,2.17.63,2.69-.4.48-1.06.67-1.97.57-.91-.1-1.96-.48-3.16-1.16-1.89-1.08-3.76-1.95-5.6-2.62-1.84-.66-3.39-1.02-4.65-1.05-1.57-.02-2.35-.47-2.36-1.34,0-.87,1.27-2.24,3.83-4.09h0Zm14-20.67c.57-4.43.4-7.15-.5-8.14-1.12-1.22-1.38-2.21-.78-2.97.6-.76,2.59-1.51,5.98-2.27,1.11-.29,1.8-.18,2.07.36.28.53.05,1.44-.7,2.74-.16.34-.33.73-.52,1.16s-.42,1.07-.68,1.9c-.27.83-.61,1.96-1.02,3.37-.41,1.41-.95,3.28-1.65,5.6,2.64,1.97,4.61,2.83,5.91,2.59s2.58-1.61,3.86-4.13c.36-.74.61-1.37.75-1.92s.16-1.06.05-1.55c-.12-.49-.33-1-.65-1.52-.32-.52-.79-1.15-1.42-1.88-1.81-2.07-2.51-3.35-2.11-3.83s1.56-.13,3.47,1.03c1.4.81,2.41,1.34,3.03,1.58s1.36.35,2.2.33c1.2,0,2.04.46,2.5,1.38s.2,2.58-.78,5c-2.24,5.32-4.78,8.69-7.64,10.12-2.86,1.42-5.77,1.05-8.72-1.13-3.99-2.97-7.06-5.12-9.23-6.47-2.17-1.34-3.49-1.99-3.97-1.95-2.31.07-3.57-.34-3.78-1.24-.21-.9.94-2.07,3.44-3.52,1.09-.61,1.96-1.04,2.6-1.32.64-.27,1.17-.38,1.58-.33.41.05.76.26,1.05.61.29.35.64.88,1.03,1.61.39.64.99,1.38,1.82,2.21.82.83,1.76,1.68,2.82,2.56h0Zm-3.35,25.39c.57-1.27,1.02-2.3,1.33-3.1s.54-1.44.65-1.92c.11-.49.11-.87,0-1.13s-.29-.56-.53-.88c-.63-.73-1.23-1.38-1.83-1.94s-1.16-1.1-1.71-1.63c-.63-.5-1.2-.55-1.73-.12-.52.43-1.14,1.5-1.85,3.19-.18.48-.41.98-.69,1.5-.29.52-.59,1.08-.93,1.68,1.96,1.2,3.48,2.13,4.57,2.81,1.09.68,1.99,1.19,2.73,1.54h0Zm-1.2,23.59c.96.36,1.92.91,2.88,1.65.96.74,1.88,1.63,2.74,2.68s1.61,2.23,2.26,3.53c.64,1.31,1.14,2.69,1.51,4.14.51,2.31.32,3.91-.59,4.8-.91.88-2.37.86-4.36-.06-.74-.36-1.37-.91-1.91-1.65-.54-.75-1.06-2.24-1.56-4.46-.13-.47-.32-1.05-.56-1.74-.24-.69-.51-1.39-.82-2.1-.31-.7-.62-1.37-.94-2-.32-.63-.61-1.15-.85-1.55-1.08-1.72-1.42-2.84-1.02-3.36.4-.52,1.47-.47,3.24.14h0Zm18.5-12.59c1.48,1.02,2.13,2.1,1.96,3.22-.17,1.13-1.16,1.9-2.96,2.32-.61.11-1.37.21-2.29.29-.92.09-1.88.12-2.86.12s-1.96,0-2.92-.03c-.96-.02-1.77-.11-2.42-.26-2.06-.29-3.16-.72-3.29-1.3-.13-.57.61-1.44,2.24-2.59,1.58-1.09,2.93-1.94,4.05-2.52,1.12-.58,2.13-.94,3.05-1.06s1.79-.03,2.63.29c.84.31,1.77.82,2.79,1.53h0Zm9.38-15.93c1.6,1.4,2.27,2.64,2.03,3.71s-1.23,1.81-2.94,2.22c-.47.13-1.13.26-2.01.37-.87.12-1.81.23-2.82.32-1.01.09-2.03.15-3.05.16-1.02,0-1.92-.02-2.7-.1-2.18-.22-3.34-.62-3.47-1.2-.13-.57.75-1.58,2.63-3,1.6-1.23,3-2.17,4.2-2.82,1.2-.64,2.27-1.06,3.22-1.23.95-.17,1.81-.11,2.58.19.77.3,1.54.76,2.33,1.38h0Zm18.39-18.67c1.79,1.23,2.5,2.53,2.13,3.9-.37,1.37-1.99,2.31-4.84,2.83-.69.12-1.67.29-2.93.47s-2.65.38-4.18.57c-1.53.19-3.14.39-4.81.59-1.68.2-3.24.36-4.7.5-2.81.26-4.31.12-4.49-.38s.76-1.54,2.83-3.14c2.73-2.11,5.15-3.71,7.26-4.79s3.98-1.79,5.63-2.11c1.65-.33,3.15-.33,4.49-.02,1.33.31,2.53.84,3.61,1.58h0Z"/><path class="cls-4" d="m233.79,256.35c-4.84-4.64-8.96-8.59-12.39-11.84-3.42-3.24-6.34-5.97-8.76-8.16s-4.41-3.93-5.97-5.22-2.89-2.26-3.98-2.92c-1.09-.66-2.03-1.11-2.83-1.36-.79-.25-1.64-.45-2.51-.61-2.2-.31-3.23-1.03-3.07-2.18.16-1.14,1.99-2.61,5.51-4.39,1.82-.92,3.34-1.57,4.54-1.97,1.2-.4,2.2-.58,2.99-.55.79.03,1.41.28,1.86.75.45.47.84,1.13,1.16,1.96.23.65.52,1.3.86,1.92.34.63.85,1.4,1.53,2.31s1.61,2.02,2.8,3.34c1.19,1.32,2.77,3.01,4.75,5.08,1.97,2.07,4.42,4.59,7.33,7.56,2.91,2.97,6.43,6.53,10.56,10.66,2.18-2.81,4.43-5.71,6.74-8.7s4.47-5.75,6.49-8.3c-1.31-1.78-2.66-3.46-4.05-5.05-1.39-1.6-2.74-3-4.04-4.2-1.3-1.2-2.49-2.18-3.59-2.93s-2.01-1.18-2.76-1.3c-2.6-.43-3.81-1.27-3.64-2.53.17-1.26,2.07-2.47,5.69-3.64,1.88-.61,3.37-1.02,4.49-1.24s1.99-.26,2.63-.12,1.09.5,1.34,1.09c.26.59.48,1.37.68,2.33.24.92,1.13,2.43,2.69,4.52,1.56,2.1,4.02,5.02,7.39,8.78,1.3,1.42,2.39,2.69,3.27,3.79s1.62,2.17,2.24,3.18c.61,1.02,1.14,2.04,1.58,3.07s.88,2.19,1.36,3.5c.98,2.75,1.09,4.39.36,4.94-.74.54-2.62-.03-5.63-1.73-1.65-.88-4.16-3.87-7.56-8.94-3.03,4.06-5.89,7.95-8.56,11.67-2.67,3.72-5.09,7.25-7.26,10.59-1.66,2.54-2.99,4.64-3.99,6.3-1,1.67-1.8,3.11-2.41,4.33-.61,1.22-1.07,2.31-1.38,3.25-.31.95-.59,1.96-.83,3.01-.28,1.37-.54,2.43-.79,3.17-.25.75-.59,1.29-1.02,1.6-.43.32-1.02.48-1.77.5-.75.02-1.75-.03-3.03-.14-2.29-.22-3.68-.58-4.18-1.1-.5-.51-.43-1.46.21-2.83.21-.49.31-.97.3-1.46,0-.48-.23-1.04-.66-1.67-.43-.63-1.1-1.36-2.02-2.2-.92-.84-2.16-1.88-3.72-3.12-1.12-.9-2.49-1.71-4.13-2.42-1.64-.71-3.28-1.12-4.9-1.22-2.24-.09-3.41-.57-3.52-1.44-.11-.88,1.23-2.17,4-3.9,1.52-.95,2.75-1.67,3.68-2.15.93-.48,1.75-.75,2.45-.81.7-.05,1.31.12,1.82.52.51.4,1.06.98,1.65,1.72.45.61.94,1.2,1.45,1.79.52.58,1.13,1.27,1.85,2.03.72.78,1.61,1.69,2.65,2.75,1.06,1.06,2.41,2.37,4.07,3.97,1.5-2.1,3.1-4.33,4.84-6.72,1.73-2.38,3.45-4.69,5.16-6.92v.02Z"/><path class="cls-4" d="m285.75,181.6c-1.26,1.33-2.42,2.62-3.52,3.86-1.09,1.24-2.09,2.4-2.99,3.46-.92,1.16-1.73,2.1-2.43,2.81-.7.72-1.35,1.3-1.95,1.75-.6.45-1.22.78-1.87.99s-1.4.37-2.27.47c-2.17.31-3.37.22-3.59-.28s.54-1.55,2.28-3.17c1.84-1.68,4-3.77,6.48-6.26,2.48-2.48,4.96-5.04,7.41-7.65-2.1-3.31-3.93-6.11-5.52-8.37-1.58-2.27-3-4.1-4.24-5.49-1.24-1.4-2.34-2.44-3.28-3.13-.95-.69-1.86-1.16-2.76-1.43-1.61-.5-2.8-.96-3.55-1.4-.76-.44-1.04-.92-.85-1.45s.89-1.13,2.13-1.82c1.23-.69,3.03-1.46,5.42-2.32,1.64-.61,2.93-1.03,3.87-1.27.94-.24,1.69-.28,2.24-.11.55.17.96.58,1.22,1.24.26.66.53,1.58.8,2.78.16.74.99,2.51,2.49,5.35s3.8,6.88,6.91,12.16c1.94-2.07,3.62-3.96,5.07-5.66,1.44-1.7,2.47-2.97,3.07-3.82,2.13-3.15,4.04-5.33,5.69-6.53,1.66-1.2,3.43-1.89,5.32-2.06,3.15-.35,4.91,0,5.27,1.06.36,1.05-1.04,2.83-4.19,5.36-2.86,2.3-5.82,4.81-8.89,7.54-3.07,2.73-6.01,5.54-8.82,8.42.35.68.71,1.31,1.09,1.92.38.61.72,1.23,1.03,1.85,4.32,1.11,8.2,2,11.63,2.69s6.56,1.22,9.39,1.58c2.83.36,5.48.53,7.95.5s4.89-.21,7.26-.56c2.37-.35,4.83-.86,7.34-1.54,2.51-.68,5.26-1.52,8.24-2.51,5.36-1.76,6.19-.85,2.53,2.76-1.55,1.55-2.93,2.87-4.13,3.97-1.2,1.09-2.25,2.04-3.17,2.84s-1.77,1.5-2.56,2.1-1.58,1.15-2.37,1.66c-1.23.85-2.27,1.49-3.14,1.95-.86.45-1.69.75-2.48.88-.79.13-1.65.09-2.58-.1-.92-.2-2.09-.51-3.49-.93-4.42-1.34-8.89-2.86-13.42-4.55-4.52-1.69-9.41-3.55-14.67-5.59,3.36,8.11,4.4,15.55,3.12,22.34-1.28,6.78-4.78,13.4-10.49,19.85-1.74,1.92-2.85,2.7-3.32,2.32-.48-.38-.06-1.72,1.24-4.01,2.05-3.48,3.64-6.99,4.77-10.56,1.13-3.56,1.74-7.18,1.82-10.85.08-3.67-.41-7.41-1.49-11.22-1.07-3.81-2.76-7.72-5.08-11.73v-.04Z"/><path class="cls-4" d="m350.77,112.9c.73,2.07.68,3.53-.14,4.38s-2.08.91-3.79.19c-1.01-.46-2.17-1.16-3.47-2.13s-2.95-2.33-4.92-4.11c-1.3-1.14-1.84-1.98-1.62-2.51.21-.53,1.21-.84,2.98-.92,3.05-.19,5.5.22,7.35,1.21,1.85,1,3.05,2.3,3.61,3.9Zm17.41-2.66c.2-4.73-.03-8.77-.7-12.13-.67-3.36-1.51-5.48-2.52-6.36-1.61-1.33-2.07-2.44-1.4-3.31.67-.87,2.6-1.2,5.8-.97,1.75.14,3.13.29,4.13.47s1.72.42,2.16.71.61.7.52,1.2c-.09.5-.29,1.12-.61,1.84-.4.84-.75,1.67-1.06,2.5-.3.82-.58,1.81-.82,2.95-.25,1.14-.49,2.53-.72,4.16-.24,1.63-.53,3.73-.88,6.29,1.48-1.05,2.76-1.96,3.83-2.73s1.85-1.35,2.34-1.75c1.61-1.33,2.97-2.39,4.07-3.17,1.09-.78,2.21-1.3,3.35-1.54,1.13-.24,2.42-.26,3.85-.06,1.44.2,3.28.58,5.54,1.16,2.82.71,4.38,1.59,4.69,2.65s-.51,2.14-2.47,3.23c-.99.52-2.32,1.52-3.99,3.03-1.67,1.5-3.24,3.12-4.71,4.87-1.66,1.92-2.72,2.8-3.18,2.65s-.57-1.54-.34-4.18c.11-1.67.16-2.99.14-3.96-.02-.97-.12-1.65-.33-2.03-.2-.39-.5-.56-.91-.53-.4.04-.92.18-1.55.44-1.02.47-2.55,1.28-4.6,2.45-2.05,1.17-4.25,2.51-6.62,4.03-2.36,1.51-4.7,3.03-7.02,4.56-2.32,1.52-4.27,2.87-5.83,4.04-1.86,1.39-3.47,2.55-4.82,3.45-1.35.91-2.54,1.68-3.56,2.33s-1.95,1.17-2.75,1.58c-.8.42-1.58.75-2.36,1.02.57,2.16.94,4.36,1.13,6.6.19,2.25.13,4.15-.18,5.71-.43,2.4-1.07,3.8-1.91,4.2s-2.03,0-3.59-1.23c-1.16-.87-1.92-1.77-2.3-2.69-.37-.92-.47-1.82-.29-2.69.44-1.84.7-3.76.78-5.76s-.11-3.83-.55-5.49c-.44-1.66-.28-2.65.49-2.99.78-.33,2.32.26,4.66,1.78,1.89-1.2,3.92-2.48,6.08-3.85,2.16-1.37,4.34-2.76,6.53-4.19,2.2-1.42,4.37-2.83,6.51-4.23,2.14-1.4,4.14-2.75,5.98-4.06h.02Zm3.75,22.52c.44-1.7.75-3.05.93-4.06.18-1,.35-2.21.52-3.63.09-1.03-.09-1.61-.55-1.76s-1.14.12-2.05.81c-2.31,1.76-4.95,4.33-7.96,7.71-.79.9-1.71,1.56-2.76,1.96-1.05.4-2.49.53-4.32.36-2.2-.19-3.35-.54-3.43-1.05-.09-.51.88-1.3,2.92-2.36,1.65-.86,3.27-1.82,4.84-2.89,1.58-1.06,3.05-2.11,4.41-3.14,1.36-1.02,2.54-1.99,3.53-2.89,1-.91,1.66-1.65,1.99-2.24.78-1.32,1.65-2.15,2.58-2.5.94-.35,2.47-.23,4.59.34,1.87.5,3.31.95,4.33,1.37s1.68.83,1.96,1.24c.29.41.27.89-.04,1.44-.31.55-.88,1.17-1.7,1.88-.57.51-1.44,1.56-2.62,3.14-1.16,1.59-2.56,3.86-4.18,6.8.7.26,1.32.59,1.87.97.55.38,1.12.8,1.71,1.27,2.2-1.42,4.04-2.65,5.54-3.67,1.5-1.02,2.81-1.93,3.93-2.73,1.13-.79,2.09-1.51,2.88-2.13s1.56-1.23,2.31-1.83c1.31-1.1,2.48-1.99,3.5-2.66,1.02-.67,1.97-1.19,2.87-1.54.89-.36,1.78-.56,2.64-.58.86-.03,1.82.03,2.88.18,2.89.45,4.25,1.3,4.06,2.55-.19,1.25-2.55,2.71-7.07,4.36-1.72.61-4.35,1.86-7.92,3.76-3.56,1.89-7.85,4.35-12.85,7.38.57.82,1.19,1.75,1.85,2.76.67,1.02,1.33,2.06,1.99,3.11.66,1.06,1.3,2.09,1.92,3.09.63,1,1.16,1.92,1.58,2.75.78,1.49,1.42,2.86,1.94,4.14.52,1.27.91,2.52,1.16,3.75.26,1.23.4,2.51.42,3.83s-.08,2.77-.3,4.36c-.35,2.42-1.02,3.88-2.03,4.37s-2.19.11-3.54-1.15c-1.86-1.69-4.85-2.86-8.97-3.52-2.2-.33-3.32-.83-3.36-1.51-.04-.68,1.13-1.29,3.51-1.83,1.24-.29,2.24-.59,3-.88.76-.29,1.33-.61,1.72-.95.38-.34.61-.78.68-1.3.08-.53.09-1.16.05-1.92-.26-1.97-.99-4.33-2.22-7.09-1.23-2.76-2.89-5.62-5-8.58-2.66,1.74-5.58,3.76-8.75,6.08-3.17,2.32-6.21,4.72-9.1,7.21-1.37,1.13-2.65,1.9-3.83,2.31s-2.58.54-4.2.4c-4.73-.47-5.08-1.62-1.06-3.44.85-.37,3.42-1.92,7.71-4.65,4.28-2.72,9.9-6.38,16.81-10.97-.9-.93-1.94-1.58-3.11-1.95-.98-.26-1.65-.6-1.99-1.01-.36-.41-.55-.78-.58-1.12-.06-.39.31-.81,1.13-1.27.81-.46,1.89-.75,3.21-.88h0Zm-10.54-27.48c.12.92.05,1.71-.23,2.37s-.66,1.19-1.14,1.54c-.48.36-1.05.51-1.7.47-.65-.05-1.25-.31-1.79-.81-.5-.43-.98-.84-1.41-1.2s-.9-.79-1.4-1.27c-.5-.48-1.07-1.05-1.74-1.72-.66-.67-1.49-1.48-2.48-2.44-2.85-2.79-2.25-4.04,1.81-3.78,3.69.25,6.24.97,7.64,2.17,1.4,1.2,2.2,2.76,2.43,4.66h0Z"/><path class="cls-4" d="m449.63,93.34c-1.61.85-3.14,1.7-4.56,2.52-1.43.83-2.75,1.6-3.94,2.32-1.24.8-2.31,1.43-3.21,1.88-.89.46-1.7.8-2.41,1.03s-1.4.35-2.1.34c-.69,0-1.45-.09-2.3-.28-2.16-.4-3.26-.88-3.31-1.42-.05-.54,1.02-1.3,3.18-2.27,2.28-1.01,5-2.29,8.15-3.84,3.15-1.55,6.31-3.17,9.48-4.87-.92-3.81-1.77-7.05-2.54-9.7s-1.52-4.84-2.24-6.57c-.73-1.72-1.43-3.06-2.1-4.02-.68-.95-1.39-1.7-2.15-2.24-1.37-.99-2.34-1.82-2.92-2.48-.57-.66-.69-1.21-.34-1.65s1.21-.79,2.6-1.05c1.39-.26,3.35-.41,5.88-.45,1.75-.05,3.1-.04,4.08.04.97.08,1.69.28,2.16.61.47.33.72.86.76,1.57.04.71,0,1.67-.13,2.89-.09.75.13,2.7.64,5.87.51,3.17,1.39,7.75,2.63,13.74,2.5-1.34,4.7-2.58,6.62-3.73,1.91-1.15,3.29-2.03,4.14-2.62,3.03-2.3,5.53-3.76,7.49-4.36,1.96-.61,3.86-.69,5.7-.25,3.1.68,4.65,1.58,4.66,2.69,0,1.11-1.89,2.35-5.69,3.73-3.45,1.26-7.06,2.69-10.85,4.28-3.79,1.6-7.47,3.31-11.06,5.14.12.75.25,1.47.41,2.17s.29,1.39.39,2.08c3.73,2.44,7.12,4.53,10.14,6.29,3.03,1.75,5.82,3.26,8.38,4.51,2.57,1.25,5.02,2.27,7.36,3.03,2.34.77,4.7,1.37,7.05,1.81,2.36.43,4.84.74,7.44.89,2.6.16,5.47.25,8.61.27,5.63.05,6.14,1.2,1.51,3.42-1.97.97-3.69,1.78-5.18,2.43-1.49.65-2.79,1.2-3.91,1.67-1.12.47-2.16.85-3.1,1.16-.95.31-1.87.57-2.77.81-1.44.4-2.64.68-3.6.83-.96.16-1.84.16-2.64.03-.79-.13-1.6-.44-2.41-.92-.81-.49-1.82-1.16-3.01-2-3.76-2.69-7.51-5.56-11.25-8.62s-7.78-6.39-12.09-10.01c.57,8.76-.83,16.14-4.22,22.15-3.39,6.01-8.83,11.15-16.31,15.43-2.27,1.27-3.56,1.64-3.9,1.13s.49-1.65,2.46-3.4c3.06-2.63,5.7-5.46,7.91-8.47s3.95-6.24,5.21-9.69c1.26-3.45,1.99-7.15,2.2-11.11.21-3.95-.13-8.2-1.03-12.74h.02Z"/><path class="cls-4" d="m550.68,52.32c1.72-4.41,2.79-8.31,3.24-11.71s.34-5.67-.34-6.83c-1.09-1.78-1.18-2.97-.26-3.59.91-.61,2.84-.29,5.8.95,1.61.7,2.86,1.29,3.76,1.78.89.49,1.5.95,1.81,1.37.32.42.35.85.11,1.3-.25.45-.64.96-1.18,1.54-.65.67-1.26,1.34-1.81,2.02-.55.68-1.13,1.52-1.73,2.53-.6,1-1.27,2.24-2.03,3.7-.75,1.47-1.7,3.35-2.86,5.67,1.74-.52,3.24-.97,4.5-1.35,1.26-.38,2.19-.68,2.79-.9,1.96-.74,3.59-1.3,4.87-1.69,1.29-.39,2.51-.51,3.66-.37,1.15.14,2.37.54,3.66,1.18,1.29.65,2.92,1.61,4.87,2.88,2.44,1.58,3.63,2.92,3.59,4.02-.05,1.11-1.17,1.86-3.38,2.26-1.1.17-2.69.7-4.75,1.58-2.06.88-4.07,1.91-6.03,3.09-2.19,1.28-3.48,1.78-3.87,1.49s-.05-1.64,1.02-4.07c.64-1.54,1.11-2.78,1.41-3.7.29-.92.41-1.6.35-2.03-.06-.43-.29-.69-.68-.79-.39-.09-.93-.12-1.61-.09-1.12.11-2.83.39-5.15.84-2.32.45-4.84,1.01-7.57,1.68-2.72.67-5.43,1.35-8.12,2.04-2.69.69-4.96,1.34-6.81,1.94-2.21.71-4.11,1.29-5.67,1.72-1.57.43-2.94.78-4.13,1.06-1.18.27-2.22.48-3.11.61-.89.14-1.75.2-2.56.2-.16,2.23-.51,4.43-1.06,6.61-.54,2.19-1.21,3.97-2.01,5.35-1.18,2.13-2.24,3.25-3.16,3.36s-1.92-.66-3-2.32c-.81-1.2-1.24-2.29-1.3-3.28-.05-.99.14-1.87.59-2.63,1.01-1.6,1.88-3.33,2.59-5.2.72-1.87,1.13-3.66,1.25-5.37.12-1.72.59-2.6,1.43-2.67.84-.06,2.12.99,3.83,3.18,2.18-.52,4.51-1.08,7-1.68,2.48-.6,5-1.22,7.54-1.86,2.54-.64,5.04-1.27,7.53-1.91,2.48-.63,4.8-1.27,6.96-1.92l.02.03Zm-3.71,22.52c.97-1.47,1.7-2.65,2.19-3.54.49-.89,1.05-1.98,1.67-3.27.42-.95.43-1.56.05-1.85-.39-.29-1.13-.26-2.2.1-2.75.92-6.08,2.51-10.02,4.73-1.04.6-2.12.92-3.24.97s-2.53-.3-4.21-1.05c-2.02-.88-2.99-1.58-2.91-2.1.08-.51,1.25-.95,3.52-1.3,1.84-.28,3.68-.68,5.52-1.17,1.84-.5,3.56-1.02,5.18-1.54,1.61-.53,3.04-1.06,4.28-1.6,1.23-.54,2.1-1.03,2.6-1.48,1.16-.99,2.25-1.51,3.25-1.54,1-.02,2.41.57,4.23,1.8,1.61,1.07,2.83,1.97,3.66,2.69.83.72,1.32,1.32,1.45,1.8s-.03.93-.5,1.35c-.47.42-1.21.83-2.21,1.23-.71.29-1.87,1.01-3.49,2.13-1.61,1.13-3.66,2.83-6.15,5.08.57.47,1.06.99,1.46,1.52s.8,1.12,1.21,1.75c2.54-.64,4.68-1.2,6.43-1.69,1.75-.49,3.28-.92,4.6-1.32,1.32-.39,2.46-.75,3.41-1.09.95-.33,1.88-.67,2.77-.99,1.6-.62,2.99-1.09,4.17-1.39s2.25-.49,3.21-.54c.96-.05,1.86.05,2.69.29s1.71.62,2.66,1.1c2.59,1.36,3.6,2.61,3.02,3.73s-3.28,1.75-8.1,1.85c-1.82.03-4.72.36-8.7,1-3.99.64-8.83,1.59-14.54,2.84.27.96.56,2.03.87,3.21.3,1.18.6,2.37.88,3.59.28,1.21.56,2.4.82,3.55.27,1.15.47,2.19.62,3.11.26,1.66.42,3.17.5,4.54.09,1.37.05,2.68-.11,3.93s-.43,2.5-.84,3.76-.97,2.6-1.69,4.03c-1.11,2.18-2.22,3.34-3.33,3.48-1.11.14-2.1-.61-2.98-2.23-1.22-2.2-3.67-4.28-7.36-6.22-1.98-1.02-2.87-1.85-2.69-2.51.18-.66,1.48-.85,3.91-.6,1.27.12,2.32.16,3.13.13.81-.03,1.45-.15,1.92-.34.47-.2.83-.54,1.07-1.01s.47-1.08.67-1.8c.4-1.95.46-4.42.19-7.43-.27-3-.92-6.25-1.96-9.73-3.08.78-6.5,1.76-10.24,2.93-3.75,1.17-7.4,2.47-10.94,3.89-1.66.63-3.12.95-4.38.95-1.26,0-2.62-.32-4.11-.97-4.32-1.98-4.28-3.17.11-3.59.93-.08,3.87-.71,8.8-1.91,4.94-1.2,11.42-2.85,19.45-4.96-.56-1.17-1.33-2.12-2.32-2.85-.84-.56-1.36-1.09-1.57-1.6-.2-.5-.26-.92-.19-1.24.06-.39.56-.67,1.47-.84.92-.17,2.03-.11,3.33.19v-.02Zm-13.63-25.61c.02,2.2-.49,3.56-1.54,4.1s-2.27.19-3.65-1.04c-.81-.75-1.68-1.8-2.6-3.14s-2.04-3.16-3.34-5.47c-.86-1.5-1.1-2.47-.73-2.9s1.41-.4,3.12.09c2.95.81,5.14,1.98,6.57,3.52,1.43,1.54,2.15,3.16,2.16,4.85h0Zm12.51-3.8c-.18.91-.5,1.63-.99,2.17-.48.54-1.01.91-1.58,1.09-.57.18-1.16.15-1.76-.11-.61-.25-1.08-.7-1.43-1.33-.34-.57-.66-1.11-.95-1.6s-.6-1.04-.92-1.65-.68-1.34-1.09-2.19-.93-1.89-1.56-3.1c-1.8-3.55-.82-4.56,2.93-3,3.42,1.42,5.6,2.93,6.53,4.51.93,1.58,1.2,3.32.8,5.2v.02Z"/><path class="cls-4" d="m626.03,55.84c1.49.02,3.37-.1,5.64-.37,2.27-.27,5.09-.78,8.45-1.54.13-4.16.19-7.57.16-10.24-.02-2.67-.14-4.83-.36-6.48-.23-1.65-.51-2.93-.87-3.83s-.81-1.65-1.36-2.21c-.85-.88-1.39-1.7-1.59-2.44-.21-.75-.09-1.3.36-1.67s1.22-.5,2.34-.43c1.12.08,2.57.47,4.36,1.19,2.03.78,3.59,1.46,4.67,2.03,1.08.57,1.8,1.13,2.17,1.67.36.54.45,1.14.25,1.82-.19.68-.58,1.51-1.16,2.5-.19.37-.4.92-.63,1.67-.23.75-.43,1.75-.61,3.02-.18,1.27-.36,2.86-.54,4.79-.19,1.92-.33,4.25-.44,6.98,1.37-.41,2.67-.78,3.88-1.1,1.22-.32,2.26-.63,3.14-.92,3.37-1.13,6.41-.89,9.12.71.8.51,1.37,1,1.7,1.47s.31.92-.07,1.35c-.38.43-1.15.85-2.31,1.27-1.16.42-2.79.79-4.91,1.13-1.68.29-3.38.55-5.09.8-1.72.25-3.59.52-5.65.79l-.58,12.84c1.93-.47,3.55-.81,4.86-1.04,1.31-.23,2.48-.38,3.5-.46s1.94-.05,2.75.09,1.64.34,2.51.6c1.61.52,2.44,1.28,2.52,2.27s-.76,1.73-2.51,2.2c-.88.23-1.72.43-2.52.57s-1.73.29-2.76.47-2.23.33-3.59.5c-1.37.16-3.05.36-5.04.57l-.61,14.89c2.62-.26,4.88-.51,6.81-.73,1.92-.22,3.66-.42,5.18-.61,1.52-.19,2.91-.39,4.15-.58,1.24-.19,2.49-.41,3.73-.64,1.3-.23,2.44-.38,3.41-.46s1.85-.03,2.65.14,1.61.46,2.41.88c.8.42,1.72.98,2.77,1.68,2.64,1.91,3.7,3.43,3.18,4.57-.52,1.14-2.88,1.52-7.09,1.14-3.72-.31-6.79-.54-9.21-.71-2.42-.16-4.61-.26-6.57-.29-1.96-.03-3.82-.03-5.59,0-1.77.03-3.87.09-6.29.18-2.05.09-4.31.24-6.76.45-2.46.21-4.94.47-7.47.76-2.52.3-5.01.64-7.47,1.04-2.46.4-4.75.82-6.87,1.29-1.31.29-2.4.47-3.27.55s-1.66.06-2.37-.04c-.71-.1-1.4-.35-2.09-.73-.68-.38-1.47-.92-2.4-1.62-1.78-1.33-2.59-2.2-2.43-2.6.16-.4,1.54-.64,4.16-.72,1.24-.04,2.9-.12,4.99-.25,2.08-.12,4.48-.29,7.18-.49,2.7-.2,5.64-.43,8.82-.7,3.17-.26,6.43-.55,9.79-.87l.61-14.71c-2.12.22-3.9.37-5.36.47-1.46.1-2.7.13-3.73.08-1.02-.05-1.89-.16-2.6-.32-.71-.16-1.37-.38-1.99-.64-1.66-.78-2.41-1.44-2.25-1.99.16-.56,1.43-.88,3.79-.96,1.61-.1,3.37-.26,5.27-.47,1.89-.22,4.25-.61,7.05-1.19l.5-13.5c-3.98.62-7.12.91-9.42.87-2.3-.04-4.25-.32-5.85-.84-.89,1.6-1.79,3.01-2.68,4.24s-1.81,2.36-2.76,3.4-1.96,2-3.03,2.89c-1.07.88-2.27,1.75-3.58,2.6-1.95,1.21-3.14,1.57-3.6,1.06-.46-.5.04-1.65,1.5-3.42,1.9-2.39,3.62-4.84,5.15-7.32,1.53-2.49,2.91-5.22,4.14-8.18,1.03-2.47,1.72-4.42,2.05-5.88.33-1.45.35-2.62.05-3.49-.35-1.31-.52-2.32-.51-3.03.02-.71.28-1.16.81-1.33.53-.18,1.35-.07,2.46.32s2.56,1.06,4.35,2.03c2.09,1.21,3.22,2.23,3.4,3.03.17.81-.4,1.82-1.72,3.04-.19.19-.4.41-.61.69-.23.28-.51.66-.85,1.15-.35.49-.76,1.16-1.24,2.03s-1.1,1.97-1.87,3.32h-.02Z"/><path class="cls-4" d="m717.07,47.58c-.72,3.78-1.46,7.59-2.22,11.43-.76,3.83-1.54,7.62-2.35,11.36-.81,3.73-1.65,7.37-2.51,10.9-.87,3.54-1.7,6.88-2.5,10.01-.47,1.99-1.02,3.89-1.65,5.67-.63,1.79-1.16,3.04-1.61,3.79-1.48,2.7-2.81,4-3.98,3.89-1.18-.11-2.17-1.5-2.96-4.15-.7-2.14-.92-3.83-.68-5.08s.93-2.56,2.06-3.94c.73-.95,1.54-2.63,2.44-5.06s1.78-5.24,2.65-8.43,1.7-6.53,2.5-10.01c.79-3.48,1.46-6.78,1.99-9.86s.92-5.77,1.16-8.03c.23-2.26.26-3.72.05-4.39-.99-3.01-1.06-4.75-.23-5.24.84-.48,3.11.39,6.83,2.61,1.85.26,4.07.52,6.67.78s5.35.5,8.24.72c2.89.22,5.79.4,8.7.52s5.63.23,8.17.29c2.54.06,4.77.05,6.67-.02s3.28-.23,4.14-.46c.86-.23,1.61-.36,2.24-.41.64-.05,1.26.03,1.85.23.6.19,1.23.57,1.89,1.13.66.56,1.47,1.3,2.45,2.22,1.13,1.08,1.99,1.97,2.56,2.67s.91,1.33,1,1.88-.03,1.08-.37,1.59c-.34.5-.88,1.11-1.64,1.79-.38.37-.76.91-1.13,1.6-.37.69-.74,1.7-1.09,3.03-.36,1.33-.75,3.07-1.2,5.23-.44,2.16-.91,4.94-1.4,8.31-.49,3.38-1.06,7.46-1.7,12.23-.64,4.77-1.37,10.43-2.19,16.97-.29,2.41-.94,4.69-1.95,6.85-1,2.16-2.25,3.9-3.74,5.21-1.8,1.64-3.18,2.36-4.16,2.16-.97-.2-1.74-1.27-2.28-3.18-.39-1.39-.93-2.73-1.61-4.01-.69-1.29-1.73-2.84-3.11-4.66-1.47-2.02-2.03-3.31-1.65-3.88s1.59-.36,3.62.63c1.28.6,2.34,1.04,3.17,1.31s1.5.34,1.99.2c.5-.13.89-.5,1.19-1.12.29-.61.61-1.48.93-2.63.51-1.86,1.09-4.36,1.73-7.5.64-3.14,1.27-6.6,1.9-10.4.63-3.8,1.23-7.81,1.81-12.02.57-4.21,1.06-8.34,1.44-12.37.16-1.68.19-3,.08-4-.11-.99-.45-1.78-1.01-2.35-.57-.57-1.4-.97-2.53-1.2s-2.59-.4-4.4-.53c-5.1-.38-10.53-.76-16.3-1.13-5.77-.37-11.77-.75-18-1.14h0Zm11.44,24.49c1.39,2.51,2.3,4.56,2.72,6.15.42,1.58.5,2.93.25,4.01-.36,1.7-.78,2.98-1.28,3.84s-1.01,1.35-1.54,1.48c-.53.13-1.04-.09-1.54-.64-.5-.56-.87-1.43-1.11-2.6-.26-1.06-.51-2.03-.77-2.93-.26-.89-.5-1.74-.74-2.54-2.81,3.86-6.94,7.27-12.36,10.24-1.95,1.05-3.07,1.39-3.35,1.02-.29-.36.37-1.32,1.96-2.87,1.37-1.33,2.55-2.56,3.57-3.68,1.01-1.12,1.95-2.23,2.8-3.35.85-1.11,1.69-2.29,2.51-3.53.81-1.24,1.71-2.66,2.68-4.26-.56-1.48-1.04-2.73-1.43-3.75s-.73-1.96-1.02-2.83c-.29-.87-.59-1.69-.89-2.47-.31-.78-.63-1.64-.97-2.58-.85-2.35-.99-3.66-.41-3.9.57-.25,1.72.88,3.43,3.38,1.65,2.43,3.13,4.64,4.42,6.63,2.1-4.11,3.05-7.03,2.85-8.77-.24-2.25-.02-3.48.64-3.72.67-.23,2.23.59,4.67,2.47,1.44,1.13,2.22,2.09,2.34,2.86s-.36,1.73-1.44,2.87c-.54.6-1.31,1.65-2.3,3.14s-2.22,3.6-3.69,6.3h0Zm14.88-1.29c1.49-2.76,2.53-5.04,3.13-6.83s.81-3.1.64-3.95c-.33-2.07-.17-3.31.5-3.69s2.18.23,4.55,1.83c1.68,1.18,2.65,2.24,2.89,3.2s.06,1.73-.54,2.31c-.54.6-1.42,1.82-2.62,3.66-1.2,1.84-2.95,4.64-5.24,8.4,1.3,1.92,2.35,3.59,3.15,4.99.8,1.4,1.37,2.6,1.74,3.61.36,1.01.54,1.89.54,2.65s-.1,1.47-.27,2.13c-.97,3.04-1.98,4.6-3.03,4.67-1.06.07-2.03-1.33-2.91-4.19-.72-2.39-1.66-5.11-2.84-8.15-1.79,2.27-3.87,4.42-6.27,6.43s-4.79,3.53-7.17,4.56c-1.77.76-2.8.96-3.08.6-.29-.36.32-1.2,1.81-2.52,1.42-1.27,2.66-2.45,3.74-3.55,1.07-1.1,2.09-2.22,3.04-3.35s1.87-2.32,2.75-3.59c.88-1.27,1.82-2.76,2.81-4.48-.72-1.64-1.46-3.29-2.21-4.97-.75-1.68-1.52-3.31-2.31-4.89-.78-1.65-.79-2.61-.02-2.89.77-.27,1.69.31,2.76,1.75.87,1.16,1.67,2.26,2.41,3.3.73,1.04,1.43,2.03,2.09,2.96h0Z"/><path class="cls-4" d="m807.51,109.11c.02.33-.49.7-1.52,1.09-1.02.4-2.03.66-2.99.78-3.62.38-6.51.7-8.68.96-2.17.26-3.87.49-5.12.68-1.25.19-2.17.36-2.75.52s-1.14.34-1.67.55c-.67.23-1.27.36-1.78.42-.51.05-.99-.05-1.42-.3-.44-.25-.92-.7-1.45-1.34s-1.13-1.51-1.8-2.6c-2.03-3.21-2.82-5.16-2.34-5.85s2.03-.47,4.66.64c.68.3,1.54.59,2.56.85,1.02.26,2.41.5,4.14.71,1.73.21,3.88.42,6.44.62,2.56.2,5.68.4,9.38.57,1.3.05,2.33.26,3.1.59.77.33,1.18.71,1.23,1.13h0Zm-3.69-25.57c-2.72-.49-4.93-.77-6.61-.83-1.69-.06-3.32.09-4.9.46-1.2.24-2,.14-2.41-.3-.4-.43-.77-1.7-1.09-3.79-.26-1.54-.22-2.49.12-2.87s1.11-.55,2.35-.51c.64.03,1.3-.05,1.96-.25.66-.19,1.44-.58,2.33-1.16s1.99-1.44,3.28-2.6c1.3-1.16,2.89-2.69,4.81-4.59,1.51-1.51,2.75-3.02,3.7-4.52s1.4-2.57,1.36-3.17c-.14-2.81.33-4.32,1.39-4.55,1.06-.22,2.85,1.06,5.36,3.85.81.88,1.41,1.61,1.79,2.2.38.6.59,1.09.61,1.5s-.15.75-.52,1.06c-.36.3-.88.63-1.53.99-.4.19-.74.36-1.02.53s-.65.4-1.09.71-.99.71-1.65,1.2-1.58,1.16-2.72,2.01c-1.53,1.18-3.35,2.58-5.46,4.21-2.12,1.63-4.18,3.24-6.19,4.84.8.35,2,.8,3.62,1.37,1.61.57,3.42,1.16,5.44,1.8,2.06-1.78,3.65-3.38,4.74-4.8,1.09-1.43,1.73-2.6,1.92-3.52.34-1.72.94-2.55,1.8-2.48.86.07,2.06,1.23,3.57,3.47,1.34,1.99,1.96,3.35,1.82,4.09s-.74,1.36-1.82,1.83c-1.07.42-2.17.94-3.31,1.56-1.14.62-2.51,1.44-4.11,2.46-1.61,1.02-3.55,2.3-5.83,3.83-2.28,1.54-5.07,3.45-8.36,5.71,2.67.27,4.88.56,6.66.85,1.77.29,3.44.64,5.01,1.06,2.37.57,3.52,1.23,3.45,1.99-.07.77-1.34,1.11-3.82,1.03-2.67-.08-4.94-.12-6.81-.12s-3.52.04-4.92.11c-1.4.07-2.62.2-3.64.4-1.02.2-1.98.44-2.86.72-.68.23-1.23.35-1.65.36-.43.02-.8-.12-1.1-.39-.3-.27-.53-.75-.68-1.42-.16-.68-.33-1.61-.5-2.79-.25-1.92-.13-3.15.35-3.68.48-.52,1.34-.7,2.6-.52.88.11,1.75.13,2.59.07s1.8-.36,2.87-.87c1.07-.51,2.33-1.29,3.77-2.33,1.45-1.04,3.24-2.44,5.36-4.19h0Zm21.13,3.35c-1.16.51-2.31.92-3.43,1.22-1.13.29-2.27.54-3.45.71-2.23.34-3.43.26-3.62-.23-.19-.5.62-1.18,2.44-2.06,3.18-1.58,6.03-3.28,8.55-5.11,2.51-1.82,5-4,7.47-6.57,2.1-2.23,3.57-4,4.42-5.31s1.3-2.29,1.33-2.94c.05-2.02.53-3.07,1.44-3.14s2.54,1.15,4.88,3.68c1.04,1.16,1.83,2.1,2.36,2.85s.81,1.33.86,1.78c.04.44-.15.79-.56,1.04-.42.25-.99.47-1.72.68-.59.19-1.26.5-2,.93s-1.54.92-2.39,1.48c-.85.56-1.69,1.17-2.51,1.83-.82.67-1.54,1.32-2.17,1.96,1.96.42,3.87.68,5.75.78,1.87.09,3.18.02,3.93-.25,1.5-.53,2.69-.62,3.55-.29.87.34,1.92,1.28,3.16,2.83,1.91,2.44,2.83,4.11,2.79,5.02-.05.9-.78,1.47-2.17,1.71-1.13.2-2.34.63-3.66,1.29-1.32.66-2.5,1.37-3.55,2.11-1.29.87-2.69,1.79-4.22,2.76-1.53.98-3.11,1.94-4.76,2.88,3.19,4.6,6.62,8.63,10.28,12.08,3.66,3.45,8.05,6.7,13.17,9.73,1.3.78,1.85,1.52,1.65,2.2-.21.68-1.03.94-2.48.76-3.59-.47-6.43-.88-8.54-1.26-2.1-.37-3.76-.82-4.96-1.34s-2.14-1.17-2.82-1.97c-.68-.79-1.37-1.85-2.1-3.15-.9-1.56-1.67-2.93-2.31-4.11s-1.27-2.3-1.88-3.37c-.61-1.07-1.24-2.18-1.89-3.33s-1.4-2.49-2.24-4.04c-4.79,2.41-9.59,3.98-14.38,4.74-4.8.75-9.25.88-13.35.36-2.79-.32-4.18-.72-4.17-1.21,0-.49,1.29-.92,3.85-1.27,4.64-.68,9.03-1.58,13.18-2.69,4.14-1.12,8.15-2.81,12.03-5.07-1.19-2.06-2.24-3.77-3.14-5.14-.9-1.37-1.77-2.56-2.6-3.57h-.04Zm-8.77,23.97c4.48,1.11,8.27,1.89,11.36,2.34,3.1.46,5.32.63,6.68.51.69-.09,1.32-.1,1.89-.03.57.07,1.13.25,1.68.54.55.29,1.13.74,1.7,1.33.58.6,1.27,1.37,2.06,2.3,1.16,1.39,2.01,2.53,2.55,3.41.54.88.85,1.58.9,2.09.05.51-.12.88-.53,1.09s-.98.43-1.7.64c-3.01.72-5.27,2.17-6.75,4.35,1.05,2.08,1.36,3.55.92,4.42s-1.52,1.06-3.26.58c-1.74-.48-3.65-.99-5.72-1.55s-4.08-1.08-6.01-1.56c-1.21-.29-2.64-.68-4.28-1.15-1.65-.47-3.15-.92-4.52-1.33-.85,2.07-1.65,3.22-2.39,3.45s-1.44-.02-2.1-.78c-.33-.38-.54-1.08-.64-2.1s.02-2.23.38-3.62c.94-3.82,1.51-6.95,1.72-9.41.2-2.46.1-4.52-.31-6.18-.47-1.68-.12-2.59,1.06-2.74s2.94.98,5.32,3.39v.02Zm-1.77,14.09c2.83.73,5.26,1.31,7.28,1.75,2.02.44,4.04.78,6.05,1.03.57.07,1.05.05,1.44-.04.4-.09.78-.35,1.16-.78.38-.43.79-1.09,1.23-1.99.44-.89.97-2.13,1.58-3.69.47-1.15.57-1.97.32-2.45-.26-.49-.91-.85-1.94-1.07-2.96-.77-5.54-1.41-7.76-1.92-2.22-.51-4.51-.99-6.85-1.41-.3,1.8-.68,3.62-1.13,5.48-.45,1.85-.91,3.55-1.38,5.09h-.02Zm19.03-42.58c-1.9,1.3-3.69,2.36-5.35,3.16,1.01.88,1.96,1.92,2.86,3.12.89,1.2,1.99,2.79,3.28,4.74,1.53-.98,2.93-1.95,4.22-2.91,1.29-.96,2.79-2.2,4.5-3.7.75-.66,1.1-1.13,1.03-1.41-.06-.29-.57-.5-1.51-.63-2.31-.35-4.14-.69-5.51-1.04-1.36-.34-2.54-.79-3.53-1.33h0Z"/><path class="cls-4" d="m890.6,116.64c-2.1.98-4.02,1.82-5.78,2.51-1.76.7-3.44,1.27-5.02,1.72-1.58.44-3.17.78-4.75,1.02-1.58.23-3.23.37-4.95.42-4.91-.07-5.05-.92-.4-2.55,2.62-.91,4.99-1.79,7.12-2.64,2.13-.85,4.17-1.77,6.12-2.76,1.96-.99,3.87-2.03,5.74-3.12,1.88-1.1,3.84-2.36,5.89-3.79,3.31-2.3,5.77-4.31,7.39-6.05,1.61-1.73,2.57-3.38,2.85-4.92.29-1.96,1.02-2.89,2.17-2.79,1.15.1,2.64,1.78,4.46,5.04,1.35,2.58,1.9,4.42,1.65,5.52s-1.06,1.81-2.43,2.12c-.42.12-.97.32-1.65.58s-1.36.55-2.05.84c-.69.29-1.37.62-2.02.97s-1.2.66-1.61.92c-1.4.87-2.76,1.68-4.09,2.44-1.33.75-2.64,1.46-3.91,2.1.55,2.35.83,4.08.83,5.18s-.26,2.13-.8,3.12c-.45.81-1.06,1.91-1.85,3.29-.78,1.37-1.63,2.84-2.51,4.41-.89,1.57-1.82,3.17-2.8,4.84s-1.89,3.21-2.72,4.67-1.55,2.71-2.16,3.76c-.61,1.05-1.02,1.76-1.23,2.14-.99,1.8-1.87,3.35-2.65,4.66-.78,1.3-1.51,2.48-2.2,3.52-.68,1.05-1.34,1.97-2,2.78-.65.81-1.34,1.61-2.07,2.42-1.1,1.23-2.1,1.68-3.01,1.33-.91-.36-1.47-1.41-1.72-3.17-.18-1.23-.26-2.34-.26-3.32s.18-1.89.51-2.69c.33-.81.87-1.63,1.61-2.46.74-.83,1.74-1.75,3-2.76.88-.71,1.66-1.43,2.33-2.13.67-.7,1.44-1.72,2.32-3.08.88-1.36,2.01-3.25,3.38-5.69s3.2-5.75,5.49-9.95c1.28-2.34,2.2-4.14,2.74-5.4.54-1.26.88-2.27,1.03-3.05v.02Zm9.29,33.1c1.58.72,3.31,1.42,5.18,2.09,1.86.67,3.66,1.26,5.39,1.79,1.73.53,3.31.93,4.75,1.22,1.44.29,2.51.42,3.24.39.61.05,1.09.1,1.45.16.36.05.71.25,1.06.58s.75.82,1.22,1.46c.46.64,1.07,1.56,1.84,2.76.99,1.68,1.72,3.03,2.19,4.06.46,1.03.68,1.82.66,2.38s-.26.94-.73,1.14-1.1.33-1.91.39c-1.67.08-3.04.29-4.11.62-1.07.33-2.29.98-3.66,1.93.58,2.16.5,3.65-.27,4.47-.77.81-2.12.81-4.06-.05-1.94-.85-4.39-1.92-7.32-3.21-2.94-1.29-6.56-2.86-10.85-4.71-.87.94-1.66,1.55-2.38,1.83-.72.28-1.3.24-1.75-.11s-.7-.99-.76-1.9c-.06-.92.17-2.12.69-3.6.72-2.37,1.31-4.31,1.75-5.84.44-1.53.77-2.8.97-3.82s.32-1.88.34-2.57c.02-.69,0-1.37-.05-2.04-.23-2.03.15-3.09,1.13-3.14.99-.06,2.98,1.19,5.97,3.74v-.02Zm-3.8,13.95c2.44.98,4.64,1.83,6.62,2.55,1.97.72,4.14,1.45,6.5,2.17.68-.19,1.38-.62,2.13-1.27.75-.65,1.82-2.01,3.24-4.07.76-1.14,1.06-2.02.91-2.63-.16-.62-.91-1.19-2.25-1.71-2.44-.98-4.64-1.83-6.62-2.55-1.97-.72-4.13-1.47-6.47-2.26-.61,1.51-1.27,3.1-1.96,4.77s-1.4,3.34-2.1,5.01h0Zm55.2-28.94c1.29,2.69,1.49,4.37.59,5.04s-2.84.05-5.83-1.86c-2.52-1.59-5.25-3.12-8.16-4.57-2.92-1.45-5.79-2.78-8.61-3.96-1.78-.76-3.61-1.49-5.49-2.2-1.88-.71-3.71-1.37-5.49-1.99-1.79-.62-3.45-1.16-5.01-1.62-1.55-.46-2.89-.82-4.02-1.09-1.87-.46-3.28-.99-4.21-1.61-.94-.62-1.82-1.65-2.65-3.1-1.02-1.76-1.34-2.86-.96-3.28.38-.43,1.68-.1,3.93.98.81.45,2.06,1.02,3.73,1.72,1.67.7,3.55,1.44,5.63,2.23s4.26,1.58,6.53,2.41c2.27.82,4.45,1.58,6.54,2.31,2.09.71,3.97,1.34,5.66,1.88,1.68.54,3,.92,3.94,1.15,2.31.56,4.25,1.09,5.82,1.59,1.57.5,2.86,1.03,3.9,1.6,1.03.57,1.87,1.2,2.51,1.91.64.71,1.2,1.54,1.66,2.5l-.02-.02Zm-25.32,12.91c1.09,1.37,1.4,2.41.95,3.12-.46.71-1.87.7-4.23-.03-1.62-.53-3.3-1.09-5.02-1.68-1.73-.59-3.93-1.37-6.58-2.33-1.43-.5-2.86-1.14-4.31-1.93-1.44-.79-2.53-1.56-3.25-2.31-1.4-1.33-1.96-2.25-1.67-2.77.28-.52,1.06-.5,2.31.05.52.22,1.27.48,2.27.81.99.33,2.06.67,3.21,1.02s2.36.67,3.61.96,2.43.54,3.54.71c2.46.43,4.39.99,5.81,1.69,1.42.71,2.54,1.6,3.36,2.69h0Zm4.77-9.7c.86,1.4,1.03,2.41.51,3.04-.53.64-1.64.7-3.35.19-1.68-.56-3.77-1.28-6.29-2.17-2.52-.88-5.04-1.76-7.53-2.63-2.41-.89-4.41-2.23-5.98-4.01-2.34-2.97-1.81-3.75,1.58-2.32,2.49,1.01,4.87,1.85,7.12,2.51s4.42,1.18,6.49,1.53c1.91.26,3.45.71,4.62,1.36,1.17.64,2.11,1.47,2.83,2.5h0Zm6.29-18.11c-.72,1.58-1.68,2.44-2.89,2.56-1.2.12-2.27-.5-3.22-1.87-.69-.94-1.42-2.42-2.19-4.44-.78-2.02-1.47-4.39-2.1-7.14-.36-1.4-.32-2.23.13-2.48.45-.25,1.52.09,3.21,1.02,2.07,1.13,3.69,2.2,4.88,3.2s2.03,1.98,2.54,2.93.71,1.93.62,2.94c-.09,1.01-.43,2.1-.99,3.28h0Z"/><path class="cls-4" d="m957.63,179.54c-.46,1.69-1.2,3.27-2.2,4.72-1.02,1.45-2.41,2.9-4.18,4.36-.72.62-1.37,1.12-1.94,1.5-.57.38-1.13.71-1.67,1-.54.29-1.15.56-1.82.82-.68.26-1.48.54-2.42.83-1.33.38-2.28.15-2.87-.71s-.5-2.48.26-4.87c.64-1.94,1.34-3.21,2.09-3.8.75-.6,1.9-.99,3.47-1.19,1.13-.14,2.51-.64,4.13-1.51,1.62-.86,3.1-1.91,4.45-3.14,1.35-1.23,2.3-1.65,2.83-1.27.54.38.49,1.47-.13,3.27v-.02Zm34.58,47.71c.37.53.56,1.05.56,1.56s-.21.92-.61,1.23-1.02.54-1.84.69c-.82.15-1.87.08-3.14-.21-1.77-.36-3.73-1.05-5.89-2.06-2.16-1.02-4.33-2.2-6.5-3.55-2.18-1.35-4.26-2.79-6.24-4.35-1.98-1.54-3.59-3.04-4.83-4.49-2.21-2.51-3.89-4.95-5.04-7.31-1.15-2.36-1.85-4.73-2.1-7.14-.25-2.4-.07-4.82.54-7.26.61-2.44,1.59-4.98,2.94-7.63.49-1.03.99-1.75,1.5-2.14s.92-.52,1.25-.39c.33.14.54.52.64,1.15s-.03,1.47-.39,2.54c-1.1,3.63-1.5,7.11-1.17,10.43.32,3.32,1.58,6.6,3.8,9.82.65.98,1.37,1.9,2.17,2.76.79.85,1.74,1.73,2.85,2.64,1.1.9,2.42,1.84,3.96,2.8,1.54.96,3.37,2.04,5.5,3.24.71.4,1.3.64,1.79.75.47.09.89-.13,1.24-.68s.71-1.46,1.06-2.72.77-3.05,1.23-5.36c.32-1.72.81-2.55,1.46-2.47.65.08,1.12,1.24,1.39,3.51.5,4.1,1.09,7.27,1.77,9.54.68,2.26,1.39,3.97,2.15,5.11h-.02Zm-5.03-67.99c2.85-.92,5.19-1.75,7.02-2.49,1.83-.74,3.29-1.41,4.36-2.03,1.07-.62,1.84-1.2,2.31-1.75s.75-1.09.86-1.63c.44-1.78,1.13-2.58,2.06-2.41.92.17,2.2,1.68,3.84,4.54,1.63,2.85,2.36,4.7,2.17,5.54-.19.84-.95,1.16-2.31.98-1.3-.15-3.35-.12-6.16.09-2.81.21-6.2.65-10.19,1.32,4.15,2.14,7.58,3.7,10.29,4.67,2.71.97,4.82,1.5,6.33,1.58.54.02,1.01.12,1.43.29.42.17.85.49,1.31.97s.92,1.15,1.37,2.02c.46.87.98,2.05,1.56,3.52.5,1.27.87,2.3,1.08,3.09.21.79.25,1.42.13,1.88-.12.46-.38.78-.78.99-.4.2-.92.36-1.57.49-1.3.25-2.86,1.08-4.67,2.5s-3.38,2.96-4.67,4.62c-.57.74-1.24,1.54-1.99,2.4-.76.87-1.54,1.75-2.36,2.65-.82.9-1.68,1.79-2.56,2.67s-1.71,1.66-2.47,2.33c-1.63,1.48-3.17,2.41-4.6,2.79-1.44.37-2.44.33-3.03-.12-.39-.31-.61-.81-.65-1.51-.04-.7.19-1.88.69-3.54.12-.46.14-.85.05-1.2-.09-.34-.53-.81-1.33-1.4-.8-.59-2.06-1.33-3.76-2.23-1.7-.9-4.07-2.13-7.09-3.71-.47-.21-.9-.47-1.29-.77-.39-.31-.78-.61-1.17-.92-.56.51-1.19.86-1.89,1.06-.71.19-1.26.14-1.65-.16-.83-.65-1.04-1.79-.62-3.44.42-1.65,1.2-3.2,2.34-4.66,2.1-2.69,3.88-5.12,5.34-7.29s2.64-4.11,3.53-5.81c.89-1.7,1.53-3.2,1.9-4.48.37-1.28.59-2.41.64-3.4.04-.75.16-1.35.38-1.77.21-.43.56-.59,1.03-.49.47.09,1.1.49,1.87,1.16.77.68,1.72,1.7,2.86,3.07l.03-.02Zm-8.34,45.61c-1.11,1.42-2.23,2.04-3.35,1.87-1.13-.17-1.85-.85-2.17-2.06-.31-1.11-.49-2.7-.52-4.78-.03-2.07.02-4.11.18-6.12.16-3.03,1.2-3.24,3.1-.64,1.27,1.7,2.23,3.12,2.88,4.26.64,1.14,1.06,2.15,1.23,3.03.17.88.14,1.66-.11,2.34-.25.68-.66,1.37-1.23,2.11h0Zm5.18-37.2c1.51.79,2.93,1.42,4.25,1.9,1.32.48,2.69.92,4.11,1.32,1.69.46,2.89.88,3.61,1.28s1.29.97,1.74,1.71c1.07,1.55,1.41,2.68,1.02,3.39-.4.71-1.19.81-2.35.29-1.92-.87-3.58-1.65-4.97-2.34-1.39-.69-2.62-1.32-3.68-1.87-1.06-.55-2-1.09-2.82-1.61s-1.61-1.04-2.38-1.57c-.51.86-1.04,1.68-1.58,2.48-.54.8-1.12,1.63-1.72,2.5,1.28.68,2.55,1.28,3.8,1.79,1.26.51,2.73.99,4.42,1.44,1.69.46,2.89.88,3.61,1.28.71.4,1.29.97,1.74,1.71,1.03,1.6,1.37,2.74.99,3.43s-1.16.77-2.33.25c-3.52-1.65-6.33-3.03-8.44-4.18-2.11-1.13-3.91-2.25-5.42-3.35-.57.82-1.15,1.62-1.76,2.41-.61.78-1.23,1.63-1.88,2.55,3.22,1.73,5.75,3.1,7.61,4.11,1.85,1.01,3.24,1.82,4.18,2.44.94.61,1.55,1.09,1.83,1.44.29.34.47.71.57,1.09.12.65.42.95.88.92s1.44-.76,2.95-2.19c1.62-1.57,3.03-3,4.22-4.27,1.2-1.27,2.26-2.49,3.21-3.65.94-1.16,1.82-2.32,2.62-3.51.81-1.18,1.61-2.44,2.42-3.78.43-.76.45-1.66.03-2.69-.42-1.03-1.06-1.74-1.95-2.12-4.07-1.75-7.36-3.24-9.87-4.46-2.51-1.22-4.45-2.23-5.78-3.04-.51.86-1.01,1.69-1.48,2.51-.47.81-.93,1.6-1.37,2.36l-.02.03Zm23.11,51.5c-.68,1.99-1.62,3.1-2.8,3.36-1.19.26-2.3-.61-3.34-2.61-.99-1.96-1.92-4.02-2.79-6.19-.86-2.17-1.72-4.73-2.57-7.68-.35-1.37-.33-2.2.06-2.5.39-.29,1.19.04,2.41,1,2.4,1.87,4.29,3.45,5.69,4.74,1.4,1.29,2.42,2.44,3.08,3.47.65,1.02.96,2.02.93,2.97-.04.95-.26,2.1-.68,3.43h0Z"/><path class="cls-4" d="m1041.25,227.05c-2.17-1.62-3.93-3-5.27-4.14-1.34-1.13-2.4-2.14-3.17-3.03-.78-.88-1.36-1.72-1.75-2.51s-.69-1.66-.92-2.64c-.3-1.16-.23-1.81.21-1.97.44-.16,1.26.31,2.44,1.41,1.57,1.43,3.43,2.94,5.59,4.54,2.16,1.6,4.49,3.22,7.02,4.87,8.6-7.44,13.16-12.65,13.68-15.66.4-2.49,1.18-3.66,2.32-3.53,1.13.13,2.42,2.03,3.86,5.69.6,1.47,1.02,2.67,1.27,3.58.25.91.34,1.63.28,2.15-.06.53-.28.91-.64,1.16-.36.25-.88.47-1.54.66-.75.19-1.58.49-2.48.89-.89.4-1.89.97-3,1.69-1.1.72-2.36,1.61-3.76,2.65-1.4,1.04-3.06,2.31-4.97,3.82,2.27,1.28,3.86,2.37,4.74,3.29.88.92,1.5,2.06,1.84,3.44.34,1.37.24,2.31-.31,2.83-.55.5-1.53.36-2.95-.45-.73-.43-1.81-1.12-3.24-2.07-1.44-.95-3-2.09-4.71-3.38-3.54,2.85-7.01,5.75-10.4,8.71-3.39,2.96-6.6,5.83-9.61,8.61-2.69,2.48-4.97,4.45-6.83,5.92s-3.83,2.77-5.89,3.92c-1.44.82-2.56.88-3.37.19-.81-.69-1.04-1.91-.71-3.66.45-2.53,1.3-4.45,2.54-5.77,1.23-1.31,3.15-2.4,5.74-3.26.67-.19,1.52-.6,2.55-1.22,1.03-.62,2.46-1.59,4.27-2.93s4.09-3.1,6.84-5.29c2.75-2.2,6.19-5.04,10.33-8.51h0Zm30.09,23.68c-5.32,3.3-10.29,5.91-14.91,7.81-4.63,1.9-9,3.17-13.14,3.83-4.14.64-8.07.75-11.81.32-3.74-.43-7.38-1.3-10.94-2.58-2.69-.99-3.96-1.75-3.83-2.3.13-.54,1.66-.64,4.59-.31,3.98.47,7.83.59,11.55.36,3.73-.23,7.38-.79,10.97-1.7,3.59-.91,7.19-2.16,10.8-3.75,3.6-1.59,7.27-3.52,11.01-5.79-.68-.47-1.3-.9-1.82-1.3-.54-.4-.99-.71-1.38-.95-.68-.47-1.24-.86-1.67-1.19s-.78-.68-1.05-1.06-.5-.79-.68-1.21c-.18-.43-.33-.97-.43-1.63-.4-2.17-.43-3.39-.09-3.66.34-.27,1.16.26,2.48,1.58,1.09,1.1,2.33,2.23,3.69,3.38,1.36,1.16,2.91,2.4,4.66,3.75,4.25-2.82,7.42-5.37,9.54-7.66,2.11-2.29,3.33-4.18,3.66-5.65.44-2.35,1.2-3.51,2.25-3.47s2.3,1.81,3.74,5.29c.68,1.65,1.12,3,1.32,4.04.2,1.04.23,1.89.06,2.54-.16.65-.5,1.14-1.05,1.47-.54.33-1.23.59-2.07.78-.75.19-1.97.75-3.66,1.67-1.68.92-4.38,2.58-8.08,4.98,1.07.7,2.06,1.3,3,1.8.92.5,1.71.87,2.36,1.12,1.39.5,2.37,1.11,2.96,1.83.58.73,1.1,2.02,1.56,3.89.41,1.73.7,3.07.86,4.02.16.95.16,1.68-.02,2.17-.17.5-.5.82-.99.99-.49.16-1.2.28-2.13.37-1.46.16-2.98.57-4.56,1.23-1.59.66-3.46,1.74-5.63,3.24-5.25,3.66-9.63,6.57-13.17,8.73-3.54,2.17-6.56,3.79-9.06,4.87-2.51,1.09-4.67,1.73-6.5,1.95-1.83.21-3.66.23-5.5.08-2.14-.22-3.49-.81-4.05-1.78-.55-.97-.39-2.03.49-3.17.65-.85,1.27-2.23,1.85-4.11s1.01-4.1,1.29-6.64c.19-1.61.59-2.41,1.18-2.36s1.23.85,1.91,2.41c.77,1.65,1.42,2.96,1.96,3.9.54.95,1.04,1.64,1.53,2.07.49.43.99.64,1.52.62.53-.02,1.17-.17,1.93-.45,4.06-1.55,8.4-3.65,13.01-6.3,4.61-2.65,9.1-5.91,13.47-9.77,1.5-1.3,2.29-2.26,2.36-2.87.07-.61-.43-1.4-1.49-2.37-.29-.32-.79-.75-1.5-1.28s-1.48-1.13-2.34-1.78v-.02Zm-21.09-4.87c-1.36,2.1-3.15,3.77-5.38,5.02-2.23,1.25-4.52,1.87-6.9,1.86-2.16.05-3.57-.36-4.24-1.23s-.5-1.89.52-3.07c.78-.89,1.44-1.6,1.96-2.13s1.02-.92,1.5-1.2c.47-.26.94-.43,1.4-.47.47-.05,1.06-.03,1.81.04,1.13.13,2.38,0,3.74-.41,1.36-.4,2.62-.94,3.79-1.59,1.53-.81,2.48-.92,2.88-.31.39.61.03,1.77-1.09,3.48h0Zm24.52,42.77c-1.37,1.27-2.55,1.7-3.55,1.31-.99-.4-1.63-1.47-1.91-3.24-.1-.84-.03-2.44.19-4.8s.57-5.03,1.05-8c.26-1.92.67-2.92,1.24-2.98s1.43.98,2.58,3.14c1.06,1.98,1.87,3.68,2.43,5.11s.86,2.69.9,3.8c.05,1.1-.19,2.09-.68,2.97-.5.88-1.25,1.79-2.25,2.71Z"/><path class="cls-4" d="m1094.13,321.1c-1.06-1.16-1.99-2.2-2.79-3.13-.8-.92-1.73-1.92-2.81-3-.77-.83-1.39-1.54-1.85-2.13-.47-.59-.82-1.16-1.09-1.74-.26-.57-.45-1.13-.56-1.69s-.19-1.27-.23-2.13c-.11-2.09.09-3.22.6-3.41.5-.19,1.33.69,2.45,2.62.36.66,1.06,1.63,2.09,2.92,1.03,1.29,2.27,2.76,3.69,4.42,1.43,1.66,2.98,3.42,4.66,5.29s3.32,3.66,4.94,5.39c1.61,1.72,3.11,3.28,4.49,4.69,1.37,1.4,2.51,2.51,3.41,3.32,1.44,1.28,2.62,2.37,3.56,3.28.93.91,1.65,1.75,2.17,2.53.51.78.88,1.57,1.13,2.38.23.81.4,1.74.5,2.79.21,2.69-.12,4.15-1,4.4s-2.54-1.25-4.96-4.48c-.77-1.06-1.74-2.33-2.91-3.83s-2.45-3.07-3.83-4.72c-1.39-1.65-2.81-3.35-4.26-5.11-1.46-1.75-2.85-3.42-4.18-5-.16,1.67-.33,2.96-.5,3.9-.17.93-.4,1.58-.67,1.95-.28.36-.62.5-1.02.4-.4-.11-.88-.35-1.43-.73-.4-.26-.94-.55-1.64-.88-.7-.32-1.66-.69-2.9-1.1-1.23-.41-2.82-.89-4.74-1.44-1.92-.55-4.31-1.23-7.15-2.04,1.66,1.96,3.76,4.38,6.3,7.28,2.54,2.9,5.74,6.64,9.59,11.25.35-.82.71-1.72,1.09-2.67s.76-1.97,1.16-3.06c.73-1.82,1.44-2.64,2.12-2.45.68.19,1.16,1.4,1.47,3.66.41,3.67.58,6.72.5,9.15-.07,2.43-.39,4.44-.94,6.03s-1.35,2.86-2.4,3.81c-1.05.95-2.37,1.8-3.95,2.55-.85.41-1.63.57-2.35.49-.72-.08-1.29-.32-1.7-.72-.41-.4-.68-.93-.78-1.61-.11-.68,0-1.38.33-2.12.75-1.68,1.47-3.31,2.14-4.87.68-1.57,1.4-3.3,2.14-5.21-5.18-5.36-9.81-9.78-13.92-13.25-4.11-3.47-7.28-5.65-9.51-6.56-1.99-.77-3.1-1.51-3.31-2.23-.21-.71.28-2.03,1.48-3.93.78-1.19,1.43-2.1,1.94-2.73.51-.64,1.01-1,1.51-1.1.49-.1,1.06.05,1.69.45.64.4,1.42,1.03,2.37,1.9,1.25,1.11,3.18,1.98,5.78,2.6,2.61.63,5.91.92,9.9.89,1.51.04,2.9-.39,4.17-1.3l-.03.02Zm39.6-15.06c-4.38.36-8.82.44-13.33.26-4.51-.19-8.97-.69-13.37-1.51-4.41-.81-8.65-2.01-12.74-3.59-4.09-1.58-7.88-3.6-11.36-6.06-1.92-1.33-2.71-2.25-2.36-2.74s1.62-.3,3.82.55c7.15,2.72,14.24,4.57,21.28,5.55,7.04.98,13.71,1.17,20.02.58,7.39-.64,11.59-1.76,12.6-3.4.61-.99,1.23-1.66,1.85-2,.63-.34,1.2-.31,1.73.09.52.4.93,1.16,1.22,2.27.29,1.11.38,2.67.29,4.66-.09,1.55-.22,2.75-.36,3.59-.16.85-.36,1.46-.61,1.85-.26.4-.59.57-.99.54s-.88-.2-1.44-.5c-.33-.16-.75-.26-1.28-.33-.53-.06-1.08-.09-1.67-.07-1.33,7.12-2.31,13.12-2.92,17.99-.62,4.87-.95,9.1-.99,12.71-.05,3.6.17,6.81.64,9.62.47,2.81,1.13,5.69,1.96,8.64.89,3.28.85,5.05-.12,5.32-.98.27-2.84-1.51-5.59-5.35-1.82-2.52-3.21-4.55-4.17-6.07-.96-1.52-1.61-2.88-1.96-4.07-.34-1.19-.4-2.4-.16-3.63s.64-2.86,1.24-4.89c.74-2.72,1.52-5.5,2.36-8.36.83-2.86,1.65-5.63,2.44-8.3.8-2.69,1.54-5.18,2.21-7.48s1.27-4.25,1.78-5.85h-.02Zm-14.47,22.03c-2.37-2.01-4.2-3.63-5.49-4.86-1.3-1.23-2.2-2.12-2.71-2.68-1.16-1.31-2.13-2.44-2.9-3.38s-1.42-1.82-1.95-2.62c-.53-.81-.97-1.59-1.33-2.36-.36-.77-.68-1.65-.97-2.65-.57-1.78-.54-2.79.12-3.03s1.53.46,2.62,2.12c.78,1.2,1.98,2.64,3.58,4.33,1.6,1.69,3.26,3.17,4.97,4.42,1.16.87,2.15,1.63,2.96,2.29s1.47,1.3,1.99,1.92c.52.62.95,1.23,1.31,1.82.35.59.65,1.24.91,1.97.61,1.61.57,2.72-.12,3.37-.69.64-1.69.43-3-.65h0Z"/></g><path class="cls-2" d="m1607.84,950.78l-26.43-53.87h11.95l11.34,24.83c2.82,6.48,5.47,12.6,8.51,19.18h.54c3.04-6.58,6.08-12.69,8.78-19.18l11.34-24.83h11.59l-26.43,53.87v34.08h-11.19v-34.08Z"/><path class="cls-2" d="m1639.97,967.95c0-14.19,12.24-21.29,40.01-24.3-.03-8.38-2.81-16.45-13.45-16.45-7.53,0-14.32,3.57-19.42,6.98l-4.31-7.56c5.99-3.93,15.13-8.5,25.58-8.5,15.9,0,22.62,10.57,22.62,26.78v39.96h-9.11l-.93-7.79h-.37c-6.21,5.16-13.46,9.4-21.54,9.4-10.9,0-19.08-6.77-19.08-18.52Zm40.01,1.02v-18.09c-21.83,2.62-29.21,7.97-29.21,16.3,0,7.4,5.02,10.41,11.42,10.41s11.49-3.06,17.79-8.62Z"/><path class="cls-2" d="m1708.19,919.73h9.11l.93,9.39h.37c6.21-6.11,12.91-11,21.85-11,13.72,0,19.89,8.86,19.89,25.47v41.27h-11.02v-39.85c0-12.13-3.67-17.33-12.29-17.33-6.66,0-11.27,3.4-17.81,10v47.17h-11.02v-65.14Z"/><path class="cls-2" d="m1770.92,977.43l5.44-7.26c5.66,4.56,11.4,7.72,19.23,7.72,8.55,0,12.8-4.56,12.8-10.12,0-6.7-7.69-9.67-14.9-12.34-9.13-3.34-19.42-7.83-19.42-18.82,0-10.42,8.35-18.49,22.47-18.49,8.11,0,15.2,3.32,20.25,7.32l-5.27,7.06c-4.49-3.31-9.09-5.8-14.85-5.8-8.21,0-11.99,4.38-11.99,9.34,0,6.19,7.08,8.55,14.46,11.3,9.4,3.54,19.86,7.36,19.86,19.76,0,10.56-8.39,19.37-23.76,19.37-9.25,0-18.18-3.92-24.3-9.04Z"/><path class="cls-2" d="m1830.94,889.4h11.02v26.11l-.39,13.39c6.08-5.88,12.68-10.78,21.62-10.78,13.72,0,19.89,8.86,19.89,25.47v41.27h-11.02v-39.85c0-12.13-3.67-17.33-12.29-17.33-6.66,0-11.27,3.4-17.81,10v47.17h-11.02v-95.47Z"/><path class="cls-2" d="m1896.45,967.95c0-14.19,12.25-21.29,40.01-24.3-.03-8.38-2.81-16.45-13.45-16.45-7.53,0-14.32,3.57-19.42,6.98l-4.31-7.56c5.99-3.93,15.13-8.5,25.58-8.5,15.9,0,22.62,10.57,22.62,26.78v39.96h-9.11l-.93-7.79h-.37c-6.21,5.16-13.46,9.4-21.54,9.4-10.9,0-19.08-6.77-19.08-18.52Zm40.01,1.02v-18.09c-21.83,2.62-29.21,7.97-29.21,16.3,0,7.4,5.02,10.41,11.42,10.41s11.49-3.06,17.79-8.62Z"/><path class="cls-2" d="m1964.67,919.73h9.11l.93,9.39h.37c6.21-6.11,12.91-11,21.85-11,13.72,0,19.89,8.86,19.89,25.47v41.27h-11.02v-39.85c0-12.13-3.67-17.33-12.29-17.33-6.66,0-11.27,3.4-17.81,10v47.17h-11.02v-65.14Z"/><path class="cls-2" d="m2058.73,948.55v-51.63h11.19v51.94c0,21.13,8.93,27.78,20.42,27.78s20.85-6.64,20.85-27.78v-51.94h10.73v51.63c0,28.22-13.63,37.93-31.58,37.93s-31.61-9.7-31.61-37.93Z"/><path class="cls-2" d="m2141.14,919.73h9.11l.93,9.39h.37c6.21-6.11,12.91-11,21.85-11,13.72,0,19.89,8.86,19.89,25.47v41.27h-11.02v-39.85c0-12.13-3.67-17.33-12.29-17.33-6.66,0-11.27,3.4-17.81,10v47.17h-11.02v-65.14Z"/><path class="cls-2" d="m2209.07,899.22c0-4.33,3.33-7.12,7.61-7.12s7.61,2.79,7.61,7.12-3.33,7.12-7.61,7.12-7.61-2.96-7.61-7.12Zm2.02,20.51h11.02v65.14h-11.02v-65.14Z"/><path class="cls-2" d="m2231.32,919.73h11.36l12.32,37c1.95,6.36,4.06,12.99,6.01,19.21h.54c1.95-6.22,4.06-12.85,6.01-19.21l12.32-37h10.8l-23.04,65.14h-12.81l-23.5-65.14Z"/><path class="cls-2" d="m2294.56,952.38c0-21.2,14.29-34.26,29.28-34.26,16.61,0,25.99,11.93,25.99,30.57,0,2.33-.2,4.65-.51,6.26h-43.86c.79,13.8,9.23,22.75,21.64,22.75,6.25,0,11.38-2.02,16.21-5.21l3.95,7.23c-5.71,3.74-12.65,6.76-21.51,6.76-17.36,0-31.19-12.7-31.19-34.09Zm45.54-5.33c0-13.05-5.87-20.15-16.06-20.15-9.16,0-17.34,7.35-18.68,20.15h34.74Z"/><path class="cls-2" d="m2362.51,919.73h9.11l.93,11.86h.37c4.54-8.26,11.19-13.47,18.52-13.47,2.88,0,4.91.37,6.95,1.34l-2.06,9.67c-2.24-.71-3.71-1.07-6.32-1.07-5.5,0-12.08,3.96-16.48,14.98v41.83h-11.02v-65.14Z"/><path class="cls-2" d="m2397.89,977.43l5.44-7.26c5.66,4.56,11.4,7.72,19.23,7.72,8.55,0,12.8-4.56,12.8-10.12,0-6.7-7.69-9.67-14.9-12.34-9.13-3.34-19.42-7.83-19.42-18.82,0-10.42,8.35-18.49,22.47-18.49,8.11,0,15.2,3.32,20.25,7.32l-5.27,7.06c-4.49-3.31-9.09-5.8-14.85-5.8-8.21,0-11.99,4.38-11.99,9.34,0,6.19,7.08,8.55,14.46,11.3,9.4,3.54,19.86,7.36,19.86,19.76,0,10.56-8.39,19.37-23.76,19.37-9.25,0-18.18-3.92-24.3-9.04Z"/><path class="cls-2" d="m2455.89,899.22c0-4.33,3.33-7.12,7.61-7.12s7.61,2.79,7.61,7.12-3.33,7.12-7.61,7.12-7.61-2.96-7.61-7.12Zm2.02,20.51h11.02v65.14h-11.02v-65.14Z"/><path class="cls-2" d="m2489.46,964.72v-36.02h-9.69v-8.34l10.18-.63,1.33-18.27h9.2v18.27h17.65v8.98h-17.65v36.21c0,7.96,2.57,12.58,10.07,12.58,2.31,0,5.3-.88,7.42-1.75l2.13,8.32c-3.65,1.24-8.02,2.41-12.09,2.41-13.86,0-18.56-8.79-18.56-21.75Z"/><path class="cls-2" d="m2522.93,1011.6l2.16-8.78c1.29.44,3.29.97,4.96.97,7.35,0,11.99-5.9,14.69-13.98l1.48-4.81-26.14-65.27h11.36l13.29,36.06c2.05,5.66,4.23,12.33,6.35,18.35h.54c1.85-5.92,3.7-12.6,5.47-18.35l11.61-36.06h10.8l-24.54,70.5c-4.6,12.92-11.32,22.71-24.38,22.71-3.03,0-5.54-.54-7.64-1.34Z"/><path class="cls-2" d="m2606.8,973.42l6.7-7.68c6.33,6.57,15.12,10.9,24.26,10.9,11.54,0,18.38-5.75,18.38-14.29,0-8.98-6.37-11.85-14.67-15.47l-12.63-5.57c-8.2-3.5-17.81-9.71-17.81-22.65s11.71-23.34,27.69-23.34c10.42,0,19.72,4.51,25.9,10.9l-5.93,7.19c-5.39-5.09-11.83-8.25-19.96-8.25-9.86,0-16.4,4.97-16.4,12.84,0,8.47,7.67,11.64,14.56,14.55l12.53,5.42c10.18,4.37,18.12,10.44,18.12,23.51,0,13.89-11.48,24.99-29.97,24.99-12.34,0-23.08-5.04-30.76-13.06Z"/><path class="cls-2" d="m2679.07,964.72v-36.02h-9.69v-8.34l10.18-.63,1.33-18.27h9.21v18.27h17.65v8.98h-17.65v36.21c0,7.96,2.57,12.58,10.07,12.58,2.31,0,5.3-.88,7.42-1.75l2.13,8.32c-3.65,1.24-8.02,2.41-12.09,2.41-13.86,0-18.56-8.79-18.56-21.75Z"/><path class="cls-2" d="m2718.2,961v-41.27h11.02v39.85c0,12.13,3.67,17.33,12.29,17.33,6.66,0,11.27-3.3,17.44-10.98v-46.2h11.02v65.14h-9.11l-.93-10.2h-.37c-6.04,7.11-12.54,11.81-21.48,11.81-13.72,0-19.89-8.86-19.89-25.47Z"/><path class="cls-2" d="m2783.98,952.38c0-21.13,13.33-34.26,28.18-34.26,7.58,0,12.54,2.85,18.25,7.55l-.46-11.17v-25.1h11.02v95.47h-9.11l-.93-7.69h-.37c-5.06,5.06-12,9.3-19.76,9.3-16.28,0-26.83-12.38-26.83-34.09Zm45.97,15.93v-34.14c-5.56-4.95-10.57-6.77-15.89-6.77-10.41,0-18.7,10.05-18.7,24.89,0,15.62,6.46,24.92,17.88,24.92,6.02,0,11.25-2.94,16.71-8.89Z"/><path class="cls-2" d="m2854.8,952.38c0-21.2,14.29-34.26,29.28-34.26,16.61,0,25.99,11.93,25.99,30.57,0,2.33-.2,4.65-.51,6.26h-43.87c.79,13.8,9.23,22.75,21.64,22.75,6.25,0,11.38-2.02,16.21-5.21l3.95,7.23c-5.71,3.74-12.65,6.76-21.51,6.76-17.36,0-31.18-12.7-31.18-34.09Zm45.54-5.33c0-13.05-5.87-20.15-16.06-20.15-9.16,0-17.34,7.35-18.68,20.15h34.74Z"/><path class="cls-2" d="m2922.75,919.73h9.11l.93,9.39h.37c6.21-6.11,12.91-11,21.85-11,13.72,0,19.89,8.86,19.89,25.47v41.27h-11.02v-39.85c0-12.13-3.67-17.33-12.29-17.33-6.66,0-11.27,3.4-17.81,10v47.17h-11.02v-65.14Z"/><path class="cls-2" d="m2994.63,964.72v-36.02h-9.69v-8.34l10.18-.63,1.33-18.27h9.21v18.27h17.65v8.98h-17.65v36.21c0,7.96,2.57,12.58,10.07,12.58,2.31,0,5.3-.88,7.42-1.75l2.13,8.32c-3.65,1.24-8.02,2.41-12.09,2.41-13.86,0-18.56-8.79-18.56-21.75Z"/><path class="cls-2" d="m3059.12,896.92h11.56l31.83,55.29,9.49,18.21h.54c-.56-8.87-1.42-18.79-1.42-27.98v-45.52h10.63v87.95h-11.56l-31.83-55.34-9.49-18.16h-.54c.56,8.9,1.42,18.28,1.42,27.47v46.03h-10.63v-87.95Z"/><path class="cls-2" d="m3136.6,952.38c0-21.2,14.29-34.26,29.28-34.26,16.61,0,25.99,11.93,25.99,30.57,0,2.33-.2,4.65-.51,6.26h-43.86c.79,13.8,9.23,22.75,21.64,22.75,6.25,0,11.38-2.02,16.21-5.21l3.95,7.23c-5.71,3.74-12.65,6.76-21.51,6.76-17.36,0-31.19-12.7-31.19-34.09Zm45.54-5.33c0-13.05-5.87-20.15-16.06-20.15-9.16,0-17.34,7.35-18.68,20.15h34.74Z"/><path class="cls-2" d="m3205.14,964.72v-36.02h-9.69v-8.34l10.18-.63,1.33-18.27h9.21v18.27h17.65v8.98h-17.65v36.21c0,7.96,2.57,12.58,10.07,12.58,2.31,0,5.3-.88,7.42-1.75l2.13,8.32c-3.65,1.24-8.02,2.41-12.09,2.41-13.86,0-18.56-8.79-18.56-21.75Z"/><path class="cls-2" d="m3269.63,896.92h11.19v87.95h-11.19v-87.95Z"/><path class="cls-2" d="m3300.49,919.73h9.11l.93,9.39h.37c6.21-6.11,12.91-11,21.85-11,13.72,0,19.89,8.86,19.89,25.47v41.27h-11.02v-39.85c0-12.13-3.67-17.33-12.29-17.33-6.66,0-11.27,3.4-17.81,10v47.17h-11.02v-65.14Z"/><path class="cls-2" d="m3363.41,920.36l9.34-.63h24.33v8.98h-33.66v-8.34Zm8.84-10.92c0-13.24,6.02-21.65,19.08-21.65,3.96,0,7.87,1,10.82,2.24l-2.33,8.42c-2.48-1.14-5.06-1.68-7.38-1.68-6.15,0-9.17,4.3-9.17,12.71v75.38h-11.02v-75.43Z"/><path class="cls-2" d="m3400.04,952.38c0-21.74,14.22-34.26,30.18-34.26s30.18,12.53,30.18,34.26-14.22,34.09-30.18,34.09-30.18-12.53-30.18-34.09Zm48.98,0c0-14.93-7.59-25.08-18.79-25.08s-18.79,10.16-18.79,25.08,7.59,24.92,18.79,24.92,18.79-9.99,18.79-24.92Z"/><path class="cls-2" d="m3474.15,919.73h9.11l.93,11.86h.37c4.53-8.26,11.19-13.47,18.52-13.47,2.88,0,4.91.37,6.95,1.34l-2.06,9.67c-2.24-.71-3.71-1.07-6.32-1.07-5.5,0-12.08,3.96-16.48,14.98v41.83h-11.02v-65.14Z"/><path class="cls-2" d="m3517.3,919.73h9.11l.93,9.44h.37c5.7-6.16,12.51-11.05,20.27-11.05,9.96,0,15.3,4.77,17.98,12.41,6.76-7.32,13.56-12.41,21.48-12.41,13.38,0,19.82,8.86,19.82,25.47v41.27h-11.02v-39.85c0-12.13-3.84-17.33-12.12-17.33-5.05,0-10.3,3.3-16.32,10v47.17h-11.02v-39.85c0-12.13-3.84-17.33-12.12-17.33-4.88,0-10.3,3.3-16.33,10v47.17h-11.02v-65.14Z"/><path class="cls-2" d="m3621,967.95c0-14.19,12.25-21.29,40.01-24.3-.03-8.38-2.81-16.45-13.45-16.45-7.53,0-14.32,3.57-19.42,6.98l-4.31-7.56c5.99-3.93,15.13-8.5,25.58-8.5,15.9,0,22.62,10.57,22.62,26.78v39.96h-9.11l-.93-7.79h-.37c-6.21,5.16-13.46,9.4-21.54,9.4-10.9,0-19.08-6.77-19.08-18.52Zm40.01,1.02v-18.09c-21.83,2.62-29.21,7.97-29.21,16.3,0,7.4,5.02,10.41,11.42,10.41s11.49-3.06,17.79-8.62Z"/><path class="cls-2" d="m3689.28,964.72v-36.02h-9.69v-8.34l10.18-.63,1.33-18.27h9.2v18.27h17.65v8.98h-17.65v36.21c0,7.96,2.57,12.58,10.07,12.58,2.31,0,5.3-.88,7.42-1.75l2.13,8.32c-3.65,1.24-8.02,2.41-12.09,2.41-13.86,0-18.56-8.79-18.56-21.75Z"/><path class="cls-2" d="m3727.27,899.22c0-4.33,3.33-7.12,7.61-7.12s7.61,2.79,7.61,7.12-3.33,7.12-7.61,7.12-7.61-2.96-7.61-7.12Zm2.02,20.51h11.02v65.14h-11.02v-65.14Z"/><path class="cls-2" d="m3754.06,952.38c0-21.74,14.22-34.26,30.18-34.26s30.18,12.53,30.18,34.26-14.22,34.09-30.18,34.09-30.18-12.53-30.18-34.09Zm48.98,0c0-14.93-7.59-25.08-18.79-25.08s-18.79,10.16-18.79,25.08,7.59,24.92,18.79,24.92,18.79-9.99,18.79-24.92Z"/><path class="cls-2" d="m3828.18,919.73h9.11l.93,9.39h.37c6.21-6.11,12.91-11,21.85-11,13.72,0,19.89,8.86,19.89,25.47v41.27h-11.02v-39.85c0-12.13-3.67-17.33-12.29-17.33-6.66,0-11.27,3.4-17.81,10v47.17h-11.02v-65.14Z"/><path class="cls-2" d="m3940.69,896.92h12.63l29.75,87.95h-11.85l-15.34-49.12c-3.16-9.83-5.98-19.49-8.8-29.64h-.54c-2.72,10.2-5.54,19.8-8.7,29.64l-15.51,49.12h-11.39l29.75-87.95Zm-14.11,52.23h40.5v8.93h-40.5v-8.93Z"/><path class="cls-2" d="m3986.98,977.43l5.44-7.26c5.66,4.56,11.4,7.72,19.23,7.72,8.55,0,12.8-4.56,12.8-10.12,0-6.7-7.69-9.67-14.9-12.34-9.13-3.34-19.43-7.83-19.43-18.82,0-10.42,8.35-18.49,22.47-18.49,8.11,0,15.2,3.32,20.25,7.32l-5.27,7.06c-4.49-3.31-9.09-5.8-14.85-5.8-8.21,0-11.99,4.38-11.99,9.34,0,6.19,7.08,8.55,14.46,11.3,9.4,3.54,19.86,7.36,19.86,19.76,0,10.56-8.39,19.37-23.76,19.37-9.25,0-18.18-3.92-24.3-9.04Z"/><path class="cls-2" d="m4039.77,977.43l5.44-7.26c5.66,4.56,11.4,7.72,19.23,7.72,8.55,0,12.8-4.56,12.8-10.12,0-6.7-7.69-9.67-14.9-12.34-9.13-3.34-19.43-7.83-19.43-18.82,0-10.42,8.35-18.49,22.47-18.49,8.11,0,15.2,3.32,20.25,7.32l-5.27,7.06c-4.49-3.31-9.09-5.8-14.85-5.8-8.21,0-11.99,4.38-11.99,9.34,0,6.19,7.08,8.55,14.46,11.3,9.4,3.54,19.86,7.36,19.86,19.76,0,10.56-8.39,19.37-23.76,19.37-9.25,0-18.18-3.92-24.3-9.04Z"/><path class="cls-2" d="m4094.95,952.38c0-21.74,14.22-34.26,30.18-34.26s30.18,12.53,30.18,34.26-14.22,34.09-30.18,34.09-30.18-12.53-30.18-34.09Zm48.98,0c0-14.93-7.59-25.08-18.79-25.08s-18.79,10.16-18.79,25.08,7.59,24.92,18.79,24.92,18.79-9.99,18.79-24.92Z"/><path class="cls-2" d="m4164.23,952.38c0-21.74,14.68-34.26,31.34-34.26,8.55,0,14.47,3.53,19.06,7.65l-5.64,7.29c-3.79-3.43-7.8-5.76-12.92-5.76-11.79,0-20.44,10.16-20.44,25.08s8.17,24.92,20.15,24.92c5.95,0,11.23-2.89,15.29-6.49l4.78,7.39c-5.85,5.22-13.24,8.28-21.06,8.28-17.33,0-30.55-12.53-30.55-34.09Z"/><path class="cls-2" d="m4224.8,899.22c0-4.33,3.33-7.12,7.61-7.12s7.61,2.79,7.61,7.12-3.33,7.12-7.61,7.12-7.61-2.96-7.61-7.12Zm2.02,20.51h11.02v65.14h-11.02v-65.14Z"/><path class="cls-2" d="m4252.4,967.95c0-14.19,12.25-21.29,40.01-24.3-.03-8.38-2.81-16.45-13.45-16.45-7.53,0-14.32,3.57-19.42,6.98l-4.31-7.56c5.99-3.93,15.13-8.5,25.58-8.5,15.9,0,22.62,10.57,22.62,26.78v39.96h-9.11l-.93-7.79h-.37c-6.21,5.16-13.46,9.4-21.54,9.4-10.9,0-19.08-6.77-19.08-18.52Zm40.01,1.02v-18.09c-21.83,2.62-29.21,7.97-29.21,16.3,0,7.4,5.02,10.41,11.42,10.41s11.49-3.06,17.79-8.62Z"/><path class="cls-2" d="m4320.67,964.72v-36.02h-9.69v-8.34l10.18-.63,1.33-18.27h9.2v18.27h17.65v8.98h-17.65v36.21c0,7.96,2.57,12.58,10.07,12.58,2.31,0,5.3-.88,7.42-1.75l2.13,8.32c-3.65,1.24-8.02,2.41-12.09,2.41-13.86,0-18.56-8.79-18.56-21.75Z"/><path class="cls-2" d="m4358.67,899.22c0-4.33,3.33-7.12,7.61-7.12s7.61,2.79,7.61,7.12-3.33,7.12-7.61,7.12-7.61-2.96-7.61-7.12Zm2.02,20.51h11.02v65.14h-11.02v-65.14Z"/><path class="cls-2" d="m4385.46,952.38c0-21.74,14.22-34.26,30.18-34.26s30.18,12.53,30.18,34.26-14.22,34.09-30.18,34.09-30.18-12.53-30.18-34.09Zm48.98,0c0-14.93-7.59-25.08-18.79-25.08s-18.79,10.16-18.79,25.08,7.59,24.92,18.79,24.92,18.79-9.99,18.79-24.92Z"/><path class="cls-2" d="m4459.57,919.73h9.11l.93,9.39h.37c6.21-6.11,12.91-11,21.85-11,13.72,0,19.89,8.86,19.89,25.47v41.27h-11.02v-39.85c0-12.13-3.67-17.33-12.29-17.33-6.66,0-11.27,3.4-17.81,10v47.17h-11.02v-65.14Z"/><path class="cls-2" d="m1735.15,683.2c-25.74,56.76-69.96,95.37-149.16,120.45v-47.19c68.97-27.72,103.95-60.72,127.05-138.27h-126.72v-42.9h127.05l-.33-75.24h43.56v75.24h126.72v42.9h-126.39c23.1,77.55,58.08,110.55,127.05,138.27v47.19c-79.2-25.08-123.42-63.69-148.83-120.45Z"/><path class="cls-2" d="m1914.67,538.66h42.9l-13.86-38.61h45.21l13.86,38.61h41.91l-13.86-38.61h45.21l13.86,38.61h31.02l13.86-38.61h44.55l-13.86,38.61h42.9v70.95h-42.9v-2.31c-15.84,24.09-33.66,46.86-53.46,68.31h98.34v40.92h-113.85v83.82h-93.39v-39.27h49.83v-44.55h-139.92v-40.92h147.51c10.89-10.89,21.12-21.78,31.02-32.67h-134.97v-33.33h-41.91v-70.95Zm250.8,64.68v-25.08h-207.9v25.08h207.9Z"/><path class="cls-2" d="m2239.72,750.19h129.03v-65.67h-106.92v-40.92h106.92l-.33-60.72h-68.97c-4.29,13.86-9.24,27.72-15.18,41.25h-49.17c17.49-37.62,30.03-76.89,35.64-117.48h43.89c-1.32,11.55-2.97,23.1-5.28,34.65h59.07v-41.25h43.56v41.25h117.15v41.58h-117.15v60.72h102.63v40.92h-102.63v65.67h124.74v43.56h-297v-43.56Z"/><path class="cls-2" d="m2574.01,511.27h281.82v289.08h-41.91v-20.13h-33.33l-21.78-66.99-21.78,66.99h-44.22l-21.78-66.99-21.78,66.99h-33.33v20.13h-41.91v-289.08Zm74.25,153.12l-31.68-96.03h38.94l17.49,56.1,17.82-56.1h52.14l17.82,56.43,17.82-56.43h35.31v-14.52h-198v209.22l32.34-98.67Zm66.66,64.68l21.12-64.68-20.46-61.71-21.12,64.02,20.46,62.37Zm99,33.99v-191.73l-31.68,95.37,31.68,96.36Z"/><path class="cls-2" d="m2933.71,503.35h40.59l-35.97,94.38,11.22,6.6,15.51-41.91h38.61l-43.56,117.48h40.26v42.57h-102.63l29.37-79.53-37.95-21.45,44.55-118.14Zm-40.92,252.45l109.23-10.89v42.57l-109.23,10.89v-42.57Zm114.51-127.71c23.76-6.6,43.89-14.19,60.72-23.76-9.24-10.23-17.16-21.45-23.76-33.66-9.57,7.26-20.79,12.87-33.66,16.83v-41.25c16.5-9.9,28.05-22.77,35.97-40.59h130.02c-3.63,38.94-18.81,72.27-42.9,98.67,16.83,9.57,36.96,17.16,60.72,23.76v43.89c-35.97-8.25-67.65-21.45-93.39-39.27-26.07,17.82-57.75,31.02-93.72,39.27v-43.89Zm14.52,42.24h157.74v127.71h-157.74v-127.71Zm115.17,85.8v-43.89h-72.6v43.89h72.6Zm-36.3-176.22c9.57-9.9,17.16-20.79,23.1-33.66h-46.53c6.27,12.87,13.86,23.76,23.43,33.66Z"/><path class="cls-2" d="m3216.52,612.58c26.07-30.03,43.56-66.99,53.46-109.23h43.23c-4.95,29.7-13.2,57.09-24.42,81.84v216.81h-42.9v-150.15c-8.91,10.23-18.81,19.8-29.37,28.71v-67.98Zm93.72-85.14h82.83v-25.74h42.9v25.74h82.5v38.94h-208.23v-38.94Zm200.64,170.28v100.65h-193.05v-100.65h193.05Zm-187.44-110.88h181.83v34.98h-181.83v-34.98Zm0,55.44h181.83v34.98h-181.83v-34.98Zm144.87,121.77v-32.01h-107.91v32.01h107.91Z"/><path class="cls-2" d="m3543.22,747.22c18.48-11.22,29.04-29.37,31.35-53.13h37.95c-2.31,50.49-26.4,82.5-69.3,100.65v-47.52Zm123.42-232.65l5.61-17.82h44.22l-5.61,17.82h104.61v166.32h-240.9v-166.32h92.07Zm105.93,47.19v-14.19h-155.1v14.19h155.1Zm0,42.9v-14.52h-155.1v14.52h155.1Zm0,42.9v-14.85h-155.1v14.85h155.1Zm-151.14,41.25h41.58v73.92h72.6v-34.32h40.92v70.95h-155.1v-110.55Zm99.33,0l9.24,59.07h-41.25l-9.24-59.07h41.25Zm94.71,5.28c2.31,23.76,12.87,41.91,31.35,53.13v47.52c-42.9-18.15-66.99-50.16-69.3-100.65h37.95Z"/><path class="cls-2" d="m3866.62,572.98h32.34v-69.63h42.9v69.63h32.34v28.71h21.78c-1.32,46.86-6.6,89.1-16.17,130.68h-33.33c9.57-39.27,15.18-76.56,17.49-116.49h-22.11v184.47h-42.9v-184.47h-32.34v-42.9Zm144.54,38.94v-31.35h-32.01v-42.9h32.01v-34.32h42.9v34.32h68.31v262.68h-68.97v-43.23h27.39v-176.55h-28.05v31.35c0,67.98-10.56,127.38-39.6,188.43h-48.84c36.3-62.7,46.86-116.82,46.86-188.43Zm154.44-33.99c7.59,55.44,10.56,111.21,10.56,172.92h-33.99c0-60.06-3.63-114.84-10.56-172.92h33.99Z"/><path class="cls-2" d="m4425.64,605.32v20.46h-154.44v-20.46c-21.45,16.83-46.86,30.03-74.58,38.28v-44.55c55.11-23.43,81.84-55.11,99-95.7h105.6c17.16,40.59,43.89,72.27,99,95.7v44.55c-27.72-8.25-53.13-21.45-74.58-38.28Zm-225.72,51.15h297v41.91h-169.29l-38.61,57.09h140.58l-18.48-38.61h46.86l38.94,80.85h-284.79v-42.24h26.07l38.61-57.09h-76.89v-41.91Zm203.28-71.61c-11.55-12.21-21.12-25.74-29.04-39.93h-51.48c-7.92,14.19-17.49,27.72-29.04,39.93h109.56Z"/><path class="cls-2" d="m1979.71,352.2c-1.55-1-10.3-1.95-11.85-2.82-3.14-.94-4.88-1.15-6.43-1.33-1.19-.15-2.31-.27-3.77-.69-.22-.06-.51-.06-.73-.06l-1.17.02c-.47,0-1.12-.03-1.8-.23-3.45-1.13-5.78-7.2-6.08-9.3-.23-1.87.3-3.9.85-6.06.49-1.92,1-3.91,1-5.72-.02-.44.08-1.31.28-3.05.19-1.59.49-3.99.44-4.84-.07-2.82-1.77-4.61-3.56-6.48-.82-.88-1.65-1.76-2.35-2.76-1.22-1.75-2.56-3.1-4.11-4.66-1.01-1.02-2.07-2.07-3.15-3.31-1.79-2.02-2.98-4.37-4.03-6.45-.69-1.38-1.34-2.69-2.1-3.78.06.11-.08,0-.19-.06-.32-.26-.73-.55-1.12-.99-2.33-2.92-4.5-4.55-8.37-6.31-.87-.43-1.89-.69-2.86-.73-.25,0-.51.17-1.12.63-.61.47-1.37,1.05-2.44,1.51-4.94,2.1-7.8,9.98-9.9,15.72-.74,2.16.53,15.93,1.12,22.54.2,2.21.38,4.2.51,5.72.09,1.21-.02,2.47-.13,3.64-.12,1.24-.22,2.37-.12,3.36.5,3.54.19,4.54-.83,6.88-.17.4-.38.86-.6,1.43-.22.56-.27.94-.32,1.33-.13.86-.29,2.07-1.83,3.16-1.23.92-2.74,1.36-4.63,1.36-1.56,0-3.1-.31-4.61-.61l-2.15-.39-.51-.64c-1.58-1.99-4.02-8.41-8.14-21.4l-.35-1.1c-1.31-3.97-4.66-7.55-8.66-8.37-2.86-.59-8.11-1.23-10.27,1.28-1.13,1.32-1.64,3.03-2.13,4.69-.95,3.26-1.91,6.55-2.18,9.93-.73,9.34-2.98,13.72-7.8,21.59-.81,1.34-1.35,1.71-2.47,2.14-.21.07-.51.2-.9.39-1.01.52-1.49,1.59-1.72,2.37-.51,1.87-.1,4.13,1.09,6.03.53.89,1.07,1.64,1.61,2.42.88,1.25,1.8,2.56,2.73,4.32,1.81,3.35,4.27,5.35,7.4,7.87,1.51,1.23,3.19,2.59,5,4.26,1.36,1.28,2.88,1.96,4.63,2.76.72.33,1.44.65,2.2,1.03,1.03.51,1.84,1.18,2.49,1.71.53.41,1.12.87,1.39.91.31.02.76.07,1.22.11,1.5.19,3.1.3,4.23-.31.92-.49,1.46-1.08,2.05-1.94.1-.17.27-1.01.39-1.62.19-1.07.45-2.41.99-3.69.14-.32.37-.95.65-1.68,1.44-3.91,2.24-5.91,2.9-6.78,1.3-1.74,2.83-2.25,4.32-2.73l.59-.19c1.47-.56,3.02-1.07,4.67-1.49,4.45-1.07,9.89-1.86,15.02-2.17,3.99-.24,13.06-1.07,13.68-1.13,2.2-.32,5.2-.11,7.85.14,2.03.2,3.92.38,5.79.28,1.99-.18,7.23.06,8.52.22l.76.09c2.64.32,10.66,1.28,17.99,1.28,6.4,0,13.51-.75,14.9-1.37.29-.34.54-2.16.66-3.13.08-.61.15-1.19.24-1.74-.08-3.13,1.7-6.78-.49-9.62-.72-.46-1.45-.94-2.19-1.41"/><path class="cls-2" d="m2019.01,330.4c-.38-1.9-.93-2.84-2.27-5.09l-.64-1.09c-.43-.72-.83-1.3-1.24-1.87-.92-1.32-1.89-2.72-2.92-5.35-1.61-4.09-2.76-4.59-10.2-7.84l-1.36-.58c-.79-.36-1.59-.86-2.39-1.33-.91-.58-1.84-1.16-2.56-1.4-.47-.14-.9-.23-1.29-.23-2.09,0-4.09,2.17-5.11,5.58-.73,2.31-.28,4.38.42,7.78.24,1.15.5,2.41.76,3.85.14.69.27,1.43.39,2.18.15.83.3,1.67.47,2.52.42,2.02.22,5.24-.56,9.57-.33,1.62-.56,2.92-.62,4.82-.07,1.2-1.06,5.19-3.09,12.61-.47,1.78-.85,3.16-.92,3.49-.6,3.05.97,8.46,2.42,9.59,1.38,1.07,14.06,7.64,18.38,7.64.24,0,.35-.02.35-.02,2.6-.77,4.42-2.19,5.69-4.48l.33-.61c.9-1.58,1.83-3.21,2.27-4.85.6-2.07,1.56-3.61,2.43-4.97,1.35-2.16,2.41-3.84,2.09-7.19-.51-4.9-.73-14.42-.7-17.24.03-1.74.03-4.64-.11-5.5"/><path class="cls-3" d="m2342.39,292.78c5.83.22,10.79,2.54,13.44,7.13.62,1.1.73,2.83,1.26,4.4,1.73,5.47,4.62,12.33,2.51,19.72-.93,3.26-2.71,6.2-4.42,8.62-1.73,2.46-4.23,4.44-5.87,7.12-2.11,3.47-2.95,8.51-6.49,9.87-4.34,1.66-11.41-1.74-12.82-4.83-.44-1.02-.37-3.13-.83-4.63-.75-2.37-2.52-3.66-2.72-5.65-.3-2.86,1.45-6.65,2.5-9.88,1.21-3.59,3.01-6.84,3.37-10.47.52-5.16-1.42-12.55.21-16.14,1.33-2.95,6.41-5.4,9.86-5.26"/><path class="cls-3" d="m2447.72,189.28c2.91.36,5.41,1.72,8.06,4.01,2.16,1.87,2.76,4.14,3.92,6.43-1.79,3.5-6.63,2.41-10.39,4.04-.83.36-1.36,1.24-2.23,1.79-4.49,2.72-11.57,3.99-15.18,6.17-2.08,1.27-1.44,2.41-2.42,4.94-.84,2.13-1.32,1.77-1.55,5.15-.24,3.36-2.79,8.64.34,10.81,3.19.26,5.16,1.78,8.3,2.03.24.27.23-.32.86.28,2.3,2.01,2.86,6.8,5.61,6.08,2.43-.65,5.06-3.16,7.93-2.58,4.13.93,7.05,4.66,9.36,8.29.66-7.84-.68-15.26,1.58-22.56-.58-.78-1.05-1.66-2.02-1.91-2.83.74-3.39,2.79-5,5.58-1.27,2.16-2.86,3.73-5.53,4.98-4.5.41-9.07-.45-11.73-1.06-2.39-1.25-7.09-5.18-3.79-8.15,2.71-2.49,3.89-5.41,7-7.94,6.8-5.4,15.95-7.76,24.58-6.43,2.07.96,3.72,1.74,6.09,2.96,3.4,1.7,5.53,6.8,8.57,10.27,1.42,1.59,3.98,2.58,4.14,5.27.14,2.14-2.13,4.43-2.93,6.39-1.53,4.02-2.94,9.15-5.87,12.12-2.15,6.24-.96,13.19-2.79,19.76-.54,1.95-1.47,3.79-2.1,5.76-.58,2-.81,4.34-1.45,6.03-.54,1.24-1.67,1.3-1.39,2.58.65,3.21,6.74,1.49,9.44.59,4.41-1.54,7.82-4.89,11.83-4.11,5.97,1.26,11.53,5.12,16.47,8.04,3.11,1.84,8.04,2.2,8.44,5.14.54,4.01,1.99,5.98-.28,9.12-.31.56-2.3,1.99-2.89,2.39-4.83,3.17-8.67,5.17-13.58,8.69-10.48,7.43-23.68,13.03-35.62,16.78-.75.23-1.57.04-2.31.07,2.68,2.71,5.87,8.04,3.22,12.15-5.45,1.01-8.18,3-12.59,6.65-1.63,1.38-3.37,4-4.68,6.15-1.53,2.55-3.8,7.38-3.66,8.66.26,2.76,7.3,6.86,9.94,8.54,2.23,1.44,3.75,3.57,5.59,5.21,5.46-1.12,12.01-.67,18.51-.27,6.68.39,13.58-1.87,16.59,2.29.12,1.35,3.35,5.78,4.24,7.82,1.31,3.35,8.23,8.33,4.36,13-1.57,1.9-3.97,4.25-7.56,3.67-1.56-.25-1.99-2.05-3.5-3.04-1.51-.98-3.08-1.83-5.75-2.72-1.15-.31-3.46-.51-4.35-.62-4.17-.66-10.36.76-15.39.44-3.14-.18-4.66-.66-6.2,2.2-2.24,4.22-6.14,13.84-6.69,13.91-5.89,6.81-13.19,9.88-20.33,14.31-.34.49-14.15,5.69-16.68,3.93-.74-.49-3.8-2.25-4.93-2.68-1.32-.51-5.41-2.3-6.08-2.66-1.29-.64-1.98-1.82-3.51-2.86-1.96-1.3-3.76-1.3-5.21-3.14-4.98-6.4,1.04-12.49.77-20.83-.05-1.21.54-5.39,1.21-6.56.95-1.71,3.31-1.45,5.04-2.43.92-.55,1.34-1.58,2.2-2.09,1.42-.81,3.45-.86,5.1-1.57,3.4-1.49,6.7-2.69,9.87-3.72,2.22-.78,6.94-2.16,7.26-4.24.41-2.58-2.41-3.66-3.29-5.31-.56-.99-.47-2.1-.96-3.1-1.18-2.41-4.2-4.26-3.91-6.7.23-2.12,2.96-2.88,5.29-3.63,2.66-3.45,2.97-9.16,4.4-13.8-1.5-4.68-8.49-1.67-11.03-.29-3.24,1.78-4.45,2.85-7.04,4.85-1.8,1.38-4.46,3.48-6.98,4.76-3.48,1.81-5.83,4.06-7.97.9.17-3.01-3.21-6.18-1.97-10.31,3.16-5.47,6.48-4.46,10.62-9.16,5.16-5.81,11.19-7.61,16.89-10.47,2.75-1.29,6.78-2.46,9.79-2.18,3.65.36,7.09-.94,11.17-1.61,1.53-.23,3.12.11,4.28-.12,1.17-.25,1.8-1.27,3.05-1.82,1.09-.41,2.31-.26,3.13-.63,2.81-1.4,5.3-3.28,7.26-4.78,2.67-2.09,6.19-4.04,9.75-6.31,2.61-1.57,8.17-4.51,3.76-7.83-8.14-1.49-23.81,1.09-29.85.69-2.96-.22-6.2.73-9.41,1.43-2.36.53-4.84,1.74-6.78,1.89-1.42.17-14.27.19-17.86,1.72-2.03.88-9.03,3.94-10.14,4.31-1.81.57-6.71,2.02-7.6,2.21-3.23.83-6.6,4.98-9.98,5.24-4.2.33-6.51-1.78-9.92-4.01-2.01-1.33-3.89-2.74-6.63-3.19-.77-.79-1.68-1.53-2.09-2.49-2.06-4.68,6.68-5.89,11.41-7.49-.18-8.89-2.34-13.13-4.48-24.68-.5-2.67-1.94-5.06-3.69-8.71-.8-1.65-2.3-2.68-2.67-3.89-.23-.71-.43-1.32-.54-2.5-.04-1.14-.89-3.67-.89-5.14,0-.55-.1-2.97-.12-3.49-.24-2.69-1.04-3.88-.45-6.19.38-1.32,1.92-1.47,2.79-2.66,1.1-1.45.65-3.5,2.41-4.03,1.44-.45,2.67-.62,3.42-.4,4.6,1.4,10.64,5.56,11.66,8.48-1.78,3.12-.01,6.78.21,10.67.04,1.58.25,2.9.26,4.39.05,1.28.66,2.57.68,3.69.1,2.86.11,5.09.84,7.41.61,1.73,1.63,3.4,1.86,5.32.1,1,.19,1.99.32,2.96.14,1.52.44,2.75.78,4.42.59,3.36.02,6.96.86,10.51,2.6-.21,4.33-1.32,6.22-2.19.73-7.88-2.95-14.59-3.83-21.82-.57-4.6-.35-9.41-1.26-14.2-1.04-5.05-2.14-10.49-1.42-16.2-.54-.95-2.82.33-3.98-.44-2.7-1.8,1.53-6.2,2.26-9.48-.12-2.8-.52-4.88.94-7.14,1.62-2.56,5.05-4.6,8.44-3.1,5.43,2.44,8.4,11.31,8.8,16.77-.06,1.22-.79,1.72-1.09,2.64.35,15.89-.64,34.31,4.38,47.71,1.63-.44.63-1.7.71-3.45,1.68-3.44.75-7.91,1.06-12.01.09-1.14.77-2.48.74-3.72-.05-.93-.79-1.49-.93-2.49-.48-2.4-.57-4.78-1.11-7.14-.53-2.58-.04-6.91,1.14-9.1,1.23-2.19,4.23-3.87,6.75-3.39.99.19,1.36,1.95,2.92,2.78.73.37,1.59.17,2.04.51,1.28.95,2.13,2.02,2.93,3.04,2.19,2.76-1.79,5.49-3.16,7.81-.21,4.13-.51,7.74-1.36,11.43-.3,1.19-.05,2.12-.14,3.29-.18,3.52.11,7.14.29,10.67,1.54-.57,1.35-1.89,1.64-3.13.51-2.25.23-3.92,1.49-6.37,1.1-2.16,1.44-4.21,1.79-7.47.65-6.48,5.05-12.9,3.95-18.07-.87-3.98-6.28-9.38-11.27-6.2-3.42-.88-3.37-5.48-6.2-6.95-1.49-3.01-2.17-5.86,1.19-7.15,1.81-4.05,2.24-10.68,1.99-17.45-.1-2.5-1.21-4.79-1.07-7.06.17-3.3,1.95-6.07,1.75-8.62-.4-3.66-3.91-5.37-4.56-8.11-1.02-4.29,1.6-9.93,5.37-10.72,6.51-1.35,12.14,4.99,17.11,9.15.99.83.69,2.97,2.09,3.34,4.78-.73,10.19-2.67,14.46-2.17m6.71,68.19c-.15,1.49.6,2.04.92,3.07.41-.02.78,0,1.15-.02,2.64-2.71,2-6.24,3.4-9.2-2.84,1.08-2.5,5.2-5.48,6.15m-15.07-.28c-3.71,8.29-6.12,16.91-4.67,25.71,5.31.53,10.08-1.05,15.91-1.66-.08-1.4-.49-2.41-.67-3.7-2.11-.98-3.65-2.58-6.93-2.33-1.74-3.13-2.99-6.74-2.02-9.94,2.17-3.23,6.75-7.02,4.48-11.52-1.61-3.3-5.09,1.22-6.1,3.44m-34,152.5c1.92,1.33,6,3.67,8.09,3.75,3.31.18,8.11-1.87,10.17-3.15,4.68-2.99,5.96-6.94,8.49-11.4.75-1.37,1.6-1.5,1.61-2.6.03-1.67-1.97-4.2-3.83-4.44-1.33-.17-3.23,1.03-5.12,1.27-2.04.31-4.13-.14-5.7.23-1.05.25-2.19,1.15-3.34,1.5-1.8.61-3.86.49-5.37,1.03-3.15,1.14-5.08,4.3-7.25,5.08-.36,4.18-.25,7.03,2.24,8.73"/><path class="cls-3" d="m2256.49,375.71c-.12-1.23-.27-1.91-.63-3.29-.47-1.89-2.51-2.88-3.46-4.68-4.25-5.03-6.33-11.19-12.53-15.25-4.33-2.83-9.59-2.8-14.52-3.61-5.46-.89-10.33-3.58-15.6-5.24-5.5-1.74-11.79-3.91-17.57-4.3-4.98-.33-8.82-2.39-13.71-3.39-3.19-.65-6.52-.32-9.71-.95-2.41-.48-8.67-2.69-9.32-5.56-.48-2.1,2.46-6.53,3.57-8.35.8-1.37,1.54-3.22,2.38-4.45.97-1.51,2.79-2.57,3.8-4.26,2.96-5,5.65-10.72,9.08-14.93.9-1.13,1.31-2.45,2.14-3.51,1.38-1.76.34-1.62,1.76-2.36,1.91-.94,6.75-1.14,9.59-1.51.38-.09,15.32-1.29,20.22-2.01,1.73-.24,3.78-.11,5.53-.39.89-.19,2.74-.33,3.52-.4,4.39-.47,10.85-.26,11.18-1.9.65-2.22,3.39-4.85,3.44-7.84.01-2.35-1.83-3.72-3.72-5.23-.78.04-16.85-.97-19.63-6.51-.57-1.19-3.68-4.15-5.34-4.05-.25.02-.5.11-.74.2-.42.54-1.01.95-1.78,1.13-2.12,1.93-3.93,5.38-5.65,6.36-1.03.59-5.29,1.55-5.6-1-.08-.61,3.94-5.56,4.99-6.72.03-.03.06-.06.09-.1.81-1.57,1.63-3.43,2.77-4.94.11-.5.28-.99.58-1.4.24-.94.84-1.81,1.66-2.36.2-.13.41-.24.61-.35.36-.86.71-1.72,1.08-2.57-.14.32-6.56-10.08-6.98-10.53-1.94-2.05-4.69-3.07-7.34-4.02-4.37-1.57-12.23-6.68-15.36-1.27-1.99,3.45-1,8.56-1.16,12.36-.13,3.04-2.3,5.85-3.4,8.62-.74,1.86-.74,4.04-1.57,5.82-.64,1.37-1.94,2.58-2.79,3.83-2.05,3.01-4.27,5.98-6.22,9.06-.09.15-.2.29-.32.42-.26.33-.46.55-.6.67-.41.69-1.07,1.24-1.84,1.6-.48.33-1.04.52-1.62.59-1.34.39-2.73.6-4.13.73-.76.48-1.61.63-2.44.49-.89.15-1.79.25-2.73.36-.2.02-.39,0-.57-.01-.06.02-.12.05-.19.07-.63.23-1.28.19-1.9,0-.23.15-.48.28-.76.39-.75.28-1.51.45-2.28.57-.42.18-.86.31-1.33.32-9.87.13-19.97,1.83-29.82,2.82-.94.09-1.91.2-2.75.63-1.86.96-2.59,3.28-2.57,5.38,0,.84.18,1.7.43,2.57.29-.03.53.05.63.33.51,1.49,1.07,2.84,1.46,4.24,1.92,3.11,4.58,5.99,6.77,7.96,1.68,1.51,5.08.09,7.26-.59,4.27-1.33,8.2-2.3,12.59-3.17,2.85-.56,5.69-1.24,8.44-2.19,2.13-.73,5.07-2.82,7.39-1.5,2.16,1.23-.06,3.69-.56,5.19-.21.62-1.31,1.44-1.72,1.97-2.44,3.77-4.8,7.74-7.47,12.11-2.79,4.57-5.3,8.89-7.71,14.89-1.09,2.68-3.18,4.85-4.56,7.33-3.99,7.09-7.29,11.7-11.88,17.23-1.79,2.25-2.61,6.1-6.22,5.69-1.73-1.7-.13-4.2-1.28-5.77-1.22-.5-1.9-.4-3.58.36-5.84,2.45-12.16,8.83-12.16,8.83,0,0-1.6,16.15,1.27,25.34,3.7.5,5.94,1.91,9.77,2.56,1.83-.07,3.2-1.58,3.97-1.94,3.43-1.58,6.96-1.98,10.2-4.19,2.53-1.73,4.64-3.93,6.72-6.15,2.36-2.51,4.63-5.04,7.47-7,3.21-2.22,5.11-5.9,7.45-9.01,2.17-2.88,4.34-5.76,6.51-8.63,1.35-1.79,3.37-5.74,5.68-6.49.28-.54,1.19-1.18,1.71-.96,3.97,1.62,7.91,3.41,11.94,4.89,1.97.4,3.92.87,5.83,1.48,1.68.53,3.41,1.07,5.15,1.62.32-.17.65-.25.88-.12,2.92,1.71,6.32,1.59,9.51,2.44,1.05.28,2.09.61,3.13.95.99.17,1.88.47,2.66.91,1.12-.1,2.27.12,3.45.73,4.25.51,7.43,1.49,10.27,3.86,3.57,2.95.84,4.19-1.54,6.72-6.91,4.34-12.93,9.52-21.1,12.68.03.57.03,1.13.03,1.65.25,1.48,9.65,2.57,12.88,3.11,3.39.5,13.8-.13,15.86-.39,2.04-.28,3.5-.06,5.53-.14,3.13-.11,16.95-.95,21.4-.51,4.73.52,9.64.46,12.5-.55,1.93-.68,7.23-5.31,5.28-11.52Z"/><path class="cls-3" d="m1675,421.77c.11.01.22.04.33.05.05.02.1.03.15.05l-.48-.1Z"/><path class="cls-2" d="m1740.97,338.74c5.88-3.53,7.78-11.52,15.03-13.1,4.9-1.05,8.52-3.22,12.4-5.83,1.76-1.18,3.71-5.74,3.93-6.01.75-.86,1.37-2.59,1.67-3.12,3.54-6.09-7.67-15.9-13.28-19.32-7.68-4.66-8.51-6.88-5.4-15.79-1.03-3.81-4.31-5.38-5.4-9.15-6.37-2.5-8.27-4.55-15.8-1.86-1.05,2.13-2.59,3.77-3.73,5.81.32,2.49,2.79,4.13,3.12,6.66.39,2.87-.74,5.87-.83,8.72-.17,5.96-2.16,11.15-2.31,17.29-.19,8.85-4.6,28.32-15.79,32.44-1.87.69-3.8,2.97-6.62,2.22,1.77-6.71,4.23-9.94,9.06-13.56.85-.15,2.75-.5,3.41-.99,5.31-3.86,10.14-10.07,7.64-17.66-1.86-5.68-5.91-9.65-10.77-13.1-1.13-.81-2.93-.63-4.15,0-5.02,2.62-9.5,7.97-16.2,9.56,1.18-4.31,3.94-6.36,7.69-8.73,4.86-3.06,11.7-8.59,6.79-15.2-5.14-6.93-10.01-6.05-16.78-5.19-3.26-5.85,14.34-17.59,18.06-22,2.85-3.38,7.22-4.31,11.79-5.08,5.46-.92,11.04-.5,16.47-1.58,1.07-.68,2.95-4.32,3.95-4.98,2.55-6.77-4.56-14.36-5.52-15.68-.87-1.17-1.28-2.52-1.96-3.23-6.25-2.26-8.32,2.33-10.55-1.3-.3-.49,7.22-10.26,5.1-15.52-1.34-3.31-4.17-5.93-7.02-7.91-3.44-4.95-7.36-10.77-14.11-10.8-6.54-.05-9.57,4.51-14.96,6.65-.95,1.77-.7,4.7-1.04,7.05,3.8,5.39,5.93,4.58,7.45,11.78,1.14,5.39-2.84,9.39-2.89,14.61-9.04,3.59-20.76,6.61-33.25,5.4-2.26-3.06-1.3-9.35-3.95-12.05-3.36-.87-4.84-2.15-8.83-3.7-5.32-2.05-6.81,1.35-7.58,4.94-1.24,5.71,10.74,9.86,5.61,16.62-3,3.97-5.06,5.37-10.39,6.86-5.39,1.55-10.5,2.53-14.75,6.65-3.12,3.02-.96,10.98,1.04,13.92.91.46,2.13.62,3.33.81,1.58,1.75,12.87-4.39,13.16-2.07.48,3.77.96,14.17,1.99,14.97,1.48,3.16,2.69,6.6,5.41,8.52,0,.49,1.51,1.61,1.66,2.29.23.86.41,1.81.62,2.7,4,4.3,7.17,6.26,12.48,5.83,3.46,6.6,4.71,15.54-4.17,18.97-8.48,3.26-2.56,18.93-9.97,22.17-4.39-4.83-3.67-13.67,1.26-17.89,5.56-4.66,6.62-7.28,3.52-13.28-2.16-4.17-11.38-4.72-9.14-9.55.26-.54.54-8.51-4.86-12.16-3.12-2.11-6.76-5.18-10.73-5.3.22-.28-6.78-1.31-8.51-2.5-4.01,1.32-12.52,9.72-13.71,11.63,3.59,5.93,5.97,6.49,10.18,12.89,2.26,3.41,5.07,6.75,3.96,12.46-4.18.89-7.12,4.13-10.71,6.14-3.06,1.72-6.61,1.94-9.67,3.62-5.91,3.26-12.7,1.09-15.58,6.86-.5,1,2.94,9.31,6.45,10.17,3.53.92,2.9,1.89,6.64,3.11,4.94,1.63,8.6,1.8,13.85-.4,3.48-1.45,6.88-3.61,10.68-4.17.35,7.47-2.68,15.53-5.87,22.16-2.82,5.85-13.49,8.66-12.63,14.62.38,2.77,1.29,5.3,2.7,7.69,1.59,1.54,3.06,3.2,4.37,4.97.31.31,1.52,2.78,2.28,3.12,4.36,1.96,10.21-3.05,11.22-3.52,1.07-.49,3.97-2.27,4.15-2.5,2.27-2.67,9.81-13.06,10.51-14.42,2.08-4.11,4.35-9.17,8.41-10.09,4.57-1.02,4.35,8.84,9.56,8.94,4.66.08,10.25-9.21,10.59-9.56,2.18-2.86,2.32-7.96,0-10.79-.12-5.62,2.41-11.77,6.43-15.38,3.83-3.44,13.64-12.2,19.33-10.4-.4,2.41-2.62,4.7-3.1,7.7-2.74,1.66-3.67-2.67-5.63-1.24-3.35,2.46-1.9,7.36-4.57,11.42-2.46,3.74-3.92,6.53-6.44,11.85-1.42,3.01-2.48,5.92-2.29,9.97,3.94,2.43,9.72,3.01,11.42,7.68,6.68,4.02,18.23.25,15.39-9.14-.39-.93-1.07-5.7-1.05-6.43,1.5-3.79-.69-10.27,3.13-11.43-.16.78,4.01,5.59,6.69,5.91,5.13.62,4.6,4.88,3.27,9.05-2.96,9.69-5.02,12.02,2.3,20.57-.71,5.6-17.79,8.21-15.34,12.75,5.23-1.23,10.49-2.35,15.58-4.09,1-.52,1.99-.94,2.94-1.16,6.51-1.53,11.3-4.05,17.39-6.22,3.54.78,6.54-2.69,10.33-2.4,3.23.25,6.03-.41,9.19-.94,4.42-.74,9.12-2.2,13.31-3.53.87-.11,9.35-19.25,1.23-22.86-12.65-8.2-22.91,5.39-35.93,5-6.88-4.31.91-16.85,6.65-17.88Zm7.27-38.02c.74.4,1.04.02,1.24-.62,1.69.88,2.21,2.92,2.48,5.19-1.09.5-2.29.89-3.3,1.46-1.05-1.44-.15-3.68-.43-6.02Zm-64.41-34.7c-1.59,4.98-6.11,8.57-8.3,13.73-.87-4.16.8-14.78,1.44-17.47,1.6-6.64,2.31-5.66,7.48-4.14,1.16.34,1.77.73,2.7,1.03-.82,2.1-3.07,6.05-3.33,6.86Z"/><path class="cls-2" d="m1640.39,401.69c-.55.1-6.44,1.63-7.07,1.87-2.58-.33-8.1,1.71-11.01,2.11-3.21.47-5.49-.22-8.32,1.17-1.7.86-5.74,2.5-7.34,2.06-.56-.16-1.84-.59-2.42-.63-6.34-.47-4.19,6.68-2.29,10.51,1.42,2.86,4.16,13.43,9.11,13.43,12.14,0,15.61-3.34,21.7-8.71.84-.75,5.26-6.11,5.79-6.9,2.86-4.29-.94-3.04-.03-8.56.3-1.86,2.76-2.8,2.91-4.7.05-.65,3.18-1.64-1.04-1.63Z"/><path class="cls-2" d="m1787.62,417.7c.08-1.88-.01-3.77-.62-5.55-.12-.34-.25-.67-.33-1.02-.09-.36-.12-.72-.19-1.08-.14-.74-.41-1.32-.73-1.86-.38-.65-.83-1.24-1.2-2-.33-.68.02-1.57-.67-2.1-.18-.14-.42-.22-.58-.39-.24-.26-.24-.67-.44-.97-.3-.48-.98-.57-1.35-.99-.18-.21-.28-.48-.44-.71-.18-.26-.45-.46-.71-.65-.97-.71-1.96-1.43-3.12-1.75-2.73-.75-5.34-1.64-8.17-2.24-1.69-.36-3.33-.49-4.96-.57-.38.03-.76.02-1.14-.05-.31-.01-.63-.03-.95-.04-.1,0-.2,0-.3,0-.39.09-.79.12-1.2.09-.12,0-.24.02-.35.02-.68.03-1.35,0-2.02-.06-2.09.5-4.27,1.04-6.43,1.41-.37.08-.73.17-1.1.25-.72.16-1.41.28-2.11.42-.1,0-.21.03-.3.06-3.59.67-6.86,1.04-9.5,1.25-2.16-.26-8.31.05-8.68.04-6.62-1.07-8.67-1.49-17.84-1-1.17-.03-2.36,0-3.53.09-.32.05-.64.08-.96.13-3.87.66-6.96,3.39-10.61,4.82-2.38.93-5.4.59-7.95.71-2.81.13-5.57-.74-8.36-1.03-.65,0-1.33-.04-2.06-.1-3.03-.24-7.19-.83-10.53-.54-1.43.03-6.05.52-7.26.89-1.51.46-3.52.23-3.35,2.81,1.32,4.28,3.35,8.35,5.98,11.98.8,1.1,1.66,2.17,2.65,3.1,3.39,3.15,8.37,4.49,12.88,3.45-.17-.06-.34-.11-.51-.16.04,0,.08,0,.12,0l.84.18c0-.08-.02-.16-.02-.24,7.06-1.1,15.87-11.12,23.65-9.24.79.19,1.58.36,2.37.52,4.76.97,9.83,1.81,14.71,1.47.26-.07.53-.12.79-.2.29-.34.67-.64,1.16-.88,1.84-.91,3.16-2.73,4.77-3.75.27-.46.56-.92.91-1.36,1.01-1.28,2.14-2.47,3.27-3.65.68-.71,1.36-1.43,2.15-2.02,1.02-.76,2.31-1.7,3.47-2.19.69-.29,1.46-.44,2.19-.49.25-.02,1.85.22,1.95.12,1.89.41,3.68,1.1,5.34,2.16,2,1.29,3.51,3.33,5.57,4.4.45.24.88.54,1.3.88-1.19.36-2.35.91-3.61.43-1.26-.23-3.55-1.02-3.89.84-.31,1.7,6.58,4.58,7.79,5.67.22.08.45.17.66.27,2.02.56,3.51,2.03,4.89,3.51,1.89,1.45,4.06,2.65,6.41,3.15,3.66.63,6.08,3.89,9.6,4.86,1.68.63,3.44,0,5.1-.37,2.95-.48,4.19-3.86,6.92-5.11.89-1.83.99-3.73.6-5.64Z"/></g></svg>