<?xml version="1.0" encoding="UTF-8"?><svg id="_图层_2" xmlns="http://www.w3.org/2000/svg" xmlns:xlink="http://www.w3.org/1999/xlink" viewBox="0 0 1637.5 1637.5"><defs><style>.cls-1{fill:#fff;}.cls-2{fill:url(#_未命名的渐变_17);}.cls-3{fill:url(#_未命名的渐变_19);}.cls-4{fill:url(#_未命名的渐变_19-2);}</style><linearGradient id="_未命名的渐变_19" x1="209.86" y1="587.54" x2="1121.97" y2="426.71" gradientUnits="userSpaceOnUse"><stop offset="0" stop-color="#00acef"/><stop offset="1" stop-color="#008acf"/></linearGradient><linearGradient id="_未命名的渐变_19-2" x1="278.43" y1="1026.62" x2="1397.59" y2="829.28" xlink:href="#_未命名的渐变_19"/><linearGradient id="_未命名的渐变_17" x1="12.3" y1="960.95" x2="1625.2" y2="676.55" gradientUnits="userSpaceOnUse"><stop offset="0" stop-color="#00acef"/><stop offset=".34" stop-color="#00a9ec"/><stop offset=".59" stop-color="#009fe6"/><stop offset=".8" stop-color="#0090db"/><stop offset="1" stop-color="#007acc"/><stop offset="1" stop-color="#007acc"/></linearGradient></defs><g id="_彩色"><path class="cls-3" d="m1104.5,327.64C331.76,452.56,250.63,818.74,250.63,818.74c0-313.76,254.36-568.11,568.12-568.11,104.18,0,201.81,28.04,285.75,77Z"/><path class="cls-4" d="m1212.72,409.44s-811.92,33.21-953.94,505.68v.02c7.13,41.75,18.83,81.95,34.55,120.06,0,0,48.97-512.7,845.05-509.33l20.2,45.44s-819.18,60.21-797.77,412.35c7.64,125.62,103.98,242.36,103.98,242.36,0,0-54.87-15.02-80.21-40.85,104.21,123.36,260.04,201.7,434.17,201.7,313.76,0,568.12-254.35,568.12-568.12,0-160.79-66.8-305.97-174.15-409.31Zm-355.41,889.41c-120.8.99-392.8-52.06-448.54-242.58-60.19-205.79,838.51-462.74,879.25-294.08,49.33,204.2-362.31,315.04-365.34,315.85,2.43-1.25,183.03-94.08,123.75-191.09-65.35-106.93-286.16-44.56-358.44,50.5-54.78,72.04-69.31,257.44,177.24,257.44s439.62-160.41,439.62-160.41c-125.75,192.09-326.74,263.38-447.54,264.37Z"/><path class="cls-2" d="m818.75,0C366.57,0,0,366.57,0,818.75s366.57,818.75,818.75,818.75,818.75-366.57,818.75-818.75S1270.93,0,818.75,0Zm0,1463.59c-356.13,0-644.84-288.71-644.84-644.84S462.62,173.91,818.75,173.91s644.84,288.7,644.84,644.84-288.7,644.84-644.84,644.84Z"/><path class="cls-1" d="m79.19,837.9l40.41-21.03.41,12.39-16.48,7.67c-4.79,2.08-9.27,4.07-14.18,6.29v.4c5.06,1.89,9.66,3.8,14.58,5.54l16.95,6.56.4,12.07-41.71-18.31-24.31.81-.38-11.59,24.31-.81Z"/><path class="cls-1" d="m69.5,873.19c10.47-1.04,16.79,7.09,20.94,26.93,5.24-.68,9.41-3.23,8.75-9.84-.48-4.86-3.13-9.21-6.19-13.25l7.22-4.98c3.92,5.04,7.64,11.66,8.41,19.42,1.22,12.22-5.7,18.98-19.31,20.34l-28.94,2.89-.94-9.39,5.33-1.42-.03-.32c-4.18-4-7.54-8.73-8.12-14.5-.85-8.56,4.37-15.03,12.89-15.88Zm2.83,28.74l10.98-1.1c-2.99-13.09-6.9-17.16-11.83-16.67-4.32.43-5.92,3.56-5.51,7.66.4,3.98,2.65,6.81,6.35,10.1Z"/><path class="cls-1" d="m110.66,920.59l1.6,9.3-6.4,1.99.05.32c4.96,3.61,9.32,7.93,10.46,14.56,1.78,10.37-4.45,16.11-16.67,18.21l-30.36,5.23-1.95-11.35,28.9-4.97c7.96-1.37,10.57-4.17,9.66-9.42-.73-4.26-3.3-6.7-7.93-10l-33.82,5.82-1.95-11.35,48.41-8.33Z"/><path class="cls-1" d="m76.82,978.15l8.37,3.5c-2.29,5.03-3.32,9.62-2.16,14.46,1.25,5.21,4.29,7.07,7.56,6.29,4.01-.96,4.55-6.57,5.27-12.13.85-6.83,2.72-14.85,10.7-16.77,8.28-1.99,15.88,3.26,18.45,13.95,1.6,6.65.18,12.63-1.9,17.24l-8.12-3.48c1.65-3.93,2.55-7.71,1.65-11.46-1.15-4.8-4-6.53-6.99-5.81-3.77.91-4.05,6.08-4.71,11.71-.86,7.04-2.23,15.02-11.14,17.16-8.21,1.97-16.38-2.93-19.28-14.99-1.57-6.53-.43-14.09,2.3-19.68Z"/><path class="cls-1" d="m150.35,1005.34l3.42,11-17.46,5.43-9.2,2.36c4.93,2.78,9.78,6.39,11.77,12.8,3.12,10.05-2.31,16.55-14.15,20.23l-29.41,9.15-3.42-11,28-8.71c7.72-2.4,9.93-5.52,8.35-10.6-1.28-4.12-4.15-6.21-9.17-8.88l-32.77,10.19-3.42-11,67.45-20.98Z"/><path class="cls-1" d="m111.53,1072.62c9.8-3.83,18.08,2.29,27.44,20.28,4.86-2.07,8.18-5.65,5.76-11.83-1.78-4.54-5.5-8.03-9.54-11.09l5.61-6.75c5.13,3.79,10.5,9.16,13.34,16.43,4.47,11.44-.36,19.81-13.1,24.8l-27.08,10.6-3.44-8.79,4.75-2.8-.12-.3c-5.1-2.73-9.62-6.37-11.74-11.77-3.13-8.01.15-15.65,8.12-18.77Zm10.49,26.91l10.28-4.02c-6.42-11.79-11.28-14.66-15.9-12.85-4.04,1.58-4.73,5.03-3.23,8.87,1.46,3.72,4.39,5.84,8.85,8.01Z"/><path class="cls-1" d="m163.97,1107.12l4.06,8.52-5.62,3.65.14.29c5.76,2.13,11.12,5.12,14.01,11.18,4.52,9.5.07,16.71-11.12,22.04l-27.81,13.24-4.95-10.4,26.47-12.61c7.3-3.47,9.04-6.88,6.75-11.68-1.86-3.9-4.99-5.55-10.34-7.48l-30.99,14.76-4.95-10.4,44.35-21.12Z"/><path class="cls-1" d="m178.24,1181.24l31.31-19.18,6.06,9.89-32.06,19.64c-12.14,7.44-13.35,14.42-9.22,21.17,4.18,6.82,11.05,9.08,23.19,1.65l32.06-19.64,5.83,9.52-31.31,19.18c-18.31,11.22-30.45,7.49-38.37-5.44-7.92-12.93-5.81-25.57,12.5-36.79Z"/><path class="cls-1" d="m228.5,1222.88l5.56,7.63-4.85,4.62.19.26c6.05,1.03,11.87,2.97,15.83,8.4,6.2,8.5,3.16,16.41-6.86,23.72l-24.89,18.15-6.79-9.31,23.69-17.28c6.53-4.76,7.62-8.43,4.48-12.73-2.55-3.49-5.93-4.54-11.54-5.44l-27.73,20.22-6.79-9.31,39.69-28.95Z"/><path class="cls-1" d="m260.36,1265.37l7.27,8.93-38.09,31.01-7.27-8.93,38.09-31.02Zm10.89-10.57c3.01-2.45,6.98-1.76,9.55,1.4,2.58,3.16,2.45,7.19-.56,9.64-2.95,2.4-6.98,1.76-9.55-1.4-2.58-3.16-2.39-7.24.56-9.64Z"/><path class="cls-1" d="m271.02,1278.93l7.81,8.69-13.74,22.83c-2.69,4.25-5.48,8.69-8.23,12.99l.27.3c4.57-2.28,9.28-4.57,13.79-6.8l24.17-11.23,7.43,8.27-47.69,20.42-8.9-9.91,25.1-45.56Z"/><path class="cls-1" d="m286.98,1333.19c11.15-11.42,25.95-10.72,34.22-2.65,9.5,9.28,7.81,21.04-1.78,30.86-1.54,1.57-3.25,2.98-4.27,3.66l-22.31-21.78c-5.4,6.91-4.86,14.37.81,19.91,3.01,2.93,6.5,4.5,10.65,5.42l-2.2,7.86c-5.56-1.01-11.3-3.6-15.77-7.96-9.7-9.47-10.67-23.72.65-35.31Zm26.88,19.65c5.28-5.41,6.09-11.05,1.28-15.74-4.09-4-10.69-4.45-16.91.49l15.63,15.26Z"/><path class="cls-1" d="m341.05,1350.85l7.12,6.2-5.09,7.19.24.21c6.84-2.53,13.1-1.8,17.07,1.65,1.89,1.64,2.87,2.92,3.54,4.4l-8.07,6.23c-.98-1.49-1.74-2.57-3.28-3.91-2.96-2.57-8.28-3.65-15.42.05l-19.67,22.6-8.69-7.56,32.24-37.06Z"/><path class="cls-1" d="m336.51,1404.5l8.73-2.46c1.34,5.36,3.38,9.6,7.3,12.67,4.22,3.3,7.76,2.87,9.83.23,2.54-3.24-.51-7.97-3.41-12.78-3.58-5.88-7.09-13.33-2.04-19.78,5.25-6.71,14.47-7.32,23.13-.54,5.39,4.22,7.99,9.78,9.22,14.69l-8.52,2.32c-1.15-4.1-2.79-7.62-5.83-10-3.89-3.05-7.19-2.63-9.08-.21-2.39,3.06.6,7.28,3.58,12.1,3.7,6.05,7.58,13.15,1.94,20.36-5.2,6.65-14.65,7.88-24.42.24-5.29-4.14-9.09-10.77-10.43-16.85Z"/><path class="cls-1" d="m399.15,1397.75l9.38,6.69-28.54,39.98-9.38-6.69,28.54-39.98Zm7.71-13.07c2.25-3.16,6.26-3.54,9.58-1.17,3.32,2.37,4.26,6.29,2.01,9.44-2.21,3.09-6.26,3.54-9.58,1.17-3.32-2.37-4.21-6.35-2.01-9.44Z"/><path class="cls-1" d="m401.88,1439.42l12.83-19.57-5.85-3.84,4.74-7.23,6.64,3.73,8.48-10.46,8,5.24-7.35,11.21,10.47,6.86-5.02,7.66-10.47-6.86-12.82,19.55c-3.17,4.83-2.85,8.44,1.09,11.03,1.41.92,3.38,1.55,4.9,1.87l-3.01,8.17c-2.72-.73-6.09-1.84-9.38-4-9.47-6.21-9.05-14.5-3.24-23.36Z"/><path class="cls-1" d="m409.22,1486.86l6.3-6.66c.67.71,1.7,1.77,2.71,2.35,4.47,2.58,8.83,1.04,12.71-2.4l2.34-2.21,7.57-51.68,10.11,5.85-4.72,25.09c-.9,4.52-2.11,9.41-3.21,14.18l.35.2c3.36-3.33,6.85-6.9,10.21-10.13l18.4-17.18,9.63,5.57-41.09,35.57c-9.07,7.53-16.97,10.88-26.25,5.52-2.32-1.34-3.78-2.65-5.04-4.07Z"/><path class="cls-1" d="m481.79,1495.78l9.47-4.4c2.39,6.01,6.84,11.36,12.36,13.9,6.69,3.08,11.75,1.73,13.89-2.9,2.25-4.89-.86-8.21-5.21-12.99l-6.5-7.26c-4.73-5.13-8.75-12.6-4.76-21.28,4.36-9.46,16.07-12.9,27.66-7.57,6.94,3.2,12.34,9.16,14.82,16.01l-8.49,4.19c-2.3-4.96-5.46-8.7-10.55-11.04-5.63-2.59-10.51-1.65-12.51,2.69-2.15,4.67,1.58,8.48,5.57,12.76l6.46,7.05c5.71,6.2,8.6,12.94,4.63,21.55-4.43,9.63-16.12,13.98-29.46,7.84-8.03-3.7-14.31-10.42-17.39-18.56Z"/><path class="cls-1" d="m538.88,1512.2l8.5-21.8-6.52-2.54,3.14-8.05,7.27,2.28,6.14-11.99,8.91,3.47-4.87,12.48,11.66,4.55-3.33,8.54-11.67-4.55-8.49,21.78c-2.1,5.38-1.04,8.84,3.35,10.56,1.57.61,3.63.82,5.18.82l-1.25,8.61c-2.82-.15-6.34-.54-10.01-1.97-10.55-4.11-11.86-12.31-8.01-22.19Z"/><path class="cls-1" d="m570.05,1522.37l9.43-29.32,10.97,3.53-8.98,27.91c-2.47,7.69-1.2,11.3,3.87,12.93,4.11,1.32,7.43.29,12.44-3.14l10.3-32.03,10.97,3.53-15.04,46.76-8.99-2.89,1.38-7.16-.3-.1c-5.68,3.55-11.23,5.25-17.63,3.2-10.01-3.22-12.21-11.41-8.42-23.21Z"/><path class="cls-1" d="m621.51,1532.15c3.75-15.55,15.81-22.73,26.27-20.21,5.41,1.3,8.34,4.15,11.26,8.27l1.43-7.8,4.17-17.3,11.2,2.7-16.56,68.67-9.18-2.21.39-5.38-.31-.07c-4.39,2.69-9.97,4.3-15.1,3.07-11.9-2.87-17.37-13.98-13.57-29.73Zm29.81,18.17l5.36-22.24c-2.56-3.7-5.54-5.53-8.77-6.31-6.07-1.46-12.47,3.08-14.87,13.04-2.5,10.38.14,16.82,7.02,18.48,3.69.89,7.2,0,11.25-2.97Z"/><path class="cls-1" d="m674.98,1544.68c2.63-15.74,15.18-23.62,26.58-21.72,13.1,2.19,18.42,12.81,16.16,26.34-.36,2.17-.96,4.3-1.42,5.44l-30.75-5.14c-.49,8.76,4.22,14.57,12.03,15.88,4.14.69,7.91-.02,11.83-1.63l2.69,7.71c-5.14,2.35-11.33,3.5-17.49,2.47-13.38-2.23-22.3-13.38-19.63-29.36Zm33.29.78c1.25-7.46-1.31-12.55-7.94-13.65-5.64-.94-11.32,2.45-13.6,10.06l21.54,3.6Z"/><path class="cls-1" d="m729.34,1528.5l9.4.9.24,6.69.32.03c4.79-3.84,10.1-6.91,16.79-6.27,10.47,1,14.38,8.52,13.2,20.87l-2.93,30.66-11.47-1.09,2.79-29.19c.77-8.04-1.25-11.29-6.55-11.8-4.3-.41-7.33,1.43-11.73,5.03l-3.26,34.17-11.47-1.09,4.67-48.9Z"/><path class="cls-1" d="m782.79,1565.49l.83-23.38-7-.25.31-8.63,7.61-.25,1.83-13.34,9.55.34-.47,13.39,12.51.44-.32,9.15-12.51-.44-.83,23.36c-.21,5.78,1.93,8.69,6.65,8.86,1.68.06,3.7-.43,5.16-.94l1.66,8.54c-2.71.79-6.16,1.58-10.1,1.44-11.31-.4-15.26-7.7-14.88-18.3Z"/><path class="cls-1" d="m832.79,1517.73l11.9-.65,22.28,35.61,7.51,13.57.4-.02c-.93-6.72-2.29-14.94-2.69-22.21l-1.54-28.36,11.02-.6,3.54,65.3-11.9.65-22.28-35.67-7.5-13.51-.4.02c.93,6.88,2.28,14.7,2.67,21.97l1.55,28.6-11.02.6-3.54-65.3Z"/><path class="cls-1" d="m895.09,1554.74c-2.08-15.82,7.62-27.03,19.08-28.53,13.17-1.73,21.36,6.87,23.15,20.48.29,2.18.34,4.39.23,5.62l-30.92,4.07c2.09,8.52,8.29,12.71,16.14,11.67,4.16-.55,7.56-2.33,10.84-5.02l4.82,6.59c-4.23,3.74-9.82,6.66-16,7.47-13.44,1.77-25.24-6.28-27.35-22.34Zm32.06-8.98c-.99-7.5-4.92-11.62-11.58-10.74-5.67.75-10.11,5.65-10.07,13.59l21.65-2.85Z"/><path class="cls-1" d="m950.16,1554.83l-4.36-22.99-6.88,1.31-1.61-8.49,7.37-1.93-1.16-13.42,9.39-1.78,2.5,13.17,12.3-2.33,1.71,9-12.3,2.33,4.36,22.97c1.08,5.68,3.81,8.05,8.45,7.17,1.65-.31,3.51-1.24,4.82-2.06l3.51,7.97c-2.47,1.36-5.66,2.91-9.53,3.64-11.12,2.11-16.58-4.14-18.56-14.56Z"/><path class="cls-1" d="m988.8,1496.65l11.23-2.91,16.39,63.32-11.23,2.91-16.39-63.32Z"/><path class="cls-1" d="m1016.42,1506.38l8.99-2.87,2.85,6.06.31-.1c2.89-5.41,6.58-10.32,12.98-12.36,10.02-3.19,16.57,2.19,20.33,14.01l9.35,29.34-10.98,3.5-8.9-27.93c-2.45-7.7-5.59-9.89-10.66-8.28-4.12,1.31-6.18,4.19-8.81,9.23l10.42,32.7-10.98,3.5-14.92-46.8Z"/><path class="cls-1" d="m1062.64,1491.75l6.54-3.06,19.16-7.35,3.28,8.55-25.88,9.93-3.09-8.07Zm4.16-7.59c-3.65-9.5-1.95-18.15,8.88-22.3,3.32-1.28,6.65-1.65,9.02-1.62l1.03,8.82c-1.92-.08-3.81.22-5.38.82-3.81,1.46-4.9,4.64-2.86,9.97l19.48,50.79-10.76,4.13-19.41-50.61Z"/><path class="cls-1" d="m1100.84,1503.04c-6.72-14.92-.46-28.09,10.7-33.11,11.16-5.03,25.17-.99,31.89,13.93,6.68,14.84.42,28.02-10.74,33.04-11.16,5.03-25.17.99-31.86-13.86Zm31.8-14.32c-4.04-8.97-10.67-13.18-17.24-10.22-6.56,2.96-7.81,10.71-3.77,19.68,4.04,8.97,10.64,13.11,17.2,10.15,6.56-2.96,7.84-10.64,3.8-19.61Z"/><path class="cls-1" d="m1140.8,1457.38l8.36-4.39,4.85,7.34.28-.15c.12-7.29,3.07-12.86,7.72-15.31,2.21-1.16,3.76-1.62,5.39-1.7l2.88,9.78c-1.75.38-3.03.69-4.83,1.64-3.47,1.82-6.4,6.39-5.54,14.39l13.94,26.52-10.2,5.36-22.85-43.48Z"/><path class="cls-1" d="m1171.36,1441.86l7.97-5.05,4.33,5.19.27-.17c1.19-5.89,3.31-11.45,8.51-14.74,6.08-3.85,11.3-3.28,16.16.18,1.29-6.74,3.37-12.55,8.64-15.89,8.75-5.54,16.62-2.1,23.25,8.38l16.48,26.02-9.73,6.16-15.69-24.77c-4.32-6.83-7.98-8.11-12.34-5.35-2.63,1.67-4.4,5.16-5.41,10.67l18.37,28.99-9.73,6.17-15.69-24.77c-4.32-6.83-7.98-8.11-12.34-5.35-2.57,1.63-4.4,5.16-5.41,10.67l18.37,28.99-9.73,6.17-26.29-41.49Z"/><path class="cls-1" d="m1259.02,1427.47c-6.41-8.34-2.83-18,11.84-31.99-3.34-4.09-7.7-6.29-12.97-2.24-3.87,2.97-6.18,7.52-8,12.24l-8.04-3.51c2.21-5.99,5.88-12.64,12.06-17.39,9.74-7.48,19.13-5.16,27.47,5.68l17.71,23.06-7.49,5.75-4.01-3.78-.25.2c-1.2,5.66-3.44,11.02-8.04,14.55-6.82,5.24-15.07,4.21-20.29-2.57Zm22.93-17.56l-6.72-8.75c-9.54,9.45-10.94,14.91-7.92,18.84,2.64,3.44,6.15,3.15,9.42.64,3.17-2.44,4.39-5.84,5.23-10.72Z"/><path class="cls-1" d="m1300.07,1390.8l-15.29-17.72-5.3,4.57-5.65-6.54,5.42-5.36-7.73-11.03,7.24-6.25,8.75,10.15,9.48-8.18,5.99,6.94-9.48,8.18,15.28,17.7c3.78,4.38,7.33,5.06,10.9,1.98,1.27-1.1,2.42-2.83,3.14-4.19l7.02,5.14c-1.45,2.42-3.44,5.35-6.42,7.92-8.57,7.4-16.43,4.72-23.36-3.31Z"/><path class="cls-1" d="m1291.21,1335.12c-2.65-2.83-2.23-6.84.75-9.62s7-2.93,9.65-.1c2.59,2.78,2.23,6.84-.75,9.62-2.98,2.79-7.06,2.87-9.65.1Zm11.29,10.15l8.42-7.86,33.53,35.89-8.42,7.86-33.53-35.89Z"/><path class="cls-1" d="m1335.06,1348.79c-11.78-11.35-10.86-25.91-2.36-34.72s23.01-10.27,34.79,1.09c11.72,11.3,10.8,25.85,2.3,34.67s-23.01,10.27-34.73-1.03Zm24.21-25.11c-7.08-6.83-14.8-8.27-19.8-3.09-5,5.18-3.27,12.85,3.81,19.67,7.08,6.83,14.75,8.22,19.74,3.03,5-5.18,3.33-12.79-3.75-19.62Z"/><path class="cls-1" d="m1355.32,1291.74l6.04-7.26,5.67,3.57.21-.25c-.47-6.12-.01-12.24,4.29-17.41,6.73-8.08,15.15-7.07,24.68.87l23.67,19.71-7.37,8.85-22.53-18.76c-6.21-5.17-10.03-5.33-13.44-1.24-2.76,3.32-2.95,6.86-2.46,12.52l26.38,21.96-7.37,8.85-37.75-31.43Z"/><path class="cls-1" d="m1393.47,1216.27l7.64-11.25,66.08,19.1-6.9,10.16-34.39-11.31c-6.89-2.17-14.14-4.77-21.16-7.21l-.22.33c4.98,5.56,10.02,11.3,14.58,16.91l23.15,27.85-6.65,9.79-42.13-54.37Zm27.02,28.88l17.3-25.48,7.53,5.11-17.3,25.48-7.53-5.11Z"/><path class="cls-1" d="m1463.39,1219.02l-3.59-8.33c5.14-2.04,9.07-4.62,11.6-8.91,2.72-4.62,1.82-8.07-1.08-9.77-3.55-2.09-7.83,1.57-12.21,5.07-5.35,4.33-12.27,8.8-19.34,4.64-7.35-4.32-9.17-13.37-3.6-22.85,3.47-5.9,8.64-9.21,13.34-11.09l3.43,8.14c-3.92,1.69-7.19,3.78-9.14,7.11-2.5,4.26-1.65,7.47,1,9.03,3.34,1.97,7.13-1.56,11.52-5.15,5.5-4.47,12.03-9.26,19.93-4.62,7.28,4.28,9.75,13.48,3.47,24.17-3.41,5.79-9.48,10.44-15.32,12.57Z"/><path class="cls-1" d="m1484.89,1182.21l-4.06-8.12c5.02-2.32,8.8-5.12,11.08-9.55,2.45-4.77,1.36-8.16-1.62-9.7-3.66-1.88-7.73,2-11.91,5.75-5.1,4.62-11.76,9.47-19.05,5.72-7.58-3.9-9.91-12.83-4.88-22.62,3.13-6.08,8.11-9.68,12.69-11.82l3.88,7.93c-3.81,1.91-6.96,4.18-8.73,7.61-2.26,4.39-1.23,7.55,1.51,8.96,3.45,1.78,7.04-1.96,11.21-5.79,5.24-4.77,11.49-9.92,19.64-5.73,7.5,3.86,10.5,12.91,4.82,23.94-3.07,5.98-8.87,10.95-14.59,13.41Z"/><path class="cls-1" d="m1487.93,1134.96c-15-6.53-19.22-20.49-14.33-31.71s17.98-17.65,32.98-11.12c14.93,6.5,19.15,20.46,14.26,31.68-4.88,11.22-17.98,17.65-32.9,11.16Zm13.92-31.98c-9.02-3.93-16.76-2.58-19.63,4.02s1.42,13.18,10.44,17.11c9.02,3.93,16.69,2.55,19.56-4.05s-1.34-13.15-10.37-17.07Z"/><path class="cls-1" d="m1508.95,1085.7c-15.41-5.51-20.4-19.57-16-31.89,2.1-5.88,5.9-9.36,10.03-11.66l5.16,7.79c-3.02,1.68-5.1,3.57-6.14,6.47-2.67,7.46,1.67,14.83,10.93,18.14s17.18.41,19.76-6.79c1.29-3.62.71-7.56-.57-10.99l8.73-1.85c2.29,5.71,2.17,11.86.29,17.14-4.51,12.62-16.86,19.12-32.19,13.64Z"/><path class="cls-1" d="m1486.15,1030.21c-3.71-1.13-5.35-4.81-4.16-8.71s4.6-6.04,8.32-4.91c3.63,1.11,5.35,4.81,4.16,8.71s-4.68,6.01-8.32,4.91Zm14.85,3.15l3.36-11.02,46.98,14.35-3.36,11.02-46.98-14.35Z"/><path class="cls-1" d="m1542.04,1022.33c-10.21-2.56-13.4-12.35-10.6-32.43-5.16-1.13-9.94-.14-11.56,6.3-1.19,4.73-.17,9.73,1.34,14.56l-8.48,2.25c-1.99-6.06-3.24-13.55-1.35-21.12,2.98-11.91,11.79-15.93,25.06-12.61l28.21,7.07-2.29,9.16-5.49-.47-.08.31c2.58,5.18,4.15,10.77,2.74,16.4-2.09,8.34-9.19,12.67-17.5,10.58Zm7.06-28l-10.71-2.68c-1.61,13.33.69,18.48,5.5,19.69,4.21,1.06,6.77-1.35,7.77-5.35.97-3.88-.19-7.3-2.56-11.65Z"/><path class="cls-1" d="m1551.43,968.09l-22.99-4.37-1.31,6.88-8.49-1.61.91-7.56-12.91-3.84,1.79-9.39,13.16,2.5,2.34-12.3,9,1.71-2.34,12.3,22.97,4.37c5.68,1.08,8.89-.59,9.77-5.23.31-1.65.14-3.72-.14-5.24l8.7-.34c.36,2.8.63,6.33-.11,10.2-2.11,11.12-9.93,13.91-20.34,11.93Z"/><path class="cls-1" d="m1509.86,929.99c-3.84-.57-6-3.97-5.4-8,.6-4.04,3.66-6.65,7.5-6.08,3.76.56,6,3.97,5.4,8-.6,4.04-3.74,6.64-7.5,6.08Zm15.15.93l1.7-11.39,48.58,7.25-1.7,11.39-48.58-7.25Z"/><path class="cls-1" d="m1552.7,913.41c-16.29-1.56-24.62-13.53-23.46-25.71,1.17-12.18,11.62-22.35,27.91-20.79,16.21,1.55,24.54,13.52,23.38,25.71-1.17,12.18-11.62,22.35-27.83,20.8Zm3.33-34.72c-9.8-.94-16.74,2.74-17.42,9.9-.69,7.17,5.43,12.09,15.23,13.03,9.79.94,16.66-2.74,17.34-9.91.69-7.17-5.35-12.09-15.15-13.02Z"/><path class="cls-1" d="m1533.06,856.14l.22-9.44,6.66-.73v-.32c-4.17-4.5-7.62-9.58-7.46-16.3.24-10.52,7.46-14.95,19.86-14.67l30.79.71-.26,11.52-29.31-.67c-8.08-.19-11.17,2.06-11.29,7.38-.1,4.32,1.96,7.21,5.86,11.34l34.31.79-.26,11.52-49.11-1.12Z"/><path class="cls-1" d="m192.74,382.06c-2.1-2.03-3.87-3.66-5.3-4.89-1.43-1.23-2.69-2.19-3.77-2.89-1.08-.69-2.04-1.16-2.89-1.41-.85-.24-1.74-.4-2.67-.46-2.66-.08-4.01-.84-4.04-2.27-.04-1.43,1.37-2.87,4.21-4.31,2.3-1.23,4.14-2.13,5.5-2.7,1.36-.57,2.46-.83,3.31-.78.84.05,1.51.38,2,1.01.49.63,1.02,1.52,1.58,2.69.56,1.16,1.24,2.36,2.04,3.59.8,1.23,1.95,2.75,3.43,4.54.46-1.23.96-2.52,1.49-3.86.53-1.33,1.13-2.84,1.8-4.52.67-1.68,1.32-3.12,1.96-4.33.64-1.21,1.33-2.24,2.06-3.1.73-.85,1.59-1.57,2.58-2.16.98-.58,2.12-1.11,3.42-1.58,1.47-.44,2.64-.63,3.52-.56.88.07,1.41.46,1.6,1.17.19.71-.08,1.77-.8,3.17-.72,1.4-1.97,3.18-3.76,5.35-.86.96-2.17,2.83-3.93,5.6-1.76,2.77-3.77,6-6.02,9.7.81.94,1.69,1.96,2.63,3.05.95,1.09,2,2.28,3.16,3.56,2.83-.87,4.71-.84,5.62.08.92.92.56,2.86-1.08,5.81-1.23,2.07-2.3,3.98-3.21,5.73-.91,1.75-2.04,3.96-3.39,6.62,1.59,1.78,2.21,3.1,1.86,3.97-.36.87-1.49,1.28-3.4,1.23-.47-.03-.97-.11-1.51-.24-.54-.13-1.3-.43-2.28-.92-.98-.48-2.34-1.15-4.08-2.01-1.74-.86-4.05-2.08-6.93-3.68-1.68,3.99-3.05,7.11-4.1,9.34-1.05,2.24-2,3.97-2.84,5.18-.84,1.22-1.68,2.1-2.54,2.63-.85.53-1.97,1.1-3.35,1.7-4,1.72-4.82.86-2.46-2.57.54-.79,1.13-1.65,1.77-2.57.63-.92,1.37-2.09,2.2-3.51.83-1.42,1.83-3.11,2.99-5.08,1.16-1.97,2.56-4.43,4.2-7.38-3-1.57-5.51-2.58-7.54-3.01-2.04-.43-4.04-.4-6.03.08-2.65.61-4.18.4-4.6-.62-.42-1.02.69-2.8,3.33-5.36,1.71-1.64,3.09-2.9,4.13-3.78,1.04-.88,1.91-1.43,2.59-1.64.68-.21,1.28-.14,1.81.23.53.36,1.12.92,1.77,1.66,1.22,1.33,3.95,3.3,8.17,5.91,1.19-2.29,2.25-4.33,3.19-6.11.94-1.78,1.82-3.56,2.64-5.32Zm11.82,47.17c-.96,3.51-1.93,6.23-2.9,8.13-.97,1.91-2.29,3.3-3.97,4.18-1.52.8-2.52.98-3,.55-.48-.43-.4-1.39.24-2.89.5-1.01,1.01-2.24,1.52-3.69.51-1.44.96-2.95,1.37-4.52.17-.66.45-1.32.84-1.97.4-.65,1.03-1.45,1.88-2.42-1.61-.91-3.06-1.62-4.36-2.13-1.3-.51-2.52-.71-3.65-.62-2.62.14-3.93-.42-3.94-1.69,0-1.26,1.59-2.74,4.79-4.42,2.73-1.42,4.68-2.07,5.85-1.94,1.17.13,2.1.76,2.77,1.9.11.27.47.69,1.1,1.26.62.58,1.34,1.16,2.14,1.76.8.6,1.6,1.17,2.39,1.72.79.54,1.38.95,1.78,1.22,3.83,2.34,6.5,4.06,8.03,5.16,1.53,1.1,2.55,1.97,3.07,2.63.76,1.01,1.22,1.93,1.37,2.77s-.03,1.49-.54,1.96c-.52.47-1.36.64-2.54.51-1.17-.13-2.69-.68-4.54-1.66.17,3.42.35,5.77.53,7.06.18,1.29.39,2.26.62,2.91.42,1.36.39,2.43-.1,3.21-.49.78-2.07,1.71-4.75,2.78-2.14.86-3.51.94-4.1.24-.59-.7-.33-1.98.76-3.85.5-1.01,1.09-2.75,1.76-5.2s1.24-5.51,1.72-9.16c-1.08-.55-2.14-1.16-3.18-1.83-1.04-.67-2.03-1.32-2.95-1.96Zm-4.88-27.83c.98-1.85,1.71-3.36,2.18-4.54.47-1.18.75-2.15.84-2.92.09-.76-.02-1.42-.32-1.97-.3-.55-.77-1.14-1.41-1.77-.85-.88-1.67-1.71-2.44-2.48-.78-.78-1.55-1.52-2.31-2.25-1.05,1.81-2.04,3.57-2.99,5.3-.95,1.73-1.84,3.42-2.69,5.07,1.36.84,2.81,1.74,4.34,2.69,1.53.96,3.13,1.91,4.8,2.87Zm10.61,9.78c2.48-4.02,3.86-7.44,4.15-10.26.2-1.7.63-2.99,1.27-3.86.65-.87,2.1-1.68,4.38-2.45,2.92-1,4.76-1.34,5.51-1.02.75.32,1.2,1.36,1.35,3.12.1.85.3,1.71.61,2.61.31.89.94,2.2,1.89,3.92,2.71-.27,4.44-.03,5.18.73.74.76.62,2.06-.36,3.91-.85,1.65-1.84,3.52-2.98,5.6-1.14,2.08-2.44,4.32-3.89,6.72,1.11,1.64,1.38,2.79.81,3.47-.52.62-1.37.86-2.54.73-1.17-.13-2.53-.62-4.07-1.49-2.44-1.39-4.85-2.51-7.22-3.37-2.37-.85-4.37-1.31-5.99-1.35-2.02-.03-3.03-.6-3.04-1.73,0-1.12,1.64-2.88,4.94-5.27Zm18.04-26.63c.73-5.71.51-9.21-.64-10.49-1.44-1.57-1.78-2.85-1.01-3.83.77-.98,3.33-1.95,7.7-2.93,1.42-.38,2.32-.23,2.67.46.36.68.06,1.86-.9,3.53-.21.44-.43.94-.67,1.5-.24.56-.54,1.38-.88,2.45-.35,1.07-.79,2.52-1.31,4.34s-1.23,4.23-2.12,7.21c3.4,2.54,5.94,3.65,7.61,3.34s3.33-2.08,4.97-5.32c.46-.95.78-1.77.97-2.47.19-.7.21-1.36.06-2-.15-.63-.43-1.29-.84-1.96-.41-.67-1.02-1.48-1.83-2.42-2.33-2.67-3.24-4.32-2.72-4.93.52-.61,2.01-.17,4.47,1.33,1.8,1.05,3.11,1.73,3.91,2.04.8.31,1.75.45,2.84.42,1.55,0,2.63.59,3.22,1.78.59,1.19.26,3.33-1.01,6.44-2.88,6.86-6.16,11.2-9.85,13.04-3.69,1.83-7.43,1.35-11.23-1.46-5.13-3.83-9.1-6.6-11.89-8.33-2.79-1.73-4.5-2.56-5.12-2.51-2.97.09-4.6-.44-4.87-1.6-.27-1.16,1.21-2.67,4.43-4.53,1.41-.78,2.53-1.34,3.35-1.7.83-.35,1.51-.49,2.04-.42.53.07.98.34,1.35.79.37.45.82,1.14,1.33,2.08.5.83,1.28,1.78,2.34,2.85,1.06,1.07,2.27,2.17,3.63,3.3Zm-4.31,32.72c.74-1.63,1.31-2.96,1.72-3.99.42-1.03.69-1.85.84-2.48s.14-1.12-.01-1.46c-.15-.34-.38-.72-.68-1.13-.81-.94-1.59-1.78-2.36-2.5-.76-.72-1.5-1.42-2.2-2.1-.81-.65-1.55-.71-2.23-.15-.67.56-1.47,1.93-2.39,4.11-.23.62-.53,1.26-.89,1.93-.37.67-.76,1.39-1.2,2.16,2.53,1.55,4.49,2.75,5.89,3.62,1.4.87,2.57,1.53,3.51,1.98Zm-1.55,30.4c1.24.46,2.47,1.17,3.71,2.12,1.24.95,2.42,2.1,3.53,3.45,1.11,1.35,2.08,2.87,2.91,4.55.83,1.69,1.47,3.47,1.94,5.34.66,2.98.41,5.04-.76,6.18-1.17,1.14-3.05,1.11-5.62-.08-.95-.46-1.77-1.17-2.46-2.13-.7-.96-1.37-2.88-2.01-5.75-.17-.6-.41-1.35-.72-2.24-.31-.89-.66-1.79-1.06-2.7-.4-.9-.8-1.76-1.21-2.58-.41-.81-.78-1.48-1.1-2-1.39-2.22-1.83-3.66-1.32-4.33.51-.67,1.9-.61,4.17.18Zm23.84-16.22c1.91,1.31,2.75,2.7,2.54,4.15-.22,1.45-1.49,2.45-3.81,2.99-.78.14-1.76.27-2.95.37-1.19.11-2.42.16-3.68.16-1.27,0-2.52,0-3.76-.04-1.24-.03-2.28-.14-3.12-.33-2.66-.37-4.07-.93-4.24-1.68-.17-.74.79-1.86,2.88-3.34,2.04-1.41,3.78-2.5,5.22-3.25,1.44-.75,2.75-1.21,3.93-1.37,1.18-.16,2.31-.04,3.39.37,1.08.4,2.28,1.06,3.6,1.97Zm12.09-20.52c2.06,1.81,2.93,3.4,2.61,4.78-.32,1.38-1.58,2.33-3.79,2.86-.6.17-1.46.33-2.59.48-1.12.15-2.33.29-3.63.41-1.3.12-2.61.19-3.93.21-1.32.01-2.48-.03-3.48-.13-2.81-.28-4.3-.8-4.47-1.55-.17-.74.96-2.03,3.39-3.86,2.07-1.59,3.87-2.8,5.41-3.63,1.54-.83,2.93-1.36,4.15-1.59,1.22-.22,2.33-.14,3.32.25.99.39,1.99.98,3,1.78Zm23.69-24.05c2.31,1.59,3.22,3.26,2.74,5.02-.48,1.76-2.56,2.97-6.23,3.65-.89.16-2.15.37-3.77.61-1.62.24-3.42.49-5.39.74-1.97.25-4.04.5-6.2.76-2.17.26-4.18.47-6.05.64-3.62.33-5.55.16-5.78-.49-.23-.65.98-1.99,3.65-4.04,3.53-2.72,6.64-4.78,9.35-6.17,2.71-1.39,5.13-2.3,7.26-2.72s4.06-.43,5.78-.03c1.71.4,3.26,1.08,4.65,2.03Z"/><path class="cls-1" d="m301.23,330.3c-6.23-5.98-11.55-11.07-15.97-15.25-4.41-4.18-8.17-7.69-11.29-10.51s-5.68-5.06-7.69-6.72c-2.01-1.66-3.72-2.91-5.13-3.76-1.4-.85-2.62-1.43-3.64-1.75-1.02-.32-2.11-.58-3.24-.78-2.84-.4-4.16-1.33-3.96-2.81.2-1.47,2.56-3.36,7.1-5.66,2.35-1.18,4.3-2.02,5.85-2.54,1.55-.51,2.83-.75,3.85-.71,1.02.04,1.82.36,2.4.97.58.61,1.08,1.45,1.49,2.52.3.84.67,1.67,1.11,2.48.44.81,1.1,1.8,1.97,2.97.87,1.17,2.07,2.6,3.61,4.3,1.53,1.7,3.57,3.88,6.12,6.54,2.54,2.67,5.69,5.91,9.45,9.74,3.75,3.83,8.29,8.41,13.6,13.73,2.81-3.62,5.71-7.36,8.69-11.21,2.98-3.85,5.76-7.41,8.36-10.69-1.69-2.29-3.43-4.46-5.22-6.51-1.79-2.06-3.53-3.86-5.2-5.41-1.67-1.55-3.21-2.81-4.62-3.77-1.41-.96-2.59-1.52-3.56-1.67-3.35-.55-4.91-1.64-4.69-3.26.22-1.62,2.67-3.18,7.33-4.69,2.42-.78,4.34-1.32,5.78-1.6,1.44-.28,2.57-.33,3.39-.15.82.18,1.4.65,1.73,1.41.33.76.62,1.76.87,3,.31,1.18,1.46,3.13,3.47,5.83,2.01,2.7,5.18,6.47,9.52,11.31,1.68,1.83,3.08,3.46,4.21,4.88s2.09,2.79,2.88,4.1c.79,1.32,1.47,2.63,2.03,3.95.56,1.32,1.14,2.82,1.75,4.51,1.26,3.54,1.41,5.66.47,6.36-.95.7-3.37-.04-7.26-2.23-2.12-1.14-5.36-4.98-9.74-11.52-3.91,5.23-7.59,10.24-11.03,15.03-3.44,4.79-6.56,9.34-9.36,13.64-2.14,3.27-3.85,5.98-5.14,8.12-1.29,2.15-2.32,4.01-3.11,5.58-.79,1.57-1.38,2.97-1.78,4.19-.4,1.23-.75,2.52-1.07,3.88-.36,1.76-.7,3.13-1.02,4.09-.32.97-.76,1.66-1.32,2.06-.56.41-1.32.62-2.28.64-.96.02-2.26-.04-3.91-.18-2.95-.28-4.74-.75-5.38-1.42-.64-.66-.55-1.88.27-3.65.27-.63.4-1.25.39-1.88-.01-.62-.3-1.34-.85-2.15-.55-.81-1.42-1.75-2.6-2.83-1.18-1.08-2.78-2.42-4.79-4.02-1.44-1.16-3.21-2.2-5.33-3.12-2.11-.92-4.22-1.44-6.31-1.57-2.89-.11-4.4-.73-4.54-1.86-.14-1.13,1.58-2.8,5.16-5.03,1.96-1.23,3.54-2.15,4.74-2.77,1.2-.62,2.26-.96,3.16-1.04.9-.07,1.69.15,2.35.67.66.52,1.37,1.26,2.12,2.21.58.78,1.21,1.55,1.87,2.3.67.75,1.46,1.63,2.39,2.62.93,1,2.07,2.18,3.42,3.54,1.36,1.36,3.1,3.06,5.24,5.11,1.93-2.7,4-5.58,6.23-8.66,2.23-3.07,4.45-6.04,6.65-8.92Z"/><path class="cls-1" d="m368.18,233.98c-1.62,1.71-3.12,3.37-4.53,4.97-1.4,1.6-2.68,3.09-3.85,4.46-1.19,1.49-2.23,2.7-3.13,3.62-.9.93-1.74,1.68-2.51,2.26-.77.58-1.57,1-2.41,1.28-.84.28-1.81.48-2.92.61-2.8.4-4.34.28-4.62-.36-.28-.64.7-2,2.94-4.08,2.37-2.17,5.15-4.86,8.35-8.06,3.2-3.2,6.39-6.49,9.55-9.86-2.7-4.27-5.07-7.87-7.11-10.79-2.04-2.92-3.86-5.28-5.46-7.08-1.6-1.8-3.01-3.14-4.22-4.03-1.22-.89-2.4-1.5-3.55-1.84-2.08-.64-3.61-1.24-4.58-1.81-.98-.57-1.34-1.19-1.1-1.87.24-.68,1.15-1.46,2.74-2.35,1.58-.89,3.91-1.88,6.99-2.99,2.11-.78,3.78-1.33,4.99-1.64,1.21-.31,2.18-.36,2.89-.14.71.22,1.24.75,1.57,1.6.34.85.68,2.04,1.03,3.58.21.95,1.28,3.24,3.21,6.89,1.93,3.65,4.9,8.87,8.9,15.67,2.5-2.67,4.67-5.1,6.53-7.29,1.86-2.19,3.18-3.83,3.96-4.92,2.75-4.06,5.2-6.87,7.33-8.42,2.14-1.55,4.42-2.44,6.85-2.66,4.06-.45,6.33,0,6.79,1.36.46,1.35-1.34,3.65-5.4,6.9-3.68,2.96-7.5,6.2-11.46,9.72-3.96,3.52-7.75,7.14-11.37,10.85.45.87.92,1.69,1.4,2.47.49.78.93,1.58,1.33,2.38,5.57,1.43,10.56,2.58,14.98,3.47,4.42.89,8.45,1.57,12.09,2.03,3.65.47,7.06.68,10.24.65,3.18-.03,6.3-.27,9.36-.72,3.06-.45,6.22-1.11,9.46-1.99,3.24-.88,6.78-1.96,10.62-3.24,6.9-2.27,7.98-1.09,3.26,3.55-2,2-3.77,3.7-5.32,5.11-1.55,1.41-2.9,2.63-4.08,3.66-1.18,1.03-2.28,1.93-3.3,2.7-1.03.77-2.04,1.48-3.05,2.14-1.58,1.09-2.93,1.92-4.04,2.51-1.11.58-2.18.96-3.2,1.13-1.02.17-2.13.12-3.32-.13-1.19-.26-2.69-.66-4.5-1.2-5.7-1.73-11.46-3.68-17.29-5.86-5.83-2.18-12.13-4.58-18.9-7.2,4.33,10.45,5.67,20.04,4.03,28.78-1.65,8.74-6.16,17.26-13.52,25.58-2.24,2.48-3.67,3.48-4.29,2.99-.62-.49-.08-2.21,1.6-5.17,2.64-4.48,4.69-9.01,6.15-13.61,1.46-4.59,2.24-9.25,2.34-13.98.1-4.73-.53-9.55-1.92-14.46-1.38-4.91-3.56-9.95-6.54-15.12Z"/><path class="cls-1" d="m451.95,145.47c.94,2.67.88,4.55-.17,5.64s-2.68,1.17-4.88.24c-1.3-.59-2.79-1.5-4.47-2.74-1.68-1.24-3.8-3-6.34-5.29-1.67-1.47-2.37-2.55-2.09-3.24.27-.68,1.55-1.08,3.84-1.19,3.93-.24,7.09.28,9.47,1.56,2.38,1.29,3.93,2.96,4.65,5.02Zm22.43-3.43c.26-6.09-.04-11.3-.9-15.63-.86-4.33-1.94-7.06-3.25-8.19-2.07-1.72-2.67-3.14-1.82-4.26.86-1.12,3.35-1.54,7.47-1.25,2.26.18,4.03.38,5.32.61,1.29.23,2.22.54,2.78.92.56.38.78.9.67,1.55-.12.65-.38,1.44-.79,2.37-.52,1.08-.97,2.15-1.37,3.22-.39,1.06-.75,2.33-1.06,3.8-.32,1.47-.63,3.26-.93,5.36-.31,2.1-.68,4.8-1.13,8.1,1.91-1.35,3.55-2.53,4.93-3.52,1.38-.99,2.39-1.74,3.02-2.25,2.08-1.71,3.83-3.08,5.25-4.09,1.41-1.01,2.85-1.67,4.31-1.98,1.46-.31,3.12-.34,4.96-.08,1.85.26,4.23.75,7.14,1.49,3.63.91,5.64,2.05,6.04,3.42.4,1.37-.66,2.76-3.18,4.16-1.28.67-2.99,1.96-5.14,3.9-2.15,1.93-4.17,4.02-6.07,6.27-2.14,2.47-3.51,3.61-4.1,3.42-.59-.19-.74-1.98-.44-5.39.14-2.15.21-3.85.18-5.1-.02-1.25-.16-2.13-.42-2.62-.26-.5-.65-.72-1.17-.68-.52.05-1.19.23-2,.57-1.31.6-3.29,1.65-5.93,3.16-2.64,1.51-5.48,3.24-8.53,5.19-3.04,1.95-6.06,3.9-9.05,5.87-2.99,1.96-5.5,3.7-7.51,5.2-2.4,1.79-4.47,3.28-6.21,4.45-1.74,1.17-3.26,2.17-4.59,3s-2.51,1.51-3.54,2.04c-1.03.54-2.04.97-3.04,1.31.73,2.78,1.21,5.62,1.46,8.51.24,2.9.17,5.35-.23,7.36-.56,3.09-1.38,4.89-2.46,5.41-1.08.52-2.62,0-4.62-1.59-1.49-1.12-2.47-2.28-2.96-3.47-.48-1.19-.61-2.34-.38-3.46.57-2.37.9-4.84,1-7.42.1-2.58-.14-4.94-.71-7.07s-.36-3.42.63-3.85c1-.43,2.99.34,6,2.29,2.44-1.54,5.05-3.19,7.83-4.96,2.78-1.76,5.59-3.56,8.42-5.4,2.83-1.83,5.63-3.65,8.39-5.45,2.76-1.8,5.33-3.54,7.7-5.23Zm4.83,29.01c.57-2.19.97-3.93,1.2-5.23.23-1.29.45-2.85.67-4.68.12-1.33-.12-2.08-.71-2.27-.59-.19-1.47.16-2.64,1.04-2.97,2.27-6.38,5.58-10.25,9.94-1.02,1.16-2.2,2.01-3.55,2.53-1.35.52-3.21.68-5.57.47-2.83-.24-4.31-.69-4.42-1.35-.12-.66,1.13-1.67,3.76-3.04,2.13-1.11,4.21-2.35,6.24-3.73,2.04-1.37,3.93-2.72,5.68-4.04,1.75-1.32,3.27-2.56,4.55-3.73,1.29-1.17,2.14-2.13,2.56-2.89,1.01-1.7,2.12-2.77,3.33-3.22,1.21-.45,3.18-.3,5.91.44,2.41.64,4.27,1.23,5.58,1.76,1.31.53,2.16,1.07,2.52,1.6.37.53.35,1.15-.05,1.85-.4.71-1.13,1.51-2.19,2.42-.74.66-1.86,2.01-3.37,4.05-1.5,2.05-3.3,4.97-5.38,8.76.9.34,1.7.76,2.41,1.25.71.49,1.44,1.03,2.2,1.63,2.83-1.83,5.21-3.41,7.14-4.73,1.93-1.32,3.62-2.49,5.07-3.52,1.45-1.02,2.69-1.94,3.71-2.74,1.02-.8,2.01-1.59,2.97-2.36,1.69-1.42,3.2-2.57,4.51-3.43,1.31-.86,2.54-1.53,3.7-1.99,1.15-.47,2.29-.72,3.4-.75,1.11-.04,2.34.04,3.71.23,3.73.58,5.48,1.68,5.23,3.29-.24,1.61-3.28,3.49-9.11,5.62-2.21.79-5.6,2.4-10.2,4.84-4.59,2.44-10.12,5.61-16.56,9.51.73,1.06,1.53,2.25,2.39,3.56.86,1.31,1.72,2.65,2.56,4.01.85,1.36,1.67,2.69,2.48,3.98.81,1.29,1.49,2.47,2.04,3.54,1,1.92,1.83,3.69,2.5,5.33.67,1.63,1.17,3.25,1.5,4.83.33,1.59.51,3.23.54,4.93.03,1.7-.1,3.57-.39,5.62-.45,3.12-1.32,5-2.62,5.63-1.3.63-2.82.14-4.56-1.48-2.4-2.18-6.25-3.69-11.56-4.53-2.83-.42-4.28-1.07-4.33-1.94-.05-.88,1.46-1.66,4.52-2.36,1.6-.38,2.89-.76,3.87-1.14.98-.37,1.71-.78,2.21-1.22.49-.44.79-1,.88-1.68.09-.68.12-1.5.07-2.47-.33-2.54-1.28-5.58-2.86-9.13-1.58-3.55-3.72-7.24-6.44-11.06-3.43,2.24-7.19,4.85-11.28,7.83-4.08,2.99-8,6.08-11.74,9.29-1.77,1.46-3.41,2.45-4.94,2.98-1.53.53-3.33.7-5.41.52-6.09-.61-6.55-2.09-1.36-4.43,1.1-.48,4.41-2.48,9.94-5.99,5.52-3.51,12.75-8.22,21.67-14.13-1.17-1.2-2.5-2.03-4.01-2.51-1.26-.34-2.12-.77-2.57-1.3-.46-.53-.71-1.01-.75-1.44-.08-.5.4-1.04,1.45-1.63,1.05-.59,2.42-.97,4.14-1.14Zm-13.58-35.41c.16,1.18.06,2.2-.3,3.06s-.85,1.53-1.47,1.98c-.62.46-1.35.66-2.19.6-.84-.06-1.61-.4-2.3-1.04-.65-.56-1.26-1.08-1.82-1.55-.56-.47-1.16-1.02-1.8-1.63-.64-.62-1.38-1.35-2.24-2.22-.85-.86-1.92-1.91-3.19-3.14-3.67-3.59-2.9-5.21,2.33-4.87,4.76.32,8.04,1.25,9.84,2.79,1.8,1.55,2.84,3.55,3.13,6.01Z"/><path class="cls-1" d="m579.33,120.27c-2.08,1.1-4.04,2.19-5.88,3.25-1.84,1.07-3.54,2.06-5.08,2.99-1.6,1.03-2.98,1.84-4.13,2.42-1.15.59-2.19,1.03-3.1,1.33-.91.3-1.81.45-2.7.44-.88,0-1.87-.12-2.96-.36-2.78-.52-4.2-1.13-4.26-1.83-.06-.69,1.31-1.67,4.1-2.92,2.94-1.3,6.44-2.95,10.5-4.95,4.06-2,8.13-4.09,12.22-6.27-1.19-4.91-2.28-9.08-3.27-12.5-.99-3.42-1.96-6.24-2.89-8.46-.94-2.22-1.84-3.94-2.7-5.18-.87-1.23-1.79-2.19-2.77-2.88-1.76-1.27-3.02-2.34-3.76-3.19-.74-.85-.89-1.56-.44-2.13.45-.57,1.56-1.02,3.35-1.35,1.79-.33,4.31-.53,7.57-.58,2.25-.06,4-.05,5.26.05,1.25.1,2.18.36,2.78.79.6.43.93,1.11.98,2.02.05.91-.01,2.15-.17,3.72-.11.96.17,3.48.83,7.56.66,4.08,1.79,9.98,3.39,17.7,3.22-1.73,6.06-3.33,8.53-4.81,2.46-1.48,4.24-2.61,5.33-3.38,3.91-2.96,7.13-4.84,9.65-5.62,2.52-.78,4.97-.89,7.34-.32,3.99.88,5.99,2.04,6,3.47,0,1.43-2.44,3.03-7.33,4.8-4.44,1.62-9.1,3.46-13.98,5.52-4.88,2.06-9.63,4.27-14.25,6.62.14.96.32,1.89.53,2.79.21.9.38,1.79.5,2.68,4.81,3.14,9.17,5.84,13.06,8.1,3.9,2.26,7.5,4.2,10.8,5.81,3.3,1.61,6.46,2.92,9.48,3.91,3.02.99,6.05,1.77,9.09,2.33,3.04.56,6.24.95,9.59,1.15,3.35.21,7.05.32,11.1.35,7.26.07,7.91,1.54,1.95,4.41-2.54,1.25-4.76,2.29-6.68,3.13-1.92.84-3.59,1.55-5.04,2.15s-2.78,1.1-3.99,1.5c-1.22.4-2.41.74-3.57,1.04-1.85.52-3.4.88-4.64,1.07-1.24.2-2.37.21-3.4.04-1.02-.17-2.06-.57-3.1-1.19-1.05-.63-2.34-1.49-3.88-2.58-4.84-3.47-9.67-7.17-14.49-11.11-4.82-3.94-10.02-8.23-15.58-12.9.74,11.29-1.07,20.8-5.44,28.54-4.37,7.74-11.38,14.37-21.02,19.88-2.92,1.63-4.59,2.11-5.02,1.45-.43-.66.63-2.12,3.17-4.38,3.94-3.39,7.34-7.03,10.19-10.91,2.85-3.88,5.09-8.04,6.71-12.48,1.62-4.44,2.56-9.21,2.83-14.31.27-5.09-.17-10.57-1.33-16.42Z"/><path class="cls-1" d="m709.53,67.41c2.21-5.68,3.6-10.71,4.18-15.09.58-4.38.44-7.31-.44-8.8-1.4-2.29-1.52-3.83-.34-4.62,1.17-.79,3.66-.38,7.47,1.22,2.08.9,3.69,1.66,4.84,2.29,1.15.63,1.93,1.22,2.33,1.77.41.54.45,1.1.14,1.68-.32.58-.82,1.24-1.52,1.99-.84.86-1.62,1.73-2.33,2.6-.71.88-1.46,1.96-2.23,3.26-.77,1.29-1.64,2.88-2.61,4.77-.97,1.89-2.19,4.32-3.68,7.3,2.24-.67,4.18-1.25,5.8-1.74,1.62-.49,2.82-.88,3.59-1.16,2.52-.95,4.62-1.68,6.28-2.18,1.66-.5,3.24-.66,4.72-.48,1.48.18,3.06.69,4.72,1.52,1.66.84,3.76,2.08,6.27,3.71,3.14,2.03,4.68,3.76,4.62,5.18-.07,1.43-1.51,2.4-4.35,2.91-1.42.22-3.46.9-6.12,2.03-2.66,1.14-5.25,2.46-7.77,3.98-2.82,1.65-4.49,2.29-4.99,1.92-.5-.37-.06-2.11,1.32-5.24.83-1.99,1.43-3.58,1.82-4.77.38-1.19.53-2.06.45-2.62-.08-.55-.38-.89-.88-1.02-.5-.12-1.2-.16-2.08-.11-1.44.14-3.65.5-6.63,1.08-2.99.58-6.23,1.3-9.75,2.16-3.51.86-7,1.74-10.46,2.63-3.46.89-6.39,1.73-8.78,2.5-2.85.92-5.29,1.66-7.31,2.21-2.02.55-3.79,1.01-5.32,1.36-1.52.35-2.86.62-4.01.79-1.15.18-2.25.26-3.3.26-.21,2.87-.67,5.71-1.37,8.52-.7,2.82-1.56,5.12-2.59,6.89-1.52,2.74-2.88,4.19-4.07,4.33-1.19.14-2.48-.85-3.86-2.99-1.05-1.54-1.61-2.95-1.68-4.23-.07-1.28.18-2.41.76-3.39,1.3-2.06,2.42-4.29,3.34-6.7.92-2.41,1.46-4.72,1.61-6.92.15-2.21.76-3.35,1.84-3.44,1.08-.08,2.73,1.28,4.94,4.1,2.81-.67,5.81-1.39,9.02-2.17,3.2-.77,6.44-1.57,9.71-2.4,3.27-.82,6.5-1.64,9.7-2.46,3.19-.81,6.18-1.63,8.97-2.47Zm-4.78,29.02c1.25-1.89,2.19-3.41,2.82-4.56.63-1.15,1.35-2.55,2.15-4.21.54-1.22.56-2.01.06-2.38-.5-.37-1.45-.33-2.83.13-3.54,1.19-7.84,3.23-12.91,6.1-1.34.77-2.73,1.19-4.18,1.25-1.45.06-3.26-.39-5.43-1.35-2.6-1.14-3.85-2.04-3.75-2.7.1-.66,1.61-1.22,4.54-1.67,2.37-.36,4.74-.87,7.11-1.51,2.37-.65,4.59-1.31,6.67-1.99s3.92-1.37,5.51-2.06c1.59-.69,2.71-1.33,3.35-1.91,1.5-1.28,2.9-1.94,4.19-1.98,1.29-.03,3.11.74,5.45,2.32,2.07,1.38,3.65,2.54,4.72,3.47,1.07.93,1.7,1.7,1.87,2.32.17.62-.04,1.2-.64,1.74-.61.54-1.56,1.07-2.85,1.59-.91.38-2.41,1.3-4.5,2.75-2.08,1.45-4.72,3.64-7.92,6.55.74.61,1.37,1.27,1.88,1.96.51.69,1.03,1.44,1.56,2.25,3.27-.82,6.03-1.55,8.29-2.18,2.25-.63,4.23-1.19,5.93-1.7,1.7-.5,3.17-.97,4.4-1.4,1.23-.43,2.42-.86,3.57-1.27,2.06-.8,3.85-1.4,5.37-1.79,1.52-.39,2.9-.63,4.14-.69,1.24-.07,2.39.06,3.46.38,1.06.32,2.21.8,3.43,1.42,3.34,1.75,4.64,3.36,3.89,4.81s-4.23,2.25-10.44,2.39c-2.34.04-6.08.47-11.21,1.29-5.14.83-11.38,2.05-18.74,3.66.35,1.24.72,2.62,1.12,4.14.39,1.52.77,3.06,1.13,4.62.36,1.56.72,3.09,1.06,4.57.35,1.48.61,2.82.8,4.01.33,2.14.54,4.09.65,5.85.11,1.76.06,3.45-.14,5.06-.2,1.61-.56,3.22-1.08,4.84-.52,1.62-1.25,3.35-2.18,5.19-1.43,2.81-2.86,4.3-4.29,4.48-1.43.18-2.71-.78-3.84-2.87-1.57-2.84-4.73-5.51-9.48-8.02-2.55-1.31-3.7-2.39-3.47-3.23.23-.85,1.91-1.1,5.04-.77,1.64.15,2.99.21,4.03.17,1.04-.04,1.87-.19,2.48-.44.61-.26,1.07-.69,1.38-1.3.31-.61.6-1.39.86-2.32.51-2.51.59-5.69.24-9.57-.35-3.87-1.19-8.05-2.53-12.54-3.97,1.01-8.37,2.27-13.2,3.78-4.83,1.51-9.53,3.18-14.1,5.01-2.14.81-4.02,1.22-5.64,1.23-1.62,0-3.38-.41-5.29-1.25-5.57-2.55-5.52-4.09.14-4.63,1.2-.1,4.98-.92,11.34-2.46,6.36-1.54,14.71-3.67,25.06-6.39-.72-1.51-1.71-2.73-2.99-3.67-1.08-.72-1.75-1.41-2.02-2.06-.26-.65-.34-1.18-.25-1.6.08-.5.72-.86,1.9-1.08,1.18-.22,2.61-.14,4.29.25Zm-17.56-33c.03,2.83-.63,4.59-1.98,5.28s-2.92.25-4.7-1.34c-1.04-.97-2.16-2.32-3.35-4.04-1.19-1.72-2.63-4.07-4.3-7.05-1.11-1.93-1.42-3.18-.94-3.74.48-.56,1.82-.52,4.02.11,3.8,1.04,6.62,2.55,8.46,4.53,1.84,1.98,2.77,4.07,2.78,6.25Zm16.12-4.9c-.23,1.17-.65,2.1-1.27,2.8s-1.3,1.17-2.03,1.4c-.73.23-1.49.19-2.27-.14-.78-.32-1.39-.9-1.84-1.72-.44-.74-.85-1.43-1.23-2.06-.38-.63-.77-1.34-1.18-2.13-.41-.79-.87-1.73-1.4-2.82-.53-1.09-1.2-2.43-2.01-4-2.32-4.58-1.06-5.87,3.78-3.86,4.41,1.83,7.21,3.77,8.42,5.81,1.2,2.04,1.54,4.28,1.03,6.7Z"/><path class="cls-1" d="m806.62,71.95c1.92.03,4.34-.13,7.27-.48,2.93-.35,6.56-1.01,10.89-1.98.17-5.36.24-9.76.21-13.2-.02-3.44-.18-6.22-.46-8.35-.29-2.12-.66-3.77-1.12-4.94-.46-1.17-1.05-2.12-1.75-2.85-1.1-1.14-1.79-2.19-2.05-3.15-.27-.96-.11-1.68.46-2.15.57-.47,1.57-.65,3.01-.55,1.44.1,3.31.61,5.62,1.53,2.62,1,4.63,1.88,6.02,2.62,1.39.74,2.32,1.46,2.79,2.15.47.69.58,1.47.32,2.35-.25.88-.75,1.95-1.49,3.22-.25.48-.52,1.19-.81,2.15-.3.96-.56,2.25-.78,3.89-.23,1.64-.46,3.69-.7,6.17-.24,2.48-.43,5.47-.57,8.99,1.77-.53,3.44-1,5-1.42,1.57-.41,2.91-.81,4.04-1.19,4.34-1.45,8.26-1.15,11.75.91,1.03.66,1.76,1.29,2.19,1.9.43.61.4,1.19-.09,1.74-.49.55-1.48,1.1-2.97,1.63-1.49.54-3.6,1.02-6.32,1.46-2.17.37-4.35.71-6.56,1.03-2.21.32-4.63.67-7.28,1.02l-.75,16.55c2.49-.6,4.58-1.04,6.26-1.34,1.69-.29,3.19-.49,4.51-.59,1.32-.1,2.5-.06,3.54.12,1.04.18,2.11.44,3.23.77,2.07.67,3.15,1.65,3.25,2.93.1,1.28-.98,2.23-3.23,2.83-1.13.3-2.21.55-3.25.73-1.04.18-2.23.38-3.55.6-1.32.22-2.87.43-4.63.65-1.76.21-3.93.46-6.49.73l-.79,19.19c3.37-.34,6.29-.66,8.78-.94,2.48-.28,4.71-.54,6.67-.79,1.96-.25,3.75-.5,5.35-.75,1.6-.25,3.21-.53,4.81-.82,1.68-.29,3.15-.49,4.39-.59,1.24-.1,2.38-.04,3.42.18,1.04.22,2.07.59,3.1,1.13,1.03.54,2.22,1.26,3.57,2.16,3.4,2.46,4.77,4.42,4.1,5.89-.67,1.47-3.71,1.96-9.14,1.47-4.79-.4-8.75-.7-11.87-.91-3.12-.21-5.94-.34-8.46-.38s-4.92-.04-7.2,0c-2.28.04-4.98.12-8.1.23-2.64.12-5.55.31-8.71.58-3.17.27-6.37.6-9.62.98-3.25.39-6.46.83-9.62,1.34-3.17.51-6.12,1.06-8.85,1.66-1.69.37-3.09.61-4.21.71-1.12.1-2.14.08-3.06-.05-.92-.13-1.81-.45-2.69-.94-.87-.49-1.9-1.19-3.09-2.09-2.29-1.72-3.34-2.84-3.13-3.35.21-.52,1.99-.83,5.36-.93,1.6-.05,3.74-.16,6.43-.32,2.68-.16,5.77-.37,9.25-.63,3.48-.26,7.27-.56,11.36-.9,4.09-.33,8.29-.71,12.62-1.12l.79-18.95c-2.73.28-5.03.48-6.91.61-1.88.13-3.48.17-4.8.1-1.32-.06-2.44-.2-3.35-.41-.92-.21-1.77-.49-2.57-.82-2.14-1-3.11-1.85-2.9-2.57.21-.72,1.84-1.13,4.88-1.24,2.08-.13,4.34-.33,6.79-.61,2.44-.28,5.47-.79,9.09-1.53l.64-17.39c-5.13.8-9.18,1.17-12.14,1.12-2.96-.05-5.48-.41-7.54-1.08-1.15,2.06-2.3,3.88-3.45,5.46-1.15,1.58-2.33,3.04-3.55,4.38-1.22,1.34-2.52,2.58-3.9,3.72-1.38,1.14-2.92,2.25-4.61,3.35-2.51,1.56-4.05,2.02-4.64,1.36-.59-.65.05-2.12,1.93-4.41,2.45-3.08,4.66-6.23,6.63-9.43,1.97-3.21,3.75-6.72,5.33-10.54,1.33-3.18,2.21-5.7,2.64-7.58.43-1.87.45-3.37.07-4.5-.45-1.69-.67-2.99-.66-3.91.01-.92.36-1.49,1.05-1.72.68-.23,1.74-.09,3.17.41s3.3,1.37,5.6,2.61c2.69,1.56,4.15,2.87,4.38,3.91.22,1.04-.52,2.35-2.22,3.92-.24.24-.51.53-.79.89-.29.36-.66.85-1.1,1.48-.45.63-.98,1.5-1.6,2.61-.62,1.11-1.42,2.54-2.41,4.28Z"/><path class="cls-1" d="m923.92,61.3c-.93,4.87-1.88,9.78-2.86,14.73-.98,4.94-1.99,9.82-3.03,14.64-1.04,4.81-2.12,9.5-3.23,14.05-1.12,4.56-2.19,8.86-3.22,12.9-.61,2.57-1.32,5.01-2.12,7.3-.81,2.3-1.49,3.92-2.07,4.88-1.91,3.48-3.62,5.16-5.13,5.01-1.52-.14-2.79-1.93-3.82-5.35-.9-2.76-1.19-4.94-.87-6.55.32-1.61,1.2-3.3,2.65-5.08.94-1.22,1.99-3.39,3.14-6.52,1.15-3.13,2.29-6.75,3.41-10.86,1.12-4.11,2.19-8.41,3.22-12.9,1.02-4.49,1.88-8.73,2.57-12.71.69-3.98,1.19-7.43,1.49-10.34.3-2.91.33-4.79.07-5.65-1.28-3.88-1.37-6.12-.29-6.75,1.08-.62,4.01.5,8.8,3.36,2.38.33,5.24.67,8.59,1.01s6.89.65,10.62.93c3.73.28,7.46.51,11.21.67s7.26.29,10.53.37,6.14.07,8.59-.03c2.45-.1,4.23-.3,5.34-.59,1.11-.29,2.07-.47,2.89-.53.82-.06,1.62.04,2.38.29.77.25,1.58.74,2.43,1.46.85.72,1.9,1.67,3.16,2.86,1.46,1.39,2.56,2.54,3.3,3.44.74.9,1.17,1.71,1.29,2.42.12.71-.04,1.39-.48,2.05-.44.65-1.14,1.43-2.11,2.31-.49.48-.98,1.17-1.45,2.06-.48.89-.95,2.19-1.41,3.9-.46,1.71-.97,3.95-1.54,6.74-.57,2.78-1.17,6.36-1.8,10.71-.63,4.36-1.37,9.61-2.19,15.76-.83,6.15-1.77,13.44-2.82,21.86-.38,3.1-1.21,6.04-2.51,8.82-1.29,2.78-2.9,5.02-4.82,6.71-2.32,2.11-4.1,3.04-5.36,2.78-1.25-.26-2.24-1.63-2.94-4.1-.5-1.79-1.2-3.52-2.08-5.17-.89-1.66-2.23-3.66-4.01-6-1.9-2.6-2.61-4.27-2.12-5,.49-.73,2.05-.46,4.67.81,1.65.77,3.01,1.34,4.09,1.69,1.08.35,1.93.44,2.57.26.64-.17,1.15-.65,1.53-1.44.38-.79.78-1.91,1.2-3.39.66-2.4,1.4-5.62,2.23-9.66.82-4.04,1.64-8.5,2.45-13.4.81-4.89,1.58-10.06,2.33-15.49.74-5.43,1.36-10.75,1.86-15.94.21-2.16.25-3.87.1-5.16-.14-1.28-.58-2.29-1.3-3.03-.73-.73-1.81-1.25-3.26-1.54-1.45-.29-3.34-.52-5.67-.68-6.57-.49-13.57-.98-21-1.46-7.43-.48-15.16-.97-23.19-1.47Zm14.74,31.55c1.79,3.23,2.96,5.87,3.5,7.92.54,2.04.64,3.77.32,5.17-.46,2.19-1.01,3.84-1.65,4.95-.64,1.11-1.3,1.74-1.98,1.91-.68.17-1.34-.11-1.99-.83-.65-.72-1.12-1.84-1.43-3.35-.33-1.36-.66-2.61-.99-3.77-.33-1.15-.65-2.24-.95-3.27-3.62,4.97-8.94,9.37-15.93,13.19-2.51,1.35-3.95,1.79-4.31,1.32-.37-.47.48-1.7,2.53-3.7,1.76-1.72,3.29-3.3,4.6-4.74,1.3-1.44,2.51-2.87,3.61-4.31,1.1-1.43,2.18-2.95,3.23-4.55,1.05-1.6,2.2-3.43,3.45-5.49-.72-1.91-1.34-3.52-1.84-4.83s-.94-2.52-1.32-3.64c-.37-1.12-.76-2.18-1.15-3.18-.4-1-.81-2.11-1.25-3.32-1.1-3.03-1.27-4.71-.53-5.02.74-.32,2.22,1.14,4.42,4.36,2.13,3.13,4.03,5.98,5.7,8.54,2.71-5.29,3.93-9.06,3.67-11.3-.31-2.9-.03-4.49.83-4.79.86-.3,2.87.76,6.02,3.18,1.86,1.46,2.86,2.69,3.01,3.69.15,1-.47,2.23-1.86,3.7-.7.77-1.69,2.12-2.96,4.05-1.27,1.93-2.86,4.64-4.76,8.12Zm19.17-1.66c1.92-3.56,3.26-6.5,4.03-8.8.77-2.3,1.04-4,.82-5.09-.43-2.67-.22-4.26.64-4.76.86-.5,2.81.29,5.86,2.36,2.17,1.52,3.42,2.89,3.73,4.12.31,1.23.08,2.23-.7,2.98-.7.77-1.83,2.34-3.38,4.71-1.55,2.37-3.8,5.98-6.75,10.82,1.68,2.48,3.03,4.63,4.06,6.43,1.03,1.8,1.77,3.35,2.24,4.65.46,1.3.69,2.43.69,3.41,0,.97-.13,1.89-.35,2.74-1.25,3.92-2.55,5.93-3.91,6.02-1.36.09-2.61-1.71-3.75-5.4-.93-3.08-2.14-6.58-3.66-10.5-2.3,2.93-4.99,5.69-8.08,8.28-3.09,2.59-6.17,4.55-9.24,5.88-2.28.98-3.61,1.24-3.97.77-.37-.47.41-1.55,2.33-3.25,1.83-1.63,3.43-3.16,4.82-4.58,1.38-1.42,2.69-2.86,3.92-4.31,1.23-1.45,2.41-2.99,3.54-4.62,1.14-1.63,2.34-3.55,3.62-5.77-.93-2.11-1.88-4.24-2.85-6.4-.96-2.16-1.96-4.26-2.98-6.3-1.01-2.12-1.02-3.36-.02-3.72.99-.35,2.18.4,3.56,2.26,1.12,1.49,2.15,2.91,3.1,4.25.94,1.34,1.84,2.61,2.69,3.82Z"/><path class="cls-1" d="m1040.45,140.58c.02.43-.63.9-1.96,1.41-1.32.51-2.61.85-3.85,1.01-4.66.49-8.39.9-11.18,1.24-2.79.34-4.99.63-6.6.87-1.61.24-2.79.47-3.54.67-.75.2-1.47.44-2.15.71-.86.29-1.63.47-2.29.54-.66.07-1.27-.06-1.83-.39-.57-.32-1.19-.9-1.87-1.73-.68-.83-1.46-1.95-2.32-3.35-2.62-4.14-3.63-6.65-3.02-7.54.61-.89,2.61-.61,6,.83.88.39,1.98.76,3.3,1.09,1.32.34,3.1.64,5.34.91,2.23.27,5,.54,8.3.8,3.3.26,7.32.51,12.08.73,1.67.07,3,.33,3.99.76.99.43,1.52.91,1.59,1.45Zm-4.76-32.94c-3.51-.63-6.35-.99-8.52-1.07-2.18-.08-4.28.12-6.31.59-1.55.31-2.58.18-3.11-.39-.52-.56-.99-2.19-1.41-4.88-.33-1.98-.28-3.21.15-3.7s1.43-.71,3.03-.66c.83.04,1.68-.07,2.53-.32.85-.25,1.85-.75,3-1.49,1.15-.74,2.56-1.86,4.22-3.35,1.67-1.49,3.73-3.46,6.2-5.91,1.95-1.94,3.54-3.89,4.77-5.83,1.23-1.94,1.81-3.31,1.75-4.09-.18-3.62.42-5.57,1.79-5.86,1.37-.28,3.67,1.37,6.91,4.96,1.05,1.13,1.82,2.08,2.31,2.84.49.77.76,1.41.79,1.93.03.52-.19.97-.67,1.36-.47.39-1.13.81-1.97,1.28-.51.25-.95.47-1.32.68-.37.21-.84.51-1.4.91-.56.4-1.27.91-2.13,1.54-.86.63-2.03,1.5-3.51,2.59-1.97,1.52-4.32,3.32-7.04,5.42-2.73,2.1-5.38,4.18-7.97,6.24,1.03.45,2.58,1.03,4.66,1.76,2.08.73,4.41,1.5,7.01,2.32,2.66-2.29,4.7-4.35,6.11-6.19,1.41-1.84,2.23-3.35,2.48-4.54.44-2.22,1.21-3.28,2.32-3.19,1.11.09,2.65,1.58,4.6,4.47,1.73,2.56,2.52,4.31,2.35,5.27-.17.96-.95,1.75-2.35,2.36-1.38.54-2.8,1.21-4.26,2.01-1.47.8-3.24,1.86-5.3,3.17-2.07,1.31-4.57,2.96-7.51,4.94-2.94,1.98-6.53,4.44-10.77,7.36,3.44.35,6.29.72,8.58,1.09,2.28.38,4.43.83,6.45,1.36,3.05.73,4.53,1.58,4.44,2.57-.09.99-1.73,1.43-4.92,1.33-3.44-.1-6.37-.15-8.78-.15-2.42,0-4.53.05-6.34.14-1.81.09-3.38.26-4.69.52-1.32.26-2.55.57-3.69.93-.87.29-1.58.45-2.13.46-.56.02-1.03-.15-1.42-.5-.39-.35-.68-.96-.88-1.83-.2-.88-.42-2.07-.65-3.6-.32-2.48-.17-4.06.45-4.74.62-.67,1.73-.9,3.35-.67,1.14.14,2.25.17,3.34.09,1.09-.08,2.32-.46,3.7-1.12s3-1.66,4.86-3c1.87-1.34,4.17-3.14,6.91-5.4Zm27.22,4.31c-1.5.66-2.98,1.18-4.42,1.57-1.45.38-2.93.69-4.45.92-2.87.44-4.42.34-4.66-.3-.25-.64.8-1.52,3.15-2.65,4.1-2.04,7.77-4.23,11.01-6.58,3.23-2.34,6.44-5.16,9.63-8.46,2.7-2.87,4.6-5.15,5.7-6.84,1.1-1.69,1.67-2.95,1.71-3.79.06-2.6.68-3.96,1.86-4.05s3.27,1.48,6.29,4.74c1.34,1.49,2.36,2.71,3.04,3.67.68.96,1.05,1.72,1.11,2.29.05.57-.19,1.02-.72,1.34-.54.32-1.28.61-2.21.88-.76.24-1.62.64-2.58,1.2-.96.56-1.99,1.19-3.08,1.91-1.1.72-2.18,1.51-3.24,2.36-1.06.86-1.99,1.7-2.79,2.52,2.52.54,4.99.88,7.41,1,2.41.12,4.1.02,5.07-.32,1.93-.68,3.46-.8,4.58-.37,1.12.44,2.47,1.65,4.07,3.65,2.46,3.15,3.65,5.3,3.59,6.47-.07,1.16-1,1.9-2.8,2.2-1.45.26-3.02.81-4.71,1.66-1.7.85-3.22,1.76-4.58,2.72-1.66,1.12-3.47,2.3-5.44,3.56-1.97,1.26-4.01,2.5-6.13,3.71,4.11,5.93,8.53,11.12,13.25,15.56,4.72,4.45,10.37,8.63,16.97,12.54,1.68,1.01,2.39,1.96,2.12,2.84-.27.88-1.33,1.21-3.2.98-4.62-.6-8.29-1.14-11-1.62-2.71-.48-4.84-1.06-6.39-1.73-1.55-.67-2.76-1.51-3.63-2.54-.87-1.02-1.77-2.38-2.71-4.06-1.16-2.01-2.15-3.78-2.98-5.3-.83-1.52-1.63-2.96-2.42-4.34-.79-1.38-1.6-2.81-2.44-4.29-.84-1.48-1.8-3.21-2.88-5.2-6.17,3.1-12.35,5.13-18.53,6.11-6.19.97-11.92,1.13-17.2.47-3.59-.41-5.38-.93-5.37-1.56,0-.63,1.66-1.18,4.96-1.64,5.98-.87,11.64-2.03,16.98-3.47,5.33-1.44,10.5-3.62,15.5-6.53-1.53-2.65-2.88-4.86-4.04-6.62-1.16-1.76-2.28-3.3-3.35-4.6Zm-11.3,30.88c5.77,1.43,10.65,2.43,14.64,3.02,3.99.59,6.86.81,8.61.66.89-.11,1.7-.13,2.43-.04.73.09,1.46.32,2.17.7.71.38,1.45.95,2.19,1.72.75.77,1.63,1.76,2.65,2.96,1.49,1.79,2.59,3.26,3.29,4.39.7,1.14,1.09,2.03,1.16,2.69.07.66-.16,1.13-.68,1.41-.52.28-1.26.56-2.19.82-3.88.93-6.79,2.8-8.7,5.6,1.35,2.68,1.75,4.57,1.19,5.69-.56,1.12-1.96,1.37-4.2.75-2.24-.62-4.7-1.28-7.37-2-2.67-.72-5.26-1.39-7.75-2.01-1.56-.38-3.4-.87-5.52-1.48-2.12-.61-4.06-1.19-5.82-1.72-1.1,2.67-2.13,4.15-3.08,4.45-.95.3-1.85-.03-2.7-1.01-.42-.49-.7-1.39-.83-2.71-.13-1.32.03-2.87.49-4.66,1.21-4.92,1.94-8.96,2.21-12.13.26-3.17.13-5.82-.4-7.96-.6-2.16-.15-3.34,1.36-3.53,1.51-.19,3.79,1.26,6.86,4.37Zm-2.28,18.15c3.65.94,6.78,1.69,9.38,2.26,2.6.57,5.2,1.01,7.8,1.33.73.09,1.35.07,1.86-.05.51-.12,1-.45,1.5-1,.49-.55,1.02-1.4,1.59-2.56.57-1.15,1.25-2.74,2.04-4.75.6-1.48.74-2.54.41-3.16-.33-.63-1.17-1.09-2.5-1.38-3.81-.99-7.14-1.82-10-2.48-2.86-.66-5.81-1.27-8.83-1.82-.39,2.32-.87,4.67-1.45,7.06-.58,2.38-1.17,4.57-1.78,6.56Zm24.52-54.86c-2.45,1.68-4.75,3.04-6.89,4.07,1.3,1.13,2.52,2.47,3.68,4.02,1.15,1.55,2.56,3.59,4.22,6.11,1.97-1.26,3.78-2.51,5.44-3.75,1.66-1.24,3.6-2.83,5.8-4.77.97-.85,1.42-1.45,1.33-1.82-.08-.37-.73-.64-1.94-.81-2.98-.45-5.34-.89-7.1-1.34-1.75-.44-3.27-1.02-4.55-1.72Z"/><path class="cls-1" d="m1147.51,150.28c-2.7,1.26-5.18,2.34-7.45,3.24-2.27.9-4.43,1.64-6.47,2.21-2.04.57-4.08,1-6.12,1.31-2.04.3-4.16.48-6.38.54-6.33-.09-6.51-1.19-.52-3.29,3.37-1.17,6.43-2.3,9.17-3.4,2.74-1.1,5.37-2.28,7.89-3.55,2.52-1.27,4.98-2.61,7.4-4.02,2.42-1.42,4.95-3.04,7.59-4.88,4.26-2.96,7.43-5.55,9.52-7.79,2.08-2.23,3.31-4.35,3.67-6.34.38-2.53,1.31-3.73,2.79-3.6,1.48.13,3.4,2.29,5.75,6.49,1.74,3.32,2.45,5.69,2.13,7.11-.32,1.42-1.37,2.33-3.13,2.73-.54.16-1.25.41-2.12.75-.87.34-1.75.71-2.64,1.08-.89.38-1.76.8-2.6,1.25-.84.45-1.54.85-2.08,1.19-1.8,1.12-3.55,2.16-5.27,3.14-1.72.97-3.4,1.88-5.04,2.71.71,3.03,1.07,5.26,1.07,6.67,0,1.42-.34,2.75-1.03,4.02-.58,1.05-1.37,2.46-2.38,4.24-1.01,1.77-2.1,3.66-3.24,5.68-1.15,2.02-2.35,4.09-3.61,6.23-1.26,2.14-2.43,4.14-3.5,6.02-1.07,1.88-2,3.49-2.78,4.84-.78,1.35-1.31,2.27-1.58,2.76-1.27,2.32-2.41,4.32-3.42,6-1.01,1.68-1.95,3.19-2.83,4.54-.87,1.35-1.73,2.54-2.58,3.58-.84,1.04-1.73,2.08-2.67,3.12-1.42,1.59-2.71,2.16-3.88,1.71-1.17-.46-1.9-1.82-2.21-4.08-.23-1.58-.34-3.01-.33-4.28.01-1.27.23-2.43.66-3.47.43-1.04,1.12-2.1,2.08-3.17.95-1.07,2.24-2.26,3.86-3.56,1.14-.92,2.14-1.84,3-2.74.86-.9,1.85-2.22,2.99-3.97,1.14-1.75,2.59-4.19,4.35-7.33,1.76-3.14,4.12-7.41,7.08-12.82,1.65-3.02,2.83-5.34,3.53-6.96.7-1.62,1.14-2.93,1.33-3.93Zm11.97,42.65c2.04.93,4.26,1.83,6.67,2.69,2.4.86,4.72,1.62,6.95,2.3s4.27,1.2,6.12,1.57c1.85.37,3.24.54,4.17.5.78.07,1.41.13,1.87.2.46.07.92.32,1.37.75.45.43.97,1.06,1.57,1.88.59.83,1.38,2.01,2.37,3.55,1.28,2.16,2.22,3.9,2.82,5.23.59,1.33.88,2.35.85,3.07-.03.72-.34,1.21-.94,1.47-.6.26-1.42.43-2.46.5-2.15.1-3.92.37-5.29.8-1.38.43-2.95,1.26-4.71,2.49.75,2.78.64,4.7-.35,5.76-.99,1.05-2.73,1.04-5.23-.06-2.5-1.09-5.65-2.47-9.43-4.13-3.79-1.66-8.45-3.68-13.98-6.07-1.12,1.21-2.14,2-3.07,2.36-.93.36-1.68.31-2.25-.14s-.9-1.27-.98-2.45c-.08-1.19.22-2.73.89-4.64.93-3.05,1.69-5.55,2.26-7.52.57-1.97.99-3.61,1.25-4.92.26-1.31.41-2.42.44-3.31.03-.89.01-1.77-.06-2.63-.3-2.62.19-3.98,1.46-4.05,1.27-.08,3.84,1.53,7.69,4.82Zm-4.9,17.97c3.14,1.26,5.98,2.36,8.53,3.29,2.54.93,5.34,1.87,8.38,2.8.87-.25,1.78-.8,2.75-1.64.96-.84,2.35-2.59,4.17-5.24.98-1.47,1.37-2.6,1.17-3.39-.2-.8-1.17-1.53-2.9-2.2-3.14-1.26-5.98-2.36-8.53-3.29-2.54-.93-5.32-1.9-8.33-2.91-.79,1.94-1.63,3.99-2.53,6.14-.9,2.15-1.81,4.3-2.71,6.45Zm71.12-37.29c1.66,3.46,1.92,5.63.76,6.5-1.16.87-3.66.07-7.51-2.4-3.25-2.05-6.76-4.02-10.52-5.89-3.76-1.87-7.46-3.58-11.09-5.1-2.29-.98-4.65-1.92-7.07-2.84-2.42-.91-4.78-1.77-7.08-2.57-2.3-.8-4.45-1.5-6.45-2.09-2-.59-3.73-1.06-5.18-1.4-2.41-.59-4.22-1.28-5.43-2.08s-2.35-2.13-3.42-3.99c-1.31-2.27-1.73-3.68-1.24-4.23.49-.56,2.17-.13,5.06,1.26,1.05.58,2.65,1.31,4.81,2.22,2.15.9,4.57,1.86,7.25,2.87,2.68,1.01,5.49,2.04,8.42,3.1,2.93,1.06,5.74,2.04,8.43,2.97,2.69.92,5.12,1.73,7.29,2.42,2.17.69,3.87,1.18,5.08,1.48,2.98.72,5.48,1.4,7.5,2.05,2.02.65,3.69,1.33,5.03,2.06,1.33.73,2.41,1.55,3.24,2.46.82.91,1.54,1.98,2.14,3.22Zm-32.62,16.63c1.4,1.77,1.81,3.11,1.22,4.02-.59.91-2.41.9-5.45-.04-2.09-.68-4.25-1.41-6.47-2.17-2.23-.76-5.06-1.76-8.48-3-1.84-.64-3.69-1.47-5.55-2.49-1.86-1.02-3.26-2.01-4.19-2.97-1.8-1.71-2.52-2.9-2.15-3.57.36-.67,1.36-.65,2.98.06.67.28,1.64.62,2.92,1.05,1.27.42,2.65.86,4.14,1.31,1.49.45,3.04.86,4.65,1.24,1.61.38,3.13.69,4.56.92,3.17.55,5.66,1.27,7.49,2.18,1.83.91,3.27,2.06,4.33,3.46Zm6.15-12.5c1.11,1.8,1.33,3.1.66,3.92-.68.82-2.11.9-4.31.25-2.16-.72-4.86-1.65-8.11-2.79-3.25-1.14-6.49-2.27-9.7-3.39-3.11-1.15-5.68-2.87-7.7-5.17-3.01-3.83-2.33-4.83,2.04-2.99,3.21,1.3,6.27,2.38,9.17,3.24,2.9.86,5.69,1.52,8.36,1.97,2.46.34,4.44.92,5.95,1.75,1.51.82,2.72,1.9,3.64,3.22Zm8.1-23.33c-.93,2.04-2.17,3.14-3.72,3.3-1.55.16-2.93-.64-4.15-2.41-.89-1.21-1.83-3.12-2.82-5.72-1-2.6-1.9-5.66-2.7-9.2-.47-1.81-.41-2.87.17-3.19.58-.32,1.96.12,4.14,1.31,2.67,1.46,4.76,2.83,6.29,4.12,1.53,1.29,2.62,2.55,3.27,3.77.65,1.22.92,2.49.8,3.79-.12,1.3-.55,2.71-1.28,4.22Z"/><path class="cls-1" d="m1233.87,231.33c-.59,2.18-1.54,4.21-2.84,6.08-1.31,1.87-3.1,3.74-5.38,5.62-.93.8-1.76,1.44-2.5,1.93-.74.49-1.46.92-2.15,1.29-.7.37-1.48.72-2.35,1.06-.87.33-1.91.69-3.12,1.07-1.71.49-2.94.19-3.7-.91-.76-1.1-.65-3.2.34-6.28.83-2.5,1.73-4.13,2.69-4.9.96-.77,2.45-1.28,4.47-1.53,1.46-.18,3.23-.82,5.32-1.94,2.09-1.11,4-2.46,5.74-4.04,1.74-1.58,2.96-2.13,3.65-1.64.69.49.63,1.89-.17,4.21Zm44.56,61.47c.48.68.72,1.35.72,2.01,0,.66-.27,1.19-.79,1.59-.52.4-1.31.7-2.37.89-1.06.19-2.41.1-4.05-.27-2.28-.46-4.81-1.35-7.59-2.66-2.78-1.31-5.58-2.83-8.38-4.57-2.81-1.74-5.49-3.6-8.04-5.6-2.55-1.99-4.63-3.92-6.22-5.78-2.85-3.24-5.01-6.38-6.5-9.42-1.48-3.04-2.39-6.1-2.71-9.2-.32-3.09-.09-6.21.69-9.36.78-3.14,2.05-6.42,3.79-9.83.63-1.33,1.28-2.25,1.93-2.76.65-.51,1.18-.67,1.61-.5.42.18.69.67.82,1.48.13.81-.04,1.9-.5,3.27-1.42,4.68-1.93,9.16-1.51,13.44.41,4.28,2.04,8.5,4.89,12.65.84,1.26,1.77,2.45,2.79,3.55,1.02,1.1,2.24,2.23,3.67,3.4,1.42,1.16,3.12,2.37,5.1,3.61,1.98,1.24,4.34,2.63,7.09,4.17.92.51,1.68.83,2.3.96.61.12,1.15-.17,1.6-.88.45-.71.91-1.88,1.37-3.5.46-1.62.99-3.93,1.59-6.91.41-2.22,1.04-3.28,1.88-3.18.84.1,1.44,1.6,1.79,4.52.65,5.28,1.41,9.37,2.28,12.29.87,2.91,1.79,5.11,2.77,6.58Zm-6.48-87.6c3.67-1.19,6.69-2.26,9.05-3.21,2.36-.95,4.24-1.82,5.62-2.61,1.38-.8,2.37-1.55,2.97-2.25.6-.7.97-1.4,1.11-2.1.57-2.29,1.46-3.33,2.65-3.1,1.19.22,2.84,2.17,4.95,5.85,2.1,3.67,3.04,6.05,2.8,7.14-.24,1.08-1.23,1.5-2.97,1.26-1.68-.19-4.32-.15-7.94.12-3.62.27-7.99.84-13.13,1.7,5.35,2.76,9.77,4.77,13.26,6.02,3.49,1.25,6.21,1.93,8.16,2.03.69.03,1.3.15,1.84.37.54.22,1.1.63,1.69,1.25s1.18,1.48,1.77,2.6c.59,1.12,1.26,2.64,2.01,4.54.65,1.63,1.12,2.96,1.39,3.98.27,1.02.32,1.83.17,2.42-.16.59-.49,1.01-1,1.28-.51.26-1.18.47-2.02.63-1.67.32-3.68,1.39-6.02,3.22s-4.35,3.81-6.02,5.95c-.74.95-1.6,1.98-2.57,3.09-.98,1.12-1.99,2.25-3.04,3.41-1.06,1.16-2.16,2.3-3.3,3.44-1.14,1.14-2.2,2.14-3.18,3-2.1,1.91-4.08,3.11-5.93,3.59-1.85.48-3.15.43-3.91-.16-.5-.4-.78-1.04-.84-1.95-.05-.9.24-2.42.89-4.56.15-.59.18-1.1.07-1.55-.11-.44-.68-1.04-1.72-1.8-1.03-.76-2.65-1.71-4.84-2.87-2.19-1.16-5.24-2.75-9.13-4.78-.6-.27-1.16-.6-1.66-.99-.5-.4-1.01-.79-1.51-1.18-.72.66-1.53,1.11-2.44,1.37-.91.25-1.62.18-2.12-.21-1.07-.84-1.34-2.31-.8-4.43.54-2.12,1.55-4.12,3.02-6.01,2.71-3.47,5-6.6,6.88-9.39s3.4-5.29,4.55-7.48c1.15-2.19,1.97-4.12,2.45-5.77.48-1.65.76-3.11.83-4.38.05-.97.21-1.74.49-2.28.27-.55.72-.76,1.33-.63.61.12,1.42.63,2.41,1.5.99.88,2.22,2.19,3.69,3.95Zm-10.74,58.77c-1.43,1.83-2.87,2.63-4.32,2.41-1.45-.22-2.39-1.1-2.8-2.65-.4-1.43-.63-3.48-.67-6.16-.04-2.67.03-5.3.23-7.89.2-3.9,1.54-4.18,4-.83,1.64,2.19,2.87,4.02,3.71,5.49.83,1.47,1.36,2.77,1.59,3.91.22,1.14.18,2.14-.14,3.01-.32.87-.85,1.77-1.59,2.72Zm6.68-47.93c1.95,1.02,3.77,1.83,5.47,2.45,1.7.62,3.46,1.18,5.3,1.7,2.18.59,3.73,1.14,4.65,1.65.92.51,1.66,1.25,2.24,2.2,1.38,2,1.82,3.45,1.31,4.37-.52.92-1.53,1.04-3.03.37-2.48-1.12-4.61-2.13-6.4-3.02-1.79-.89-3.37-1.7-4.74-2.41-1.37-.71-2.58-1.41-3.63-2.08-1.05-.67-2.08-1.34-3.07-2.02-.66,1.11-1.34,2.17-2.04,3.2-.7,1.03-1.44,2.1-2.21,3.22,1.65.88,3.28,1.65,4.9,2.31,1.62.66,3.52,1.28,5.7,1.86,2.18.59,3.73,1.14,4.65,1.65.92.51,1.66,1.25,2.24,2.2,1.33,2.06,1.76,3.53,1.27,4.42-.49.89-1.49.99-3,.32-4.54-2.12-8.16-3.91-10.88-5.38-2.72-1.46-5.04-2.9-6.98-4.31-.73,1.06-1.48,2.09-2.27,3.1-.79,1.01-1.59,2.1-2.42,3.29,4.15,2.23,7.41,3.99,9.8,5.29,2.38,1.3,4.18,2.35,5.39,3.14,1.21.79,2,1.41,2.36,1.85.37.44.61.91.73,1.41.16.84.54,1.23,1.13,1.19.59-.04,1.86-.98,3.8-2.82,2.09-2.02,3.9-3.86,5.44-5.5,1.54-1.64,2.91-3.21,4.13-4.7,1.21-1.49,2.34-2.99,3.38-4.52,1.04-1.52,2.08-3.15,3.12-4.87.56-.98.58-2.14.04-3.47-.54-1.33-1.37-2.24-2.51-2.73-5.24-2.26-9.48-4.18-12.72-5.75-3.24-1.57-5.73-2.87-7.45-3.92-.66,1.11-1.3,2.18-1.91,3.23-.61,1.04-1.2,2.06-1.76,3.04Zm29.78,66.36c-.88,2.56-2.09,4-3.61,4.33-1.53.33-2.96-.79-4.3-3.36-1.28-2.52-2.48-5.18-3.59-7.98-1.11-2.8-2.22-6.1-3.31-9.9-.45-1.77-.42-2.84.08-3.22.5-.37,1.53.05,3.11,1.29,3.09,2.41,5.53,4.45,7.33,6.11,1.8,1.66,3.12,3.15,3.97,4.47.84,1.32,1.24,2.6,1.2,3.83-.05,1.23-.34,2.71-.87,4.42Z"/><path class="cls-1" d="m1341.61,292.54c-2.8-2.09-5.07-3.87-6.79-5.33-1.73-1.46-3.09-2.76-4.09-3.9-1-1.14-1.75-2.22-2.25-3.23-.5-1.01-.89-2.14-1.18-3.4-.39-1.49-.3-2.33.27-2.54.57-.2,1.62.4,3.15,1.82,2.02,1.84,4.42,3.79,7.2,5.85,2.78,2.06,5.79,4.15,9.05,6.27,11.08-9.58,16.96-16.3,17.62-20.18.52-3.21,1.52-4.72,2.99-4.55,1.46.17,3.12,2.62,4.97,7.33.77,1.9,1.32,3.44,1.64,4.61.32,1.17.44,2.1.36,2.77-.08.68-.36,1.17-.82,1.5-.47.32-1.13.61-1.99.85-.97.25-2.04.63-3.19,1.15-1.15.52-2.44,1.25-3.87,2.18-1.42.93-3.04,2.07-4.85,3.41-1.81,1.34-3.94,2.98-6.4,4.92,2.93,1.65,4.97,3.06,6.11,4.24,1.14,1.18,1.93,2.65,2.37,4.43.44,1.77.31,2.98-.4,3.64-.71.65-1.97.46-3.8-.58-.94-.55-2.33-1.44-4.18-2.67-1.85-1.23-3.87-2.69-6.07-4.36-4.56,3.67-9.03,7.41-13.4,11.22-4.37,3.82-8.5,7.51-12.38,11.1-3.47,3.2-6.4,5.74-8.8,7.63-2.4,1.89-4.93,3.57-7.59,5.05-1.85,1.06-3.3,1.14-4.34.25-1.04-.89-1.34-2.46-.92-4.71.58-3.26,1.67-5.74,3.27-7.43,1.59-1.69,4.06-3.09,7.39-4.2.86-.25,1.96-.77,3.29-1.57,1.33-.8,3.17-2.05,5.5-3.77,2.33-1.72,5.27-3.99,8.81-6.82,3.54-2.83,7.97-6.49,13.31-10.97Zm38.77,30.51c-6.85,4.25-13.26,7.61-19.21,10.06-5.96,2.45-11.6,4.09-16.93,4.93-5.33.83-10.4.97-15.22.41-4.82-.56-9.51-1.67-14.09-3.33-3.46-1.27-5.1-2.26-4.93-2.96.17-.7,2.14-.83,5.92-.4,5.13.6,10.09.76,14.88.47,4.8-.29,9.51-1.02,14.14-2.19s9.27-2.78,13.91-4.83c4.64-2.05,9.37-4.54,14.18-7.46-.88-.6-1.67-1.16-2.35-1.67-.69-.51-1.28-.92-1.78-1.22-.88-.6-1.6-1.11-2.15-1.53-.55-.42-1-.88-1.35-1.37-.35-.49-.64-1.02-.87-1.56-.23-.55-.42-1.25-.55-2.1-.51-2.79-.55-4.37-.11-4.72.44-.35,1.5.33,3.19,2.04,1.41,1.42,3,2.87,4.75,4.35,1.75,1.49,3.75,3.09,6.01,4.83,5.47-3.63,9.56-6.92,12.29-9.87,2.72-2.95,4.29-5.38,4.71-7.28.57-3.03,1.54-4.52,2.9-4.47,1.36.05,2.96,2.33,4.82,6.82.88,2.13,1.44,3.86,1.7,5.21.26,1.34.29,2.43.08,3.27-.2.84-.65,1.47-1.35,1.9-.7.42-1.59.76-2.67,1-.97.24-2.54.96-4.71,2.15-2.17,1.19-5.64,3.33-10.41,6.42,1.38.9,2.66,1.68,3.86,2.32,1.19.64,2.2,1.12,3.04,1.44,1.79.64,3.06,1.43,3.81,2.36.75.94,1.42,2.6,2.01,5.01.53,2.23.9,3.96,1.11,5.18.2,1.23.2,2.16-.03,2.8-.22.64-.65,1.06-1.28,1.27-.63.2-1.54.36-2.74.48-1.88.21-3.84.74-5.88,1.59-2.05.85-4.46,2.24-7.26,4.17-6.76,4.71-12.41,8.46-16.97,11.25-4.56,2.79-8.45,4.88-11.67,6.28-3.23,1.4-6.02,2.23-8.38,2.51-2.36.27-4.72.3-7.09.1-2.76-.28-4.5-1.05-5.22-2.29-.71-1.25-.5-2.61.63-4.09.84-1.1,1.63-2.87,2.38-5.3.75-2.43,1.3-5.28,1.66-8.55.25-2.08.76-3.1,1.52-3.04.76.06,1.58,1.1,2.46,3.11.99,2.13,1.83,3.81,2.52,5.03.69,1.22,1.34,2.11,1.97,2.67.63.56,1.28.83,1.96.8.68-.03,1.51-.22,2.49-.58,5.23-2,10.82-4.7,16.76-8.12,5.94-3.41,11.73-7.61,17.36-12.59,1.93-1.68,2.95-2.91,3.04-3.7.09-.79-.55-1.81-1.92-3.05-.38-.41-1.02-.96-1.93-1.65-.91-.69-1.91-1.45-3.01-2.29Zm-27.18-6.27c-1.75,2.7-4.06,4.86-6.93,6.47-2.87,1.61-5.83,2.41-8.89,2.4-2.78.06-4.6-.47-5.46-1.58-.86-1.11-.64-2.43.67-3.96,1.01-1.15,1.85-2.06,2.53-2.74.68-.68,1.32-1.19,1.93-1.54.61-.34,1.21-.55,1.81-.61.6-.06,1.37-.04,2.33.05,1.46.17,3.07,0,4.82-.53,1.75-.52,3.37-1.21,4.88-2.05,1.97-1.05,3.2-1.19,3.71-.4.5.78.04,2.28-1.41,4.49Zm31.59,55.11c-1.76,1.63-3.29,2.19-4.57,1.69-1.28-.51-2.1-1.9-2.46-4.18-.13-1.08-.04-3.14.25-6.19s.74-6.48,1.35-10.31c.33-2.48.86-3.76,1.6-3.84.74-.08,1.84,1.26,3.32,4.04,1.37,2.55,2.41,4.74,3.13,6.58.72,1.84,1.11,3.47,1.16,4.89.06,1.42-.24,2.69-.88,3.83-.64,1.14-1.61,2.3-2.9,3.49Z"/><path class="cls-1" d="m1409.75,413.72c-1.37-1.49-2.57-2.84-3.59-4.03-1.03-1.19-2.23-2.48-3.62-3.86-.99-1.07-1.79-1.98-2.38-2.74-.6-.76-1.06-1.5-1.4-2.24-.34-.73-.58-1.46-.72-2.18-.14-.72-.24-1.64-.3-2.75-.14-2.69.11-4.15.77-4.39.65-.24,1.71.89,3.16,3.38.46.85,1.36,2.1,2.69,3.76,1.33,1.66,2.92,3.56,4.76,5.7,1.84,2.14,3.84,4.41,6,6.82,2.16,2.41,4.28,4.72,6.37,6.94,2.08,2.22,4.01,4.23,5.78,6.04,1.76,1.81,3.23,3.23,4.4,4.28,1.86,1.65,3.38,3.06,4.59,4.23,1.2,1.17,2.13,2.26,2.8,3.26.66,1,1.14,2.02,1.45,3.07.3,1.04.52,2.24.65,3.6.27,3.46-.16,5.35-1.29,5.67-1.13.32-3.27-1.61-6.39-5.77-.99-1.36-2.24-3-3.75-4.93-1.51-1.93-3.16-3.95-4.94-6.08-1.79-2.13-3.62-4.32-5.49-6.59-1.88-2.26-3.67-4.41-5.39-6.44-.21,2.15-.43,3.82-.64,5.02-.22,1.2-.51,2.03-.86,2.51-.36.47-.8.64-1.32.51-.52-.14-1.14-.45-1.84-.94-.51-.34-1.21-.71-2.11-1.13-.9-.41-2.14-.89-3.74-1.42-1.59-.53-3.63-1.15-6.11-1.86-2.48-.71-5.55-1.59-9.21-2.63,2.14,2.52,4.85,5.64,8.12,9.38s7.39,8.56,12.36,14.49c.45-1.06.92-2.21,1.4-3.44.48-1.23.98-2.54,1.5-3.94.94-2.35,1.85-3.4,2.73-3.16.87.24,1.5,1.81,1.89,4.72.53,4.73.75,8.66.65,11.79-.09,3.13-.5,5.72-1.21,7.77-.71,2.05-1.74,3.68-3.09,4.91-1.35,1.22-3.05,2.32-5.09,3.28-1.09.53-2.1.74-3.03.63-.93-.1-1.66-.41-2.19-.93-.53-.51-.87-1.2-1-2.07-.14-.87,0-1.78.43-2.73.97-2.17,1.89-4.26,2.76-6.28.88-2.02,1.8-4.25,2.76-6.71-6.67-6.91-12.64-12.6-17.93-17.07-5.29-4.47-9.38-7.28-12.25-8.45-2.57-.99-3.99-1.95-4.26-2.87-.27-.92.36-2.61,1.91-5.07,1.01-1.53,1.84-2.7,2.5-3.52.66-.82,1.3-1.29,1.94-1.42.63-.13,1.36.06,2.18.58.82.51,1.83,1.33,3.05,2.45,1.61,1.43,4.1,2.55,7.45,3.35,3.36.81,7.61,1.19,12.76,1.15,1.95.05,3.74-.5,5.37-1.67Zm51.02-19.4c-5.64.46-11.36.57-17.17.33-5.81-.24-11.56-.89-17.23-1.94-5.68-1.05-11.15-2.59-16.42-4.63-5.27-2.04-10.15-4.64-14.64-7.81-2.48-1.72-3.49-2.9-3.04-3.53.45-.63,2.09-.39,4.92.71,9.21,3.51,18.35,5.89,27.42,7.15,9.07,1.26,17.67,1.51,25.79.75,9.52-.82,14.93-2.27,16.23-4.38.78-1.28,1.58-2.14,2.39-2.58.81-.44,1.55-.4,2.23.11.67.51,1.2,1.49,1.57,2.92.37,1.43.49,3.44.37,6.01-.12,2-.28,3.54-.47,4.62-.2,1.09-.46,1.88-.79,2.39-.34.51-.76.74-1.27.69-.51-.05-1.13-.26-1.86-.64-.42-.2-.97-.34-1.65-.42-.68-.08-1.39-.11-2.15-.09-1.71,9.18-2.97,16.9-3.76,23.18-.8,6.28-1.23,11.73-1.28,16.37-.06,4.64.22,8.77.83,12.39.61,3.62,1.45,7.33,2.52,11.13,1.15,4.22,1.1,6.51-.15,6.86-1.26.35-3.66-1.95-7.2-6.89-2.34-3.25-4.13-5.86-5.37-7.82-1.24-1.96-2.08-3.71-2.52-5.24-.44-1.53-.51-3.09-.21-4.68.3-1.59.83-3.69,1.6-6.3.95-3.5,1.96-7.09,3.04-10.77,1.07-3.68,2.12-7.25,3.15-10.7,1.03-3.46,1.98-6.67,2.85-9.64.87-2.97,1.63-5.48,2.29-7.54Zm-18.65,28.39c-3.05-2.59-5.41-4.68-7.07-6.26-1.67-1.58-2.83-2.73-3.49-3.45-1.5-1.69-2.75-3.15-3.74-4.36-.99-1.21-1.83-2.34-2.51-3.37-.68-1.04-1.25-2.05-1.71-3.04-.46-.99-.88-2.13-1.25-3.42-.74-2.29-.69-3.59.15-3.91.84-.32,1.97.59,3.38,2.73,1.01,1.54,2.55,3.4,4.61,5.58,2.06,2.18,4.2,4.08,6.41,5.69,1.5,1.12,2.77,2.1,3.81,2.95,1.04.85,1.89,1.67,2.57,2.48.67.8,1.23,1.58,1.69,2.34.45.76.84,1.6,1.17,2.54.79,2.07.74,3.51-.16,4.34-.89.83-2.18.55-3.86-.84Z"/></g></svg>